G04 #@! TF.GenerationSoftware,KiCad,Pcbnew,5.1.5*
G04 #@! TF.CreationDate,2020-01-27T03:04:38+01:00*
G04 #@! TF.ProjectId,meshlight,6d657368-6c69-4676-9874-2e6b69636164,rev?*
G04 #@! TF.SameCoordinates,Original*
G04 #@! TF.FileFunction,Soldermask,Bot*
G04 #@! TF.FilePolarity,Negative*
%FSLAX46Y46*%
G04 Gerber Fmt 4.6, Leading zero omitted, Abs format (unit mm)*
G04 Created by KiCad (PCBNEW 5.1.5) date 2020-01-27 03:04:38*
%MOMM*%
%LPD*%
G04 APERTURE LIST*
%ADD10C,0.100000*%
G04 APERTURE END LIST*
D10*
G36*
X174941366Y-106420695D02*
G01*
X175098460Y-106468349D01*
X175243231Y-106545731D01*
X175370128Y-106649872D01*
X175474269Y-106776769D01*
X175551651Y-106921540D01*
X175599305Y-107078634D01*
X175616000Y-107248140D01*
X175616000Y-108934171D01*
X175618402Y-108958557D01*
X175625515Y-108982006D01*
X175637066Y-109003617D01*
X175652611Y-109022559D01*
X175671553Y-109038104D01*
X175693164Y-109049655D01*
X175716613Y-109056768D01*
X175740999Y-109059170D01*
X175765385Y-109056768D01*
X175788834Y-109049655D01*
X175887993Y-109008582D01*
X176313219Y-108924000D01*
X176746781Y-108924000D01*
X177172007Y-109008582D01*
X177405987Y-109105500D01*
X177572565Y-109174499D01*
X177933056Y-109415371D01*
X178239629Y-109721944D01*
X178453891Y-110042611D01*
X178480502Y-110082437D01*
X178646418Y-110482993D01*
X178731000Y-110908219D01*
X178731000Y-111341781D01*
X178646418Y-111767007D01*
X178480502Y-112167563D01*
X178480501Y-112167565D01*
X178239629Y-112528056D01*
X177933056Y-112834629D01*
X177572565Y-113075501D01*
X177572564Y-113075502D01*
X177572563Y-113075502D01*
X177172007Y-113241418D01*
X176746781Y-113326000D01*
X176313219Y-113326000D01*
X175887993Y-113241418D01*
X175487437Y-113075502D01*
X175487436Y-113075502D01*
X175487435Y-113075501D01*
X175126944Y-112834629D01*
X174820371Y-112528056D01*
X174579499Y-112167565D01*
X174579498Y-112167563D01*
X174413582Y-111767007D01*
X174329000Y-111341781D01*
X174329000Y-110908219D01*
X174413582Y-110482993D01*
X174539569Y-110178834D01*
X174546682Y-110155385D01*
X174549084Y-110130999D01*
X174546682Y-110106613D01*
X174539569Y-110083164D01*
X174528018Y-110061553D01*
X174512473Y-110042611D01*
X174493531Y-110027066D01*
X174471920Y-110015515D01*
X174448471Y-110008402D01*
X174424085Y-110006000D01*
X172858140Y-110006000D01*
X172688634Y-109989305D01*
X172531540Y-109941651D01*
X172386769Y-109864269D01*
X172259872Y-109760128D01*
X172155731Y-109633231D01*
X172078349Y-109488460D01*
X172030695Y-109331366D01*
X172014000Y-109161860D01*
X172014000Y-107248140D01*
X172030695Y-107078634D01*
X172078349Y-106921540D01*
X172155731Y-106776769D01*
X172259872Y-106649872D01*
X172386769Y-106545731D01*
X172531540Y-106468349D01*
X172688634Y-106420695D01*
X172858140Y-106404000D01*
X174771860Y-106404000D01*
X174941366Y-106420695D01*
G37*
G36*
X124467007Y-109008582D02*
G01*
X124700987Y-109105500D01*
X124867565Y-109174499D01*
X125228056Y-109415371D01*
X125534629Y-109721944D01*
X125748891Y-110042611D01*
X125775502Y-110082437D01*
X125941418Y-110482993D01*
X126026000Y-110908219D01*
X126026000Y-111341781D01*
X125941418Y-111767007D01*
X125775502Y-112167563D01*
X125775501Y-112167565D01*
X125534629Y-112528056D01*
X125228056Y-112834629D01*
X124867565Y-113075501D01*
X124867564Y-113075502D01*
X124867563Y-113075502D01*
X124467007Y-113241418D01*
X124041781Y-113326000D01*
X123608219Y-113326000D01*
X123182993Y-113241418D01*
X122782437Y-113075502D01*
X122782436Y-113075502D01*
X122782435Y-113075501D01*
X122421944Y-112834629D01*
X122115371Y-112528056D01*
X121874499Y-112167565D01*
X121874498Y-112167563D01*
X121708582Y-111767007D01*
X121624000Y-111341781D01*
X121624000Y-110908219D01*
X121708582Y-110482993D01*
X121874498Y-110082437D01*
X121901109Y-110042611D01*
X122115371Y-109721944D01*
X122421944Y-109415371D01*
X122782435Y-109174499D01*
X122949013Y-109105500D01*
X123182993Y-109008582D01*
X123608219Y-108924000D01*
X124041781Y-108924000D01*
X124467007Y-109008582D01*
G37*
G36*
X148232395Y-105130546D02*
G01*
X148405466Y-105202234D01*
X148478698Y-105251166D01*
X148561227Y-105306310D01*
X148693690Y-105438773D01*
X148693691Y-105438775D01*
X148797766Y-105594534D01*
X148869454Y-105767605D01*
X148906000Y-105951333D01*
X148906000Y-106138667D01*
X148869454Y-106322395D01*
X148797766Y-106495466D01*
X148797765Y-106495467D01*
X148693690Y-106651227D01*
X148561227Y-106783690D01*
X148530518Y-106804209D01*
X148405466Y-106887766D01*
X148232395Y-106959454D01*
X148048667Y-106996000D01*
X147861333Y-106996000D01*
X147677605Y-106959454D01*
X147504534Y-106887766D01*
X147379482Y-106804209D01*
X147348773Y-106783690D01*
X147216310Y-106651227D01*
X147112235Y-106495467D01*
X147112234Y-106495466D01*
X147040546Y-106322395D01*
X147004000Y-106138667D01*
X147004000Y-105951333D01*
X147040546Y-105767605D01*
X147112234Y-105594534D01*
X147216309Y-105438775D01*
X147216310Y-105438773D01*
X147348773Y-105306310D01*
X147431302Y-105251166D01*
X147504534Y-105202234D01*
X147677605Y-105130546D01*
X147861333Y-105094000D01*
X148048667Y-105094000D01*
X148232395Y-105130546D01*
G37*
G36*
X153312395Y-105130546D02*
G01*
X153485466Y-105202234D01*
X153558698Y-105251166D01*
X153641227Y-105306310D01*
X153773690Y-105438773D01*
X153773691Y-105438775D01*
X153877766Y-105594534D01*
X153949454Y-105767605D01*
X153986000Y-105951333D01*
X153986000Y-106138667D01*
X153949454Y-106322395D01*
X153877766Y-106495466D01*
X153877765Y-106495467D01*
X153773690Y-106651227D01*
X153641227Y-106783690D01*
X153610518Y-106804209D01*
X153485466Y-106887766D01*
X153312395Y-106959454D01*
X153128667Y-106996000D01*
X152941333Y-106996000D01*
X152757605Y-106959454D01*
X152584534Y-106887766D01*
X152459482Y-106804209D01*
X152428773Y-106783690D01*
X152296310Y-106651227D01*
X152192235Y-106495467D01*
X152192234Y-106495466D01*
X152120546Y-106322395D01*
X152084000Y-106138667D01*
X152084000Y-105951333D01*
X152120546Y-105767605D01*
X152192234Y-105594534D01*
X152296309Y-105438775D01*
X152296310Y-105438773D01*
X152428773Y-105306310D01*
X152511302Y-105251166D01*
X152584534Y-105202234D01*
X152757605Y-105130546D01*
X152941333Y-105094000D01*
X153128667Y-105094000D01*
X153312395Y-105130546D01*
G37*
G36*
X139977395Y-105130546D02*
G01*
X140150466Y-105202234D01*
X140223698Y-105251166D01*
X140306227Y-105306310D01*
X140438690Y-105438773D01*
X140438691Y-105438775D01*
X140542766Y-105594534D01*
X140614454Y-105767605D01*
X140651000Y-105951333D01*
X140651000Y-106138667D01*
X140614454Y-106322395D01*
X140542766Y-106495466D01*
X140542765Y-106495467D01*
X140438690Y-106651227D01*
X140306227Y-106783690D01*
X140275518Y-106804209D01*
X140150466Y-106887766D01*
X139977395Y-106959454D01*
X139793667Y-106996000D01*
X139606333Y-106996000D01*
X139422605Y-106959454D01*
X139249534Y-106887766D01*
X139124482Y-106804209D01*
X139093773Y-106783690D01*
X138961310Y-106651227D01*
X138857235Y-106495467D01*
X138857234Y-106495466D01*
X138785546Y-106322395D01*
X138749000Y-106138667D01*
X138749000Y-105951333D01*
X138785546Y-105767605D01*
X138857234Y-105594534D01*
X138961309Y-105438775D01*
X138961310Y-105438773D01*
X139093773Y-105306310D01*
X139176302Y-105251166D01*
X139249534Y-105202234D01*
X139422605Y-105130546D01*
X139606333Y-105094000D01*
X139793667Y-105094000D01*
X139977395Y-105130546D01*
G37*
G36*
X145057395Y-105130546D02*
G01*
X145230466Y-105202234D01*
X145303698Y-105251166D01*
X145386227Y-105306310D01*
X145518690Y-105438773D01*
X145518691Y-105438775D01*
X145622766Y-105594534D01*
X145694454Y-105767605D01*
X145731000Y-105951333D01*
X145731000Y-106138667D01*
X145694454Y-106322395D01*
X145622766Y-106495466D01*
X145622765Y-106495467D01*
X145518690Y-106651227D01*
X145386227Y-106783690D01*
X145355518Y-106804209D01*
X145230466Y-106887766D01*
X145057395Y-106959454D01*
X144873667Y-106996000D01*
X144686333Y-106996000D01*
X144502605Y-106959454D01*
X144329534Y-106887766D01*
X144204482Y-106804209D01*
X144173773Y-106783690D01*
X144041310Y-106651227D01*
X143937235Y-106495467D01*
X143937234Y-106495466D01*
X143865546Y-106322395D01*
X143829000Y-106138667D01*
X143829000Y-105951333D01*
X143865546Y-105767605D01*
X143937234Y-105594534D01*
X144041309Y-105438775D01*
X144041310Y-105438773D01*
X144173773Y-105306310D01*
X144256302Y-105251166D01*
X144329534Y-105202234D01*
X144502605Y-105130546D01*
X144686333Y-105094000D01*
X144873667Y-105094000D01*
X145057395Y-105130546D01*
G37*
G36*
X167282395Y-105130546D02*
G01*
X167455466Y-105202234D01*
X167528698Y-105251166D01*
X167611227Y-105306310D01*
X167743690Y-105438773D01*
X167743691Y-105438775D01*
X167847766Y-105594534D01*
X167919454Y-105767605D01*
X167956000Y-105951333D01*
X167956000Y-106138667D01*
X167919454Y-106322395D01*
X167847766Y-106495466D01*
X167847765Y-106495467D01*
X167743690Y-106651227D01*
X167611227Y-106783690D01*
X167580518Y-106804209D01*
X167455466Y-106887766D01*
X167282395Y-106959454D01*
X167098667Y-106996000D01*
X166911333Y-106996000D01*
X166727605Y-106959454D01*
X166554534Y-106887766D01*
X166429482Y-106804209D01*
X166398773Y-106783690D01*
X166266310Y-106651227D01*
X166162235Y-106495467D01*
X166162234Y-106495466D01*
X166090546Y-106322395D01*
X166054000Y-106138667D01*
X166054000Y-105951333D01*
X166090546Y-105767605D01*
X166162234Y-105594534D01*
X166266309Y-105438775D01*
X166266310Y-105438773D01*
X166398773Y-105306310D01*
X166481302Y-105251166D01*
X166554534Y-105202234D01*
X166727605Y-105130546D01*
X166911333Y-105094000D01*
X167098667Y-105094000D01*
X167282395Y-105130546D01*
G37*
G36*
X162202395Y-105130546D02*
G01*
X162375466Y-105202234D01*
X162448698Y-105251166D01*
X162531227Y-105306310D01*
X162663690Y-105438773D01*
X162663691Y-105438775D01*
X162767766Y-105594534D01*
X162839454Y-105767605D01*
X162876000Y-105951333D01*
X162876000Y-106138667D01*
X162839454Y-106322395D01*
X162767766Y-106495466D01*
X162767765Y-106495467D01*
X162663690Y-106651227D01*
X162531227Y-106783690D01*
X162500518Y-106804209D01*
X162375466Y-106887766D01*
X162202395Y-106959454D01*
X162018667Y-106996000D01*
X161831333Y-106996000D01*
X161647605Y-106959454D01*
X161474534Y-106887766D01*
X161349482Y-106804209D01*
X161318773Y-106783690D01*
X161186310Y-106651227D01*
X161082235Y-106495467D01*
X161082234Y-106495466D01*
X161010546Y-106322395D01*
X160974000Y-106138667D01*
X160974000Y-105951333D01*
X161010546Y-105767605D01*
X161082234Y-105594534D01*
X161186309Y-105438775D01*
X161186310Y-105438773D01*
X161318773Y-105306310D01*
X161401302Y-105251166D01*
X161474534Y-105202234D01*
X161647605Y-105130546D01*
X161831333Y-105094000D01*
X162018667Y-105094000D01*
X162202395Y-105130546D01*
G37*
G36*
X151446000Y-105726000D02*
G01*
X149544000Y-105726000D01*
X149544000Y-103824000D01*
X151446000Y-103824000D01*
X151446000Y-105726000D01*
G37*
G36*
X172616000Y-105306000D02*
G01*
X169014000Y-105306000D01*
X169014000Y-101704000D01*
X172616000Y-101704000D01*
X172616000Y-105306000D01*
G37*
G36*
X177791979Y-101718293D02*
G01*
X177925625Y-101758834D01*
X178048784Y-101824664D01*
X178156740Y-101913260D01*
X178245336Y-102021216D01*
X178311166Y-102144375D01*
X178351707Y-102278021D01*
X178366000Y-102423140D01*
X178366000Y-104586860D01*
X178351707Y-104731979D01*
X178311166Y-104865625D01*
X178245336Y-104988784D01*
X178156740Y-105096740D01*
X178048784Y-105185336D01*
X177925625Y-105251166D01*
X177791979Y-105291707D01*
X177646860Y-105306000D01*
X175983140Y-105306000D01*
X175838021Y-105291707D01*
X175704375Y-105251166D01*
X175581216Y-105185336D01*
X175473260Y-105096740D01*
X175384664Y-104988784D01*
X175318834Y-104865625D01*
X175278293Y-104731979D01*
X175264000Y-104586860D01*
X175264000Y-102423140D01*
X175278293Y-102278021D01*
X175318834Y-102144375D01*
X175384664Y-102021216D01*
X175473260Y-101913260D01*
X175581216Y-101824664D01*
X175704375Y-101758834D01*
X175838021Y-101718293D01*
X175983140Y-101704000D01*
X177646860Y-101704000D01*
X177791979Y-101718293D01*
G37*
G36*
X143787395Y-102590546D02*
G01*
X143960466Y-102662234D01*
X144037818Y-102713919D01*
X144116227Y-102766310D01*
X144248690Y-102898773D01*
X144248691Y-102898775D01*
X144352766Y-103054534D01*
X144424454Y-103227605D01*
X144461000Y-103411333D01*
X144461000Y-103598667D01*
X144424454Y-103782395D01*
X144352766Y-103955466D01*
X144352765Y-103955467D01*
X144248690Y-104111227D01*
X144116227Y-104243690D01*
X144037818Y-104296081D01*
X143960466Y-104347766D01*
X143787395Y-104419454D01*
X143603667Y-104456000D01*
X143416333Y-104456000D01*
X143232605Y-104419454D01*
X143059534Y-104347766D01*
X142982182Y-104296081D01*
X142903773Y-104243690D01*
X142771310Y-104111227D01*
X142667235Y-103955467D01*
X142667234Y-103955466D01*
X142595546Y-103782395D01*
X142559000Y-103598667D01*
X142559000Y-103411333D01*
X142595546Y-103227605D01*
X142667234Y-103054534D01*
X142771309Y-102898775D01*
X142771310Y-102898773D01*
X142903773Y-102766310D01*
X142982182Y-102713919D01*
X143059534Y-102662234D01*
X143232605Y-102590546D01*
X143416333Y-102554000D01*
X143603667Y-102554000D01*
X143787395Y-102590546D01*
G37*
G36*
X141921000Y-104456000D02*
G01*
X140019000Y-104456000D01*
X140019000Y-102554000D01*
X141921000Y-102554000D01*
X141921000Y-104456000D01*
G37*
G36*
X166686000Y-104456000D02*
G01*
X164784000Y-104456000D01*
X164784000Y-102554000D01*
X166686000Y-102554000D01*
X166686000Y-104456000D01*
G37*
G36*
X163472395Y-102590546D02*
G01*
X163645466Y-102662234D01*
X163722818Y-102713919D01*
X163801227Y-102766310D01*
X163933690Y-102898773D01*
X163933691Y-102898775D01*
X164037766Y-103054534D01*
X164109454Y-103227605D01*
X164146000Y-103411333D01*
X164146000Y-103598667D01*
X164109454Y-103782395D01*
X164037766Y-103955466D01*
X164037765Y-103955467D01*
X163933690Y-104111227D01*
X163801227Y-104243690D01*
X163722818Y-104296081D01*
X163645466Y-104347766D01*
X163472395Y-104419454D01*
X163288667Y-104456000D01*
X163101333Y-104456000D01*
X162917605Y-104419454D01*
X162744534Y-104347766D01*
X162667182Y-104296081D01*
X162588773Y-104243690D01*
X162456310Y-104111227D01*
X162352235Y-103955467D01*
X162352234Y-103955466D01*
X162280546Y-103782395D01*
X162244000Y-103598667D01*
X162244000Y-103411333D01*
X162280546Y-103227605D01*
X162352234Y-103054534D01*
X162456309Y-102898775D01*
X162456310Y-102898773D01*
X162588773Y-102766310D01*
X162667182Y-102713919D01*
X162744534Y-102662234D01*
X162917605Y-102590546D01*
X163101333Y-102554000D01*
X163288667Y-102554000D01*
X163472395Y-102590546D01*
G37*
G36*
X150772395Y-101320546D02*
G01*
X150945466Y-101392234D01*
X151022818Y-101443919D01*
X151101227Y-101496310D01*
X151233690Y-101628773D01*
X151233691Y-101628775D01*
X151337766Y-101784534D01*
X151409454Y-101957605D01*
X151446000Y-102141333D01*
X151446000Y-102328667D01*
X151409454Y-102512395D01*
X151337766Y-102685466D01*
X151337765Y-102685467D01*
X151233690Y-102841227D01*
X151101227Y-102973690D01*
X151022818Y-103026081D01*
X150945466Y-103077766D01*
X150772395Y-103149454D01*
X150588667Y-103186000D01*
X150401333Y-103186000D01*
X150217605Y-103149454D01*
X150044534Y-103077766D01*
X149967182Y-103026081D01*
X149888773Y-102973690D01*
X149756310Y-102841227D01*
X149652235Y-102685467D01*
X149652234Y-102685466D01*
X149580546Y-102512395D01*
X149544000Y-102328667D01*
X149544000Y-102141333D01*
X149580546Y-101957605D01*
X149652234Y-101784534D01*
X149756309Y-101628775D01*
X149756310Y-101628773D01*
X149888773Y-101496310D01*
X149967182Y-101443919D01*
X150044534Y-101392234D01*
X150217605Y-101320546D01*
X150401333Y-101284000D01*
X150588667Y-101284000D01*
X150772395Y-101320546D01*
G37*
G36*
X162202395Y-100050546D02*
G01*
X162375466Y-100122234D01*
X162375467Y-100122235D01*
X162531227Y-100226310D01*
X162663690Y-100358773D01*
X162663691Y-100358775D01*
X162767766Y-100514534D01*
X162839454Y-100687605D01*
X162876000Y-100871333D01*
X162876000Y-101058667D01*
X162839454Y-101242395D01*
X162767766Y-101415466D01*
X162767765Y-101415467D01*
X162663690Y-101571227D01*
X162531227Y-101703690D01*
X162530763Y-101704000D01*
X162375466Y-101807766D01*
X162202395Y-101879454D01*
X162018667Y-101916000D01*
X161831333Y-101916000D01*
X161647605Y-101879454D01*
X161474534Y-101807766D01*
X161319237Y-101704000D01*
X161318773Y-101703690D01*
X161186310Y-101571227D01*
X161082235Y-101415467D01*
X161082234Y-101415466D01*
X161010546Y-101242395D01*
X160974000Y-101058667D01*
X160974000Y-100871333D01*
X161010546Y-100687605D01*
X161082234Y-100514534D01*
X161186309Y-100358775D01*
X161186310Y-100358773D01*
X161318773Y-100226310D01*
X161474533Y-100122235D01*
X161474534Y-100122234D01*
X161647605Y-100050546D01*
X161831333Y-100014000D01*
X162018667Y-100014000D01*
X162202395Y-100050546D01*
G37*
G36*
X167282395Y-100050546D02*
G01*
X167455466Y-100122234D01*
X167455467Y-100122235D01*
X167611227Y-100226310D01*
X167743690Y-100358773D01*
X167743691Y-100358775D01*
X167847766Y-100514534D01*
X167919454Y-100687605D01*
X167956000Y-100871333D01*
X167956000Y-101058667D01*
X167919454Y-101242395D01*
X167847766Y-101415466D01*
X167847765Y-101415467D01*
X167743690Y-101571227D01*
X167611227Y-101703690D01*
X167610763Y-101704000D01*
X167455466Y-101807766D01*
X167282395Y-101879454D01*
X167098667Y-101916000D01*
X166911333Y-101916000D01*
X166727605Y-101879454D01*
X166554534Y-101807766D01*
X166399237Y-101704000D01*
X166398773Y-101703690D01*
X166266310Y-101571227D01*
X166162235Y-101415467D01*
X166162234Y-101415466D01*
X166090546Y-101242395D01*
X166054000Y-101058667D01*
X166054000Y-100871333D01*
X166090546Y-100687605D01*
X166162234Y-100514534D01*
X166266309Y-100358775D01*
X166266310Y-100358773D01*
X166398773Y-100226310D01*
X166554533Y-100122235D01*
X166554534Y-100122234D01*
X166727605Y-100050546D01*
X166911333Y-100014000D01*
X167098667Y-100014000D01*
X167282395Y-100050546D01*
G37*
G36*
X148232395Y-100050546D02*
G01*
X148405466Y-100122234D01*
X148405467Y-100122235D01*
X148561227Y-100226310D01*
X148693690Y-100358773D01*
X148693691Y-100358775D01*
X148797766Y-100514534D01*
X148869454Y-100687605D01*
X148906000Y-100871333D01*
X148906000Y-101058667D01*
X148869454Y-101242395D01*
X148797766Y-101415466D01*
X148797765Y-101415467D01*
X148693690Y-101571227D01*
X148561227Y-101703690D01*
X148560763Y-101704000D01*
X148405466Y-101807766D01*
X148232395Y-101879454D01*
X148048667Y-101916000D01*
X147861333Y-101916000D01*
X147677605Y-101879454D01*
X147504534Y-101807766D01*
X147349237Y-101704000D01*
X147348773Y-101703690D01*
X147216310Y-101571227D01*
X147112235Y-101415467D01*
X147112234Y-101415466D01*
X147040546Y-101242395D01*
X147004000Y-101058667D01*
X147004000Y-100871333D01*
X147040546Y-100687605D01*
X147112234Y-100514534D01*
X147216309Y-100358775D01*
X147216310Y-100358773D01*
X147348773Y-100226310D01*
X147504533Y-100122235D01*
X147504534Y-100122234D01*
X147677605Y-100050546D01*
X147861333Y-100014000D01*
X148048667Y-100014000D01*
X148232395Y-100050546D01*
G37*
G36*
X153312395Y-100050546D02*
G01*
X153485466Y-100122234D01*
X153485467Y-100122235D01*
X153641227Y-100226310D01*
X153773690Y-100358773D01*
X153773691Y-100358775D01*
X153877766Y-100514534D01*
X153949454Y-100687605D01*
X153986000Y-100871333D01*
X153986000Y-101058667D01*
X153949454Y-101242395D01*
X153877766Y-101415466D01*
X153877765Y-101415467D01*
X153773690Y-101571227D01*
X153641227Y-101703690D01*
X153640763Y-101704000D01*
X153485466Y-101807766D01*
X153312395Y-101879454D01*
X153128667Y-101916000D01*
X152941333Y-101916000D01*
X152757605Y-101879454D01*
X152584534Y-101807766D01*
X152429237Y-101704000D01*
X152428773Y-101703690D01*
X152296310Y-101571227D01*
X152192235Y-101415467D01*
X152192234Y-101415466D01*
X152120546Y-101242395D01*
X152084000Y-101058667D01*
X152084000Y-100871333D01*
X152120546Y-100687605D01*
X152192234Y-100514534D01*
X152296309Y-100358775D01*
X152296310Y-100358773D01*
X152428773Y-100226310D01*
X152584533Y-100122235D01*
X152584534Y-100122234D01*
X152757605Y-100050546D01*
X152941333Y-100014000D01*
X153128667Y-100014000D01*
X153312395Y-100050546D01*
G37*
G36*
X139977395Y-100050546D02*
G01*
X140150466Y-100122234D01*
X140150467Y-100122235D01*
X140306227Y-100226310D01*
X140438690Y-100358773D01*
X140438691Y-100358775D01*
X140542766Y-100514534D01*
X140614454Y-100687605D01*
X140651000Y-100871333D01*
X140651000Y-101058667D01*
X140614454Y-101242395D01*
X140542766Y-101415466D01*
X140542765Y-101415467D01*
X140438690Y-101571227D01*
X140306227Y-101703690D01*
X140305763Y-101704000D01*
X140150466Y-101807766D01*
X139977395Y-101879454D01*
X139793667Y-101916000D01*
X139606333Y-101916000D01*
X139422605Y-101879454D01*
X139249534Y-101807766D01*
X139094237Y-101704000D01*
X139093773Y-101703690D01*
X138961310Y-101571227D01*
X138857235Y-101415467D01*
X138857234Y-101415466D01*
X138785546Y-101242395D01*
X138749000Y-101058667D01*
X138749000Y-100871333D01*
X138785546Y-100687605D01*
X138857234Y-100514534D01*
X138961309Y-100358775D01*
X138961310Y-100358773D01*
X139093773Y-100226310D01*
X139249533Y-100122235D01*
X139249534Y-100122234D01*
X139422605Y-100050546D01*
X139606333Y-100014000D01*
X139793667Y-100014000D01*
X139977395Y-100050546D01*
G37*
G36*
X145057395Y-100050546D02*
G01*
X145230466Y-100122234D01*
X145230467Y-100122235D01*
X145386227Y-100226310D01*
X145518690Y-100358773D01*
X145518691Y-100358775D01*
X145622766Y-100514534D01*
X145694454Y-100687605D01*
X145731000Y-100871333D01*
X145731000Y-101058667D01*
X145694454Y-101242395D01*
X145622766Y-101415466D01*
X145622765Y-101415467D01*
X145518690Y-101571227D01*
X145386227Y-101703690D01*
X145385763Y-101704000D01*
X145230466Y-101807766D01*
X145057395Y-101879454D01*
X144873667Y-101916000D01*
X144686333Y-101916000D01*
X144502605Y-101879454D01*
X144329534Y-101807766D01*
X144174237Y-101704000D01*
X144173773Y-101703690D01*
X144041310Y-101571227D01*
X143937235Y-101415467D01*
X143937234Y-101415466D01*
X143865546Y-101242395D01*
X143829000Y-101058667D01*
X143829000Y-100871333D01*
X143865546Y-100687605D01*
X143937234Y-100514534D01*
X144041309Y-100358775D01*
X144041310Y-100358773D01*
X144173773Y-100226310D01*
X144329533Y-100122235D01*
X144329534Y-100122234D01*
X144502605Y-100050546D01*
X144686333Y-100014000D01*
X144873667Y-100014000D01*
X145057395Y-100050546D01*
G37*
G36*
X134897395Y-96875546D02*
G01*
X135070466Y-96947234D01*
X135070467Y-96947235D01*
X135226227Y-97051310D01*
X135358690Y-97183773D01*
X135358691Y-97183775D01*
X135462766Y-97339534D01*
X135534454Y-97512605D01*
X135571000Y-97696333D01*
X135571000Y-97883667D01*
X135534454Y-98067395D01*
X135462766Y-98240466D01*
X135462765Y-98240467D01*
X135358690Y-98396227D01*
X135226227Y-98528690D01*
X135147818Y-98581081D01*
X135070466Y-98632766D01*
X134897395Y-98704454D01*
X134713667Y-98741000D01*
X134526333Y-98741000D01*
X134342605Y-98704454D01*
X134169534Y-98632766D01*
X134092182Y-98581081D01*
X134013773Y-98528690D01*
X133881310Y-98396227D01*
X133777235Y-98240467D01*
X133777234Y-98240466D01*
X133705546Y-98067395D01*
X133669000Y-97883667D01*
X133669000Y-97696333D01*
X133705546Y-97512605D01*
X133777234Y-97339534D01*
X133881309Y-97183775D01*
X133881310Y-97183773D01*
X134013773Y-97051310D01*
X134169533Y-96947235D01*
X134169534Y-96947234D01*
X134342605Y-96875546D01*
X134526333Y-96839000D01*
X134713667Y-96839000D01*
X134897395Y-96875546D01*
G37*
G36*
X143787395Y-96875546D02*
G01*
X143960466Y-96947234D01*
X143960467Y-96947235D01*
X144116227Y-97051310D01*
X144248690Y-97183773D01*
X144248691Y-97183775D01*
X144352766Y-97339534D01*
X144424454Y-97512605D01*
X144461000Y-97696333D01*
X144461000Y-97883667D01*
X144424454Y-98067395D01*
X144352766Y-98240466D01*
X144352765Y-98240467D01*
X144248690Y-98396227D01*
X144116227Y-98528690D01*
X144037818Y-98581081D01*
X143960466Y-98632766D01*
X143787395Y-98704454D01*
X143603667Y-98741000D01*
X143416333Y-98741000D01*
X143232605Y-98704454D01*
X143059534Y-98632766D01*
X142982182Y-98581081D01*
X142903773Y-98528690D01*
X142771310Y-98396227D01*
X142667235Y-98240467D01*
X142667234Y-98240466D01*
X142595546Y-98067395D01*
X142559000Y-97883667D01*
X142559000Y-97696333D01*
X142595546Y-97512605D01*
X142667234Y-97339534D01*
X142771309Y-97183775D01*
X142771310Y-97183773D01*
X142903773Y-97051310D01*
X143059533Y-96947235D01*
X143059534Y-96947234D01*
X143232605Y-96875546D01*
X143416333Y-96839000D01*
X143603667Y-96839000D01*
X143787395Y-96875546D01*
G37*
G36*
X148867395Y-96875546D02*
G01*
X149040466Y-96947234D01*
X149040467Y-96947235D01*
X149196227Y-97051310D01*
X149328690Y-97183773D01*
X149328691Y-97183775D01*
X149432766Y-97339534D01*
X149504454Y-97512605D01*
X149541000Y-97696333D01*
X149541000Y-97883667D01*
X149504454Y-98067395D01*
X149432766Y-98240466D01*
X149432765Y-98240467D01*
X149328690Y-98396227D01*
X149196227Y-98528690D01*
X149117818Y-98581081D01*
X149040466Y-98632766D01*
X148867395Y-98704454D01*
X148683667Y-98741000D01*
X148496333Y-98741000D01*
X148312605Y-98704454D01*
X148139534Y-98632766D01*
X148062182Y-98581081D01*
X147983773Y-98528690D01*
X147851310Y-98396227D01*
X147747235Y-98240467D01*
X147747234Y-98240466D01*
X147675546Y-98067395D01*
X147639000Y-97883667D01*
X147639000Y-97696333D01*
X147675546Y-97512605D01*
X147747234Y-97339534D01*
X147851309Y-97183775D01*
X147851310Y-97183773D01*
X147983773Y-97051310D01*
X148139533Y-96947235D01*
X148139534Y-96947234D01*
X148312605Y-96875546D01*
X148496333Y-96839000D01*
X148683667Y-96839000D01*
X148867395Y-96875546D01*
G37*
G36*
X152042395Y-96875546D02*
G01*
X152215466Y-96947234D01*
X152215467Y-96947235D01*
X152371227Y-97051310D01*
X152503690Y-97183773D01*
X152503691Y-97183775D01*
X152607766Y-97339534D01*
X152679454Y-97512605D01*
X152716000Y-97696333D01*
X152716000Y-97883667D01*
X152679454Y-98067395D01*
X152607766Y-98240466D01*
X152607765Y-98240467D01*
X152503690Y-98396227D01*
X152371227Y-98528690D01*
X152292818Y-98581081D01*
X152215466Y-98632766D01*
X152042395Y-98704454D01*
X151858667Y-98741000D01*
X151671333Y-98741000D01*
X151487605Y-98704454D01*
X151314534Y-98632766D01*
X151237182Y-98581081D01*
X151158773Y-98528690D01*
X151026310Y-98396227D01*
X150922235Y-98240467D01*
X150922234Y-98240466D01*
X150850546Y-98067395D01*
X150814000Y-97883667D01*
X150814000Y-97696333D01*
X150850546Y-97512605D01*
X150922234Y-97339534D01*
X151026309Y-97183775D01*
X151026310Y-97183773D01*
X151158773Y-97051310D01*
X151314533Y-96947235D01*
X151314534Y-96947234D01*
X151487605Y-96875546D01*
X151671333Y-96839000D01*
X151858667Y-96839000D01*
X152042395Y-96875546D01*
G37*
G36*
X157122395Y-96875546D02*
G01*
X157295466Y-96947234D01*
X157295467Y-96947235D01*
X157451227Y-97051310D01*
X157583690Y-97183773D01*
X157583691Y-97183775D01*
X157687766Y-97339534D01*
X157759454Y-97512605D01*
X157796000Y-97696333D01*
X157796000Y-97883667D01*
X157759454Y-98067395D01*
X157687766Y-98240466D01*
X157687765Y-98240467D01*
X157583690Y-98396227D01*
X157451227Y-98528690D01*
X157372818Y-98581081D01*
X157295466Y-98632766D01*
X157122395Y-98704454D01*
X156938667Y-98741000D01*
X156751333Y-98741000D01*
X156567605Y-98704454D01*
X156394534Y-98632766D01*
X156317182Y-98581081D01*
X156238773Y-98528690D01*
X156106310Y-98396227D01*
X156002235Y-98240467D01*
X156002234Y-98240466D01*
X155930546Y-98067395D01*
X155894000Y-97883667D01*
X155894000Y-97696333D01*
X155930546Y-97512605D01*
X156002234Y-97339534D01*
X156106309Y-97183775D01*
X156106310Y-97183773D01*
X156238773Y-97051310D01*
X156394533Y-96947235D01*
X156394534Y-96947234D01*
X156567605Y-96875546D01*
X156751333Y-96839000D01*
X156938667Y-96839000D01*
X157122395Y-96875546D01*
G37*
G36*
X129817395Y-96875546D02*
G01*
X129990466Y-96947234D01*
X129990467Y-96947235D01*
X130146227Y-97051310D01*
X130278690Y-97183773D01*
X130278691Y-97183775D01*
X130382766Y-97339534D01*
X130454454Y-97512605D01*
X130491000Y-97696333D01*
X130491000Y-97883667D01*
X130454454Y-98067395D01*
X130382766Y-98240466D01*
X130382765Y-98240467D01*
X130278690Y-98396227D01*
X130146227Y-98528690D01*
X130067818Y-98581081D01*
X129990466Y-98632766D01*
X129817395Y-98704454D01*
X129633667Y-98741000D01*
X129446333Y-98741000D01*
X129262605Y-98704454D01*
X129089534Y-98632766D01*
X129012182Y-98581081D01*
X128933773Y-98528690D01*
X128801310Y-98396227D01*
X128697235Y-98240467D01*
X128697234Y-98240466D01*
X128625546Y-98067395D01*
X128589000Y-97883667D01*
X128589000Y-97696333D01*
X128625546Y-97512605D01*
X128697234Y-97339534D01*
X128801309Y-97183775D01*
X128801310Y-97183773D01*
X128933773Y-97051310D01*
X129089533Y-96947235D01*
X129089534Y-96947234D01*
X129262605Y-96875546D01*
X129446333Y-96839000D01*
X129633667Y-96839000D01*
X129817395Y-96875546D01*
G37*
G36*
X166012395Y-96875546D02*
G01*
X166185466Y-96947234D01*
X166185467Y-96947235D01*
X166341227Y-97051310D01*
X166473690Y-97183773D01*
X166473691Y-97183775D01*
X166577766Y-97339534D01*
X166649454Y-97512605D01*
X166686000Y-97696333D01*
X166686000Y-97883667D01*
X166649454Y-98067395D01*
X166577766Y-98240466D01*
X166577765Y-98240467D01*
X166473690Y-98396227D01*
X166341227Y-98528690D01*
X166262818Y-98581081D01*
X166185466Y-98632766D01*
X166012395Y-98704454D01*
X165828667Y-98741000D01*
X165641333Y-98741000D01*
X165457605Y-98704454D01*
X165284534Y-98632766D01*
X165207182Y-98581081D01*
X165128773Y-98528690D01*
X164996310Y-98396227D01*
X164892235Y-98240467D01*
X164892234Y-98240466D01*
X164820546Y-98067395D01*
X164784000Y-97883667D01*
X164784000Y-97696333D01*
X164820546Y-97512605D01*
X164892234Y-97339534D01*
X164996309Y-97183775D01*
X164996310Y-97183773D01*
X165128773Y-97051310D01*
X165284533Y-96947235D01*
X165284534Y-96947234D01*
X165457605Y-96875546D01*
X165641333Y-96839000D01*
X165828667Y-96839000D01*
X166012395Y-96875546D01*
G37*
G36*
X171092395Y-96875546D02*
G01*
X171265466Y-96947234D01*
X171265467Y-96947235D01*
X171421227Y-97051310D01*
X171553690Y-97183773D01*
X171553691Y-97183775D01*
X171657766Y-97339534D01*
X171729454Y-97512605D01*
X171766000Y-97696333D01*
X171766000Y-97883667D01*
X171729454Y-98067395D01*
X171657766Y-98240466D01*
X171657765Y-98240467D01*
X171553690Y-98396227D01*
X171421227Y-98528690D01*
X171342818Y-98581081D01*
X171265466Y-98632766D01*
X171092395Y-98704454D01*
X170908667Y-98741000D01*
X170721333Y-98741000D01*
X170537605Y-98704454D01*
X170364534Y-98632766D01*
X170287182Y-98581081D01*
X170208773Y-98528690D01*
X170076310Y-98396227D01*
X169972235Y-98240467D01*
X169972234Y-98240466D01*
X169900546Y-98067395D01*
X169864000Y-97883667D01*
X169864000Y-97696333D01*
X169900546Y-97512605D01*
X169972234Y-97339534D01*
X170076309Y-97183775D01*
X170076310Y-97183773D01*
X170208773Y-97051310D01*
X170364533Y-96947235D01*
X170364534Y-96947234D01*
X170537605Y-96875546D01*
X170721333Y-96839000D01*
X170908667Y-96839000D01*
X171092395Y-96875546D01*
G37*
G36*
X155256000Y-97471000D02*
G01*
X153354000Y-97471000D01*
X153354000Y-95569000D01*
X155256000Y-95569000D01*
X155256000Y-97471000D01*
G37*
G36*
X147001000Y-97471000D02*
G01*
X145099000Y-97471000D01*
X145099000Y-95569000D01*
X147001000Y-95569000D01*
X147001000Y-97471000D01*
G37*
G36*
X167282395Y-94335546D02*
G01*
X167455466Y-94407234D01*
X167532818Y-94458919D01*
X167611227Y-94511310D01*
X167743690Y-94643773D01*
X167743691Y-94643775D01*
X167847766Y-94799534D01*
X167919454Y-94972605D01*
X167956000Y-95156333D01*
X167956000Y-95343667D01*
X167919454Y-95527395D01*
X167847766Y-95700466D01*
X167847765Y-95700467D01*
X167743690Y-95856227D01*
X167611227Y-95988690D01*
X167532818Y-96041081D01*
X167455466Y-96092766D01*
X167282395Y-96164454D01*
X167098667Y-96201000D01*
X166911333Y-96201000D01*
X166727605Y-96164454D01*
X166554534Y-96092766D01*
X166477182Y-96041081D01*
X166398773Y-95988690D01*
X166266310Y-95856227D01*
X166162235Y-95700467D01*
X166162234Y-95700466D01*
X166090546Y-95527395D01*
X166054000Y-95343667D01*
X166054000Y-95156333D01*
X166090546Y-94972605D01*
X166162234Y-94799534D01*
X166266309Y-94643775D01*
X166266310Y-94643773D01*
X166398773Y-94511310D01*
X166477182Y-94458919D01*
X166554534Y-94407234D01*
X166727605Y-94335546D01*
X166911333Y-94299000D01*
X167098667Y-94299000D01*
X167282395Y-94335546D01*
G37*
G36*
X131761000Y-96201000D02*
G01*
X129859000Y-96201000D01*
X129859000Y-94299000D01*
X131761000Y-94299000D01*
X131761000Y-96201000D01*
G37*
G36*
X133627395Y-94335546D02*
G01*
X133800466Y-94407234D01*
X133877818Y-94458919D01*
X133956227Y-94511310D01*
X134088690Y-94643773D01*
X134088691Y-94643775D01*
X134192766Y-94799534D01*
X134264454Y-94972605D01*
X134301000Y-95156333D01*
X134301000Y-95343667D01*
X134264454Y-95527395D01*
X134192766Y-95700466D01*
X134192765Y-95700467D01*
X134088690Y-95856227D01*
X133956227Y-95988690D01*
X133877818Y-96041081D01*
X133800466Y-96092766D01*
X133627395Y-96164454D01*
X133443667Y-96201000D01*
X133256333Y-96201000D01*
X133072605Y-96164454D01*
X132899534Y-96092766D01*
X132822182Y-96041081D01*
X132743773Y-95988690D01*
X132611310Y-95856227D01*
X132507235Y-95700467D01*
X132507234Y-95700466D01*
X132435546Y-95527395D01*
X132399000Y-95343667D01*
X132399000Y-95156333D01*
X132435546Y-94972605D01*
X132507234Y-94799534D01*
X132611309Y-94643775D01*
X132611310Y-94643773D01*
X132743773Y-94511310D01*
X132822182Y-94458919D01*
X132899534Y-94407234D01*
X133072605Y-94335546D01*
X133256333Y-94299000D01*
X133443667Y-94299000D01*
X133627395Y-94335546D01*
G37*
G36*
X170496000Y-96201000D02*
G01*
X168594000Y-96201000D01*
X168594000Y-94299000D01*
X170496000Y-94299000D01*
X170496000Y-96201000D01*
G37*
G36*
X154582395Y-93065546D02*
G01*
X154755466Y-93137234D01*
X154832818Y-93188919D01*
X154911227Y-93241310D01*
X155043690Y-93373773D01*
X155043691Y-93373775D01*
X155147766Y-93529534D01*
X155219454Y-93702605D01*
X155256000Y-93886333D01*
X155256000Y-94073667D01*
X155219454Y-94257395D01*
X155147766Y-94430466D01*
X155147765Y-94430467D01*
X155043690Y-94586227D01*
X154911227Y-94718690D01*
X154832818Y-94771081D01*
X154755466Y-94822766D01*
X154582395Y-94894454D01*
X154398667Y-94931000D01*
X154211333Y-94931000D01*
X154027605Y-94894454D01*
X153854534Y-94822766D01*
X153777182Y-94771081D01*
X153698773Y-94718690D01*
X153566310Y-94586227D01*
X153462235Y-94430467D01*
X153462234Y-94430466D01*
X153390546Y-94257395D01*
X153354000Y-94073667D01*
X153354000Y-93886333D01*
X153390546Y-93702605D01*
X153462234Y-93529534D01*
X153566309Y-93373775D01*
X153566310Y-93373773D01*
X153698773Y-93241310D01*
X153777182Y-93188919D01*
X153854534Y-93137234D01*
X154027605Y-93065546D01*
X154211333Y-93029000D01*
X154398667Y-93029000D01*
X154582395Y-93065546D01*
G37*
G36*
X146327395Y-93065546D02*
G01*
X146500466Y-93137234D01*
X146577818Y-93188919D01*
X146656227Y-93241310D01*
X146788690Y-93373773D01*
X146788691Y-93373775D01*
X146892766Y-93529534D01*
X146964454Y-93702605D01*
X147001000Y-93886333D01*
X147001000Y-94073667D01*
X146964454Y-94257395D01*
X146892766Y-94430466D01*
X146892765Y-94430467D01*
X146788690Y-94586227D01*
X146656227Y-94718690D01*
X146577818Y-94771081D01*
X146500466Y-94822766D01*
X146327395Y-94894454D01*
X146143667Y-94931000D01*
X145956333Y-94931000D01*
X145772605Y-94894454D01*
X145599534Y-94822766D01*
X145522182Y-94771081D01*
X145443773Y-94718690D01*
X145311310Y-94586227D01*
X145207235Y-94430467D01*
X145207234Y-94430466D01*
X145135546Y-94257395D01*
X145099000Y-94073667D01*
X145099000Y-93886333D01*
X145135546Y-93702605D01*
X145207234Y-93529534D01*
X145311309Y-93373775D01*
X145311310Y-93373773D01*
X145443773Y-93241310D01*
X145522182Y-93188919D01*
X145599534Y-93137234D01*
X145772605Y-93065546D01*
X145956333Y-93029000D01*
X146143667Y-93029000D01*
X146327395Y-93065546D01*
G37*
G36*
X134897395Y-91795546D02*
G01*
X135070466Y-91867234D01*
X135070467Y-91867235D01*
X135226227Y-91971310D01*
X135358690Y-92103773D01*
X135358691Y-92103775D01*
X135462766Y-92259534D01*
X135534454Y-92432605D01*
X135571000Y-92616333D01*
X135571000Y-92803667D01*
X135534454Y-92987395D01*
X135462766Y-93160466D01*
X135462765Y-93160467D01*
X135358690Y-93316227D01*
X135226227Y-93448690D01*
X135147818Y-93501081D01*
X135070466Y-93552766D01*
X134897395Y-93624454D01*
X134713667Y-93661000D01*
X134526333Y-93661000D01*
X134342605Y-93624454D01*
X134169534Y-93552766D01*
X134092182Y-93501081D01*
X134013773Y-93448690D01*
X133881310Y-93316227D01*
X133777235Y-93160467D01*
X133777234Y-93160466D01*
X133705546Y-92987395D01*
X133669000Y-92803667D01*
X133669000Y-92616333D01*
X133705546Y-92432605D01*
X133777234Y-92259534D01*
X133881309Y-92103775D01*
X133881310Y-92103773D01*
X134013773Y-91971310D01*
X134169533Y-91867235D01*
X134169534Y-91867234D01*
X134342605Y-91795546D01*
X134526333Y-91759000D01*
X134713667Y-91759000D01*
X134897395Y-91795546D01*
G37*
G36*
X152042395Y-91795546D02*
G01*
X152215466Y-91867234D01*
X152215467Y-91867235D01*
X152371227Y-91971310D01*
X152503690Y-92103773D01*
X152503691Y-92103775D01*
X152607766Y-92259534D01*
X152679454Y-92432605D01*
X152716000Y-92616333D01*
X152716000Y-92803667D01*
X152679454Y-92987395D01*
X152607766Y-93160466D01*
X152607765Y-93160467D01*
X152503690Y-93316227D01*
X152371227Y-93448690D01*
X152292818Y-93501081D01*
X152215466Y-93552766D01*
X152042395Y-93624454D01*
X151858667Y-93661000D01*
X151671333Y-93661000D01*
X151487605Y-93624454D01*
X151314534Y-93552766D01*
X151237182Y-93501081D01*
X151158773Y-93448690D01*
X151026310Y-93316227D01*
X150922235Y-93160467D01*
X150922234Y-93160466D01*
X150850546Y-92987395D01*
X150814000Y-92803667D01*
X150814000Y-92616333D01*
X150850546Y-92432605D01*
X150922234Y-92259534D01*
X151026309Y-92103775D01*
X151026310Y-92103773D01*
X151158773Y-91971310D01*
X151314533Y-91867235D01*
X151314534Y-91867234D01*
X151487605Y-91795546D01*
X151671333Y-91759000D01*
X151858667Y-91759000D01*
X152042395Y-91795546D01*
G37*
G36*
X143787395Y-91795546D02*
G01*
X143960466Y-91867234D01*
X143960467Y-91867235D01*
X144116227Y-91971310D01*
X144248690Y-92103773D01*
X144248691Y-92103775D01*
X144352766Y-92259534D01*
X144424454Y-92432605D01*
X144461000Y-92616333D01*
X144461000Y-92803667D01*
X144424454Y-92987395D01*
X144352766Y-93160466D01*
X144352765Y-93160467D01*
X144248690Y-93316227D01*
X144116227Y-93448690D01*
X144037818Y-93501081D01*
X143960466Y-93552766D01*
X143787395Y-93624454D01*
X143603667Y-93661000D01*
X143416333Y-93661000D01*
X143232605Y-93624454D01*
X143059534Y-93552766D01*
X142982182Y-93501081D01*
X142903773Y-93448690D01*
X142771310Y-93316227D01*
X142667235Y-93160467D01*
X142667234Y-93160466D01*
X142595546Y-92987395D01*
X142559000Y-92803667D01*
X142559000Y-92616333D01*
X142595546Y-92432605D01*
X142667234Y-92259534D01*
X142771309Y-92103775D01*
X142771310Y-92103773D01*
X142903773Y-91971310D01*
X143059533Y-91867235D01*
X143059534Y-91867234D01*
X143232605Y-91795546D01*
X143416333Y-91759000D01*
X143603667Y-91759000D01*
X143787395Y-91795546D01*
G37*
G36*
X129817395Y-91795546D02*
G01*
X129990466Y-91867234D01*
X129990467Y-91867235D01*
X130146227Y-91971310D01*
X130278690Y-92103773D01*
X130278691Y-92103775D01*
X130382766Y-92259534D01*
X130454454Y-92432605D01*
X130491000Y-92616333D01*
X130491000Y-92803667D01*
X130454454Y-92987395D01*
X130382766Y-93160466D01*
X130382765Y-93160467D01*
X130278690Y-93316227D01*
X130146227Y-93448690D01*
X130067818Y-93501081D01*
X129990466Y-93552766D01*
X129817395Y-93624454D01*
X129633667Y-93661000D01*
X129446333Y-93661000D01*
X129262605Y-93624454D01*
X129089534Y-93552766D01*
X129012182Y-93501081D01*
X128933773Y-93448690D01*
X128801310Y-93316227D01*
X128697235Y-93160467D01*
X128697234Y-93160466D01*
X128625546Y-92987395D01*
X128589000Y-92803667D01*
X128589000Y-92616333D01*
X128625546Y-92432605D01*
X128697234Y-92259534D01*
X128801309Y-92103775D01*
X128801310Y-92103773D01*
X128933773Y-91971310D01*
X129089533Y-91867235D01*
X129089534Y-91867234D01*
X129262605Y-91795546D01*
X129446333Y-91759000D01*
X129633667Y-91759000D01*
X129817395Y-91795546D01*
G37*
G36*
X157122395Y-91795546D02*
G01*
X157295466Y-91867234D01*
X157295467Y-91867235D01*
X157451227Y-91971310D01*
X157583690Y-92103773D01*
X157583691Y-92103775D01*
X157687766Y-92259534D01*
X157759454Y-92432605D01*
X157796000Y-92616333D01*
X157796000Y-92803667D01*
X157759454Y-92987395D01*
X157687766Y-93160466D01*
X157687765Y-93160467D01*
X157583690Y-93316227D01*
X157451227Y-93448690D01*
X157372818Y-93501081D01*
X157295466Y-93552766D01*
X157122395Y-93624454D01*
X156938667Y-93661000D01*
X156751333Y-93661000D01*
X156567605Y-93624454D01*
X156394534Y-93552766D01*
X156317182Y-93501081D01*
X156238773Y-93448690D01*
X156106310Y-93316227D01*
X156002235Y-93160467D01*
X156002234Y-93160466D01*
X155930546Y-92987395D01*
X155894000Y-92803667D01*
X155894000Y-92616333D01*
X155930546Y-92432605D01*
X156002234Y-92259534D01*
X156106309Y-92103775D01*
X156106310Y-92103773D01*
X156238773Y-91971310D01*
X156394533Y-91867235D01*
X156394534Y-91867234D01*
X156567605Y-91795546D01*
X156751333Y-91759000D01*
X156938667Y-91759000D01*
X157122395Y-91795546D01*
G37*
G36*
X148867395Y-91795546D02*
G01*
X149040466Y-91867234D01*
X149040467Y-91867235D01*
X149196227Y-91971310D01*
X149328690Y-92103773D01*
X149328691Y-92103775D01*
X149432766Y-92259534D01*
X149504454Y-92432605D01*
X149541000Y-92616333D01*
X149541000Y-92803667D01*
X149504454Y-92987395D01*
X149432766Y-93160466D01*
X149432765Y-93160467D01*
X149328690Y-93316227D01*
X149196227Y-93448690D01*
X149117818Y-93501081D01*
X149040466Y-93552766D01*
X148867395Y-93624454D01*
X148683667Y-93661000D01*
X148496333Y-93661000D01*
X148312605Y-93624454D01*
X148139534Y-93552766D01*
X148062182Y-93501081D01*
X147983773Y-93448690D01*
X147851310Y-93316227D01*
X147747235Y-93160467D01*
X147747234Y-93160466D01*
X147675546Y-92987395D01*
X147639000Y-92803667D01*
X147639000Y-92616333D01*
X147675546Y-92432605D01*
X147747234Y-92259534D01*
X147851309Y-92103775D01*
X147851310Y-92103773D01*
X147983773Y-91971310D01*
X148139533Y-91867235D01*
X148139534Y-91867234D01*
X148312605Y-91795546D01*
X148496333Y-91759000D01*
X148683667Y-91759000D01*
X148867395Y-91795546D01*
G37*
G36*
X166012395Y-91795546D02*
G01*
X166185466Y-91867234D01*
X166185467Y-91867235D01*
X166341227Y-91971310D01*
X166473690Y-92103773D01*
X166473691Y-92103775D01*
X166577766Y-92259534D01*
X166649454Y-92432605D01*
X166686000Y-92616333D01*
X166686000Y-92803667D01*
X166649454Y-92987395D01*
X166577766Y-93160466D01*
X166577765Y-93160467D01*
X166473690Y-93316227D01*
X166341227Y-93448690D01*
X166262818Y-93501081D01*
X166185466Y-93552766D01*
X166012395Y-93624454D01*
X165828667Y-93661000D01*
X165641333Y-93661000D01*
X165457605Y-93624454D01*
X165284534Y-93552766D01*
X165207182Y-93501081D01*
X165128773Y-93448690D01*
X164996310Y-93316227D01*
X164892235Y-93160467D01*
X164892234Y-93160466D01*
X164820546Y-92987395D01*
X164784000Y-92803667D01*
X164784000Y-92616333D01*
X164820546Y-92432605D01*
X164892234Y-92259534D01*
X164996309Y-92103775D01*
X164996310Y-92103773D01*
X165128773Y-91971310D01*
X165284533Y-91867235D01*
X165284534Y-91867234D01*
X165457605Y-91795546D01*
X165641333Y-91759000D01*
X165828667Y-91759000D01*
X166012395Y-91795546D01*
G37*
G36*
X171092395Y-91795546D02*
G01*
X171265466Y-91867234D01*
X171265467Y-91867235D01*
X171421227Y-91971310D01*
X171553690Y-92103773D01*
X171553691Y-92103775D01*
X171657766Y-92259534D01*
X171729454Y-92432605D01*
X171766000Y-92616333D01*
X171766000Y-92803667D01*
X171729454Y-92987395D01*
X171657766Y-93160466D01*
X171657765Y-93160467D01*
X171553690Y-93316227D01*
X171421227Y-93448690D01*
X171342818Y-93501081D01*
X171265466Y-93552766D01*
X171092395Y-93624454D01*
X170908667Y-93661000D01*
X170721333Y-93661000D01*
X170537605Y-93624454D01*
X170364534Y-93552766D01*
X170287182Y-93501081D01*
X170208773Y-93448690D01*
X170076310Y-93316227D01*
X169972235Y-93160467D01*
X169972234Y-93160466D01*
X169900546Y-92987395D01*
X169864000Y-92803667D01*
X169864000Y-92616333D01*
X169900546Y-92432605D01*
X169972234Y-92259534D01*
X170076309Y-92103775D01*
X170076310Y-92103773D01*
X170208773Y-91971310D01*
X170364533Y-91867235D01*
X170364534Y-91867234D01*
X170537605Y-91795546D01*
X170721333Y-91759000D01*
X170908667Y-91759000D01*
X171092395Y-91795546D01*
G37*
G36*
X127266000Y-92976000D02*
G01*
X125464000Y-92976000D01*
X125464000Y-91174000D01*
X127266000Y-91174000D01*
X127266000Y-92976000D01*
G37*
G36*
X176796000Y-92976000D02*
G01*
X174994000Y-92976000D01*
X174994000Y-91174000D01*
X176796000Y-91174000D01*
X176796000Y-92976000D01*
G37*
G36*
X131722395Y-88620546D02*
G01*
X131895466Y-88692234D01*
X131895467Y-88692235D01*
X132051227Y-88796310D01*
X132183690Y-88928773D01*
X132183691Y-88928775D01*
X132287766Y-89084534D01*
X132359454Y-89257605D01*
X132396000Y-89441333D01*
X132396000Y-89628667D01*
X132359454Y-89812395D01*
X132287766Y-89985466D01*
X132287765Y-89985467D01*
X132183690Y-90141227D01*
X132051227Y-90273690D01*
X131972818Y-90326081D01*
X131895466Y-90377766D01*
X131722395Y-90449454D01*
X131538667Y-90486000D01*
X131351333Y-90486000D01*
X131167605Y-90449454D01*
X130994534Y-90377766D01*
X130917182Y-90326081D01*
X130838773Y-90273690D01*
X130706310Y-90141227D01*
X130602235Y-89985467D01*
X130602234Y-89985466D01*
X130530546Y-89812395D01*
X130494000Y-89628667D01*
X130494000Y-89441333D01*
X130530546Y-89257605D01*
X130602234Y-89084534D01*
X130706309Y-88928775D01*
X130706310Y-88928773D01*
X130838773Y-88796310D01*
X130994533Y-88692235D01*
X130994534Y-88692234D01*
X131167605Y-88620546D01*
X131351333Y-88584000D01*
X131538667Y-88584000D01*
X131722395Y-88620546D01*
G37*
G36*
X136802395Y-88620546D02*
G01*
X136975466Y-88692234D01*
X136975467Y-88692235D01*
X137131227Y-88796310D01*
X137263690Y-88928773D01*
X137263691Y-88928775D01*
X137367766Y-89084534D01*
X137439454Y-89257605D01*
X137476000Y-89441333D01*
X137476000Y-89628667D01*
X137439454Y-89812395D01*
X137367766Y-89985466D01*
X137367765Y-89985467D01*
X137263690Y-90141227D01*
X137131227Y-90273690D01*
X137052818Y-90326081D01*
X136975466Y-90377766D01*
X136802395Y-90449454D01*
X136618667Y-90486000D01*
X136431333Y-90486000D01*
X136247605Y-90449454D01*
X136074534Y-90377766D01*
X135997182Y-90326081D01*
X135918773Y-90273690D01*
X135786310Y-90141227D01*
X135682235Y-89985467D01*
X135682234Y-89985466D01*
X135610546Y-89812395D01*
X135574000Y-89628667D01*
X135574000Y-89441333D01*
X135610546Y-89257605D01*
X135682234Y-89084534D01*
X135786309Y-88928775D01*
X135786310Y-88928773D01*
X135918773Y-88796310D01*
X136074533Y-88692235D01*
X136074534Y-88692234D01*
X136247605Y-88620546D01*
X136431333Y-88584000D01*
X136618667Y-88584000D01*
X136802395Y-88620546D01*
G37*
G36*
X139977395Y-88620546D02*
G01*
X140150466Y-88692234D01*
X140150467Y-88692235D01*
X140306227Y-88796310D01*
X140438690Y-88928773D01*
X140438691Y-88928775D01*
X140542766Y-89084534D01*
X140614454Y-89257605D01*
X140651000Y-89441333D01*
X140651000Y-89628667D01*
X140614454Y-89812395D01*
X140542766Y-89985466D01*
X140542765Y-89985467D01*
X140438690Y-90141227D01*
X140306227Y-90273690D01*
X140227818Y-90326081D01*
X140150466Y-90377766D01*
X139977395Y-90449454D01*
X139793667Y-90486000D01*
X139606333Y-90486000D01*
X139422605Y-90449454D01*
X139249534Y-90377766D01*
X139172182Y-90326081D01*
X139093773Y-90273690D01*
X138961310Y-90141227D01*
X138857235Y-89985467D01*
X138857234Y-89985466D01*
X138785546Y-89812395D01*
X138749000Y-89628667D01*
X138749000Y-89441333D01*
X138785546Y-89257605D01*
X138857234Y-89084534D01*
X138961309Y-88928775D01*
X138961310Y-88928773D01*
X139093773Y-88796310D01*
X139249533Y-88692235D01*
X139249534Y-88692234D01*
X139422605Y-88620546D01*
X139606333Y-88584000D01*
X139793667Y-88584000D01*
X139977395Y-88620546D01*
G37*
G36*
X164107395Y-88620546D02*
G01*
X164280466Y-88692234D01*
X164280467Y-88692235D01*
X164436227Y-88796310D01*
X164568690Y-88928773D01*
X164568691Y-88928775D01*
X164672766Y-89084534D01*
X164744454Y-89257605D01*
X164781000Y-89441333D01*
X164781000Y-89628667D01*
X164744454Y-89812395D01*
X164672766Y-89985466D01*
X164672765Y-89985467D01*
X164568690Y-90141227D01*
X164436227Y-90273690D01*
X164357818Y-90326081D01*
X164280466Y-90377766D01*
X164107395Y-90449454D01*
X163923667Y-90486000D01*
X163736333Y-90486000D01*
X163552605Y-90449454D01*
X163379534Y-90377766D01*
X163302182Y-90326081D01*
X163223773Y-90273690D01*
X163091310Y-90141227D01*
X162987235Y-89985467D01*
X162987234Y-89985466D01*
X162915546Y-89812395D01*
X162879000Y-89628667D01*
X162879000Y-89441333D01*
X162915546Y-89257605D01*
X162987234Y-89084534D01*
X163091309Y-88928775D01*
X163091310Y-88928773D01*
X163223773Y-88796310D01*
X163379533Y-88692235D01*
X163379534Y-88692234D01*
X163552605Y-88620546D01*
X163736333Y-88584000D01*
X163923667Y-88584000D01*
X164107395Y-88620546D01*
G37*
G36*
X169187395Y-88620546D02*
G01*
X169360466Y-88692234D01*
X169360467Y-88692235D01*
X169516227Y-88796310D01*
X169648690Y-88928773D01*
X169648691Y-88928775D01*
X169752766Y-89084534D01*
X169824454Y-89257605D01*
X169861000Y-89441333D01*
X169861000Y-89628667D01*
X169824454Y-89812395D01*
X169752766Y-89985466D01*
X169752765Y-89985467D01*
X169648690Y-90141227D01*
X169516227Y-90273690D01*
X169437818Y-90326081D01*
X169360466Y-90377766D01*
X169187395Y-90449454D01*
X169003667Y-90486000D01*
X168816333Y-90486000D01*
X168632605Y-90449454D01*
X168459534Y-90377766D01*
X168382182Y-90326081D01*
X168303773Y-90273690D01*
X168171310Y-90141227D01*
X168067235Y-89985467D01*
X168067234Y-89985466D01*
X167995546Y-89812395D01*
X167959000Y-89628667D01*
X167959000Y-89441333D01*
X167995546Y-89257605D01*
X168067234Y-89084534D01*
X168171309Y-88928775D01*
X168171310Y-88928773D01*
X168303773Y-88796310D01*
X168459533Y-88692235D01*
X168459534Y-88692234D01*
X168632605Y-88620546D01*
X168816333Y-88584000D01*
X169003667Y-88584000D01*
X169187395Y-88620546D01*
G37*
G36*
X145057395Y-88620546D02*
G01*
X145230466Y-88692234D01*
X145230467Y-88692235D01*
X145386227Y-88796310D01*
X145518690Y-88928773D01*
X145518691Y-88928775D01*
X145622766Y-89084534D01*
X145694454Y-89257605D01*
X145731000Y-89441333D01*
X145731000Y-89628667D01*
X145694454Y-89812395D01*
X145622766Y-89985466D01*
X145622765Y-89985467D01*
X145518690Y-90141227D01*
X145386227Y-90273690D01*
X145307818Y-90326081D01*
X145230466Y-90377766D01*
X145057395Y-90449454D01*
X144873667Y-90486000D01*
X144686333Y-90486000D01*
X144502605Y-90449454D01*
X144329534Y-90377766D01*
X144252182Y-90326081D01*
X144173773Y-90273690D01*
X144041310Y-90141227D01*
X143937235Y-89985467D01*
X143937234Y-89985466D01*
X143865546Y-89812395D01*
X143829000Y-89628667D01*
X143829000Y-89441333D01*
X143865546Y-89257605D01*
X143937234Y-89084534D01*
X144041309Y-88928775D01*
X144041310Y-88928773D01*
X144173773Y-88796310D01*
X144329533Y-88692235D01*
X144329534Y-88692234D01*
X144502605Y-88620546D01*
X144686333Y-88584000D01*
X144873667Y-88584000D01*
X145057395Y-88620546D01*
G37*
G36*
X155852395Y-88620546D02*
G01*
X156025466Y-88692234D01*
X156025467Y-88692235D01*
X156181227Y-88796310D01*
X156313690Y-88928773D01*
X156313691Y-88928775D01*
X156417766Y-89084534D01*
X156489454Y-89257605D01*
X156526000Y-89441333D01*
X156526000Y-89628667D01*
X156489454Y-89812395D01*
X156417766Y-89985466D01*
X156417765Y-89985467D01*
X156313690Y-90141227D01*
X156181227Y-90273690D01*
X156102818Y-90326081D01*
X156025466Y-90377766D01*
X155852395Y-90449454D01*
X155668667Y-90486000D01*
X155481333Y-90486000D01*
X155297605Y-90449454D01*
X155124534Y-90377766D01*
X155047182Y-90326081D01*
X154968773Y-90273690D01*
X154836310Y-90141227D01*
X154732235Y-89985467D01*
X154732234Y-89985466D01*
X154660546Y-89812395D01*
X154624000Y-89628667D01*
X154624000Y-89441333D01*
X154660546Y-89257605D01*
X154732234Y-89084534D01*
X154836309Y-88928775D01*
X154836310Y-88928773D01*
X154968773Y-88796310D01*
X155124533Y-88692235D01*
X155124534Y-88692234D01*
X155297605Y-88620546D01*
X155481333Y-88584000D01*
X155668667Y-88584000D01*
X155852395Y-88620546D01*
G37*
G36*
X160932395Y-88620546D02*
G01*
X161105466Y-88692234D01*
X161105467Y-88692235D01*
X161261227Y-88796310D01*
X161393690Y-88928773D01*
X161393691Y-88928775D01*
X161497766Y-89084534D01*
X161569454Y-89257605D01*
X161606000Y-89441333D01*
X161606000Y-89628667D01*
X161569454Y-89812395D01*
X161497766Y-89985466D01*
X161497765Y-89985467D01*
X161393690Y-90141227D01*
X161261227Y-90273690D01*
X161182818Y-90326081D01*
X161105466Y-90377766D01*
X160932395Y-90449454D01*
X160748667Y-90486000D01*
X160561333Y-90486000D01*
X160377605Y-90449454D01*
X160204534Y-90377766D01*
X160127182Y-90326081D01*
X160048773Y-90273690D01*
X159916310Y-90141227D01*
X159812235Y-89985467D01*
X159812234Y-89985466D01*
X159740546Y-89812395D01*
X159704000Y-89628667D01*
X159704000Y-89441333D01*
X159740546Y-89257605D01*
X159812234Y-89084534D01*
X159916309Y-88928775D01*
X159916310Y-88928773D01*
X160048773Y-88796310D01*
X160204533Y-88692235D01*
X160204534Y-88692234D01*
X160377605Y-88620546D01*
X160561333Y-88584000D01*
X160748667Y-88584000D01*
X160932395Y-88620546D01*
G37*
G36*
X126478512Y-88638927D02*
G01*
X126627812Y-88668624D01*
X126791784Y-88736544D01*
X126939354Y-88835147D01*
X127064853Y-88960646D01*
X127163456Y-89108216D01*
X127231376Y-89272188D01*
X127266000Y-89446259D01*
X127266000Y-89623741D01*
X127231376Y-89797812D01*
X127163456Y-89961784D01*
X127064853Y-90109354D01*
X126939354Y-90234853D01*
X126791784Y-90333456D01*
X126627812Y-90401376D01*
X126478512Y-90431073D01*
X126453742Y-90436000D01*
X126276258Y-90436000D01*
X126251488Y-90431073D01*
X126102188Y-90401376D01*
X125938216Y-90333456D01*
X125790646Y-90234853D01*
X125665147Y-90109354D01*
X125566544Y-89961784D01*
X125498624Y-89797812D01*
X125464000Y-89623741D01*
X125464000Y-89446259D01*
X125498624Y-89272188D01*
X125566544Y-89108216D01*
X125665147Y-88960646D01*
X125790646Y-88835147D01*
X125938216Y-88736544D01*
X126102188Y-88668624D01*
X126251488Y-88638927D01*
X126276258Y-88634000D01*
X126453742Y-88634000D01*
X126478512Y-88638927D01*
G37*
G36*
X176008512Y-88638927D02*
G01*
X176157812Y-88668624D01*
X176321784Y-88736544D01*
X176469354Y-88835147D01*
X176594853Y-88960646D01*
X176693456Y-89108216D01*
X176761376Y-89272188D01*
X176796000Y-89446259D01*
X176796000Y-89623741D01*
X176761376Y-89797812D01*
X176693456Y-89961784D01*
X176594853Y-90109354D01*
X176469354Y-90234853D01*
X176321784Y-90333456D01*
X176157812Y-90401376D01*
X176008512Y-90431073D01*
X175983742Y-90436000D01*
X175806258Y-90436000D01*
X175781488Y-90431073D01*
X175632188Y-90401376D01*
X175468216Y-90333456D01*
X175320646Y-90234853D01*
X175195147Y-90109354D01*
X175096544Y-89961784D01*
X175028624Y-89797812D01*
X174994000Y-89623741D01*
X174994000Y-89446259D01*
X175028624Y-89272188D01*
X175096544Y-89108216D01*
X175195147Y-88960646D01*
X175320646Y-88835147D01*
X175468216Y-88736544D01*
X175632188Y-88668624D01*
X175781488Y-88638927D01*
X175806258Y-88634000D01*
X175983742Y-88634000D01*
X176008512Y-88638927D01*
G37*
G36*
X135532395Y-86080546D02*
G01*
X135705466Y-86152234D01*
X135705467Y-86152235D01*
X135861227Y-86256310D01*
X135993690Y-86388773D01*
X135993691Y-86388775D01*
X136097766Y-86544534D01*
X136169454Y-86717605D01*
X136206000Y-86901333D01*
X136206000Y-87088667D01*
X136169454Y-87272395D01*
X136097766Y-87445466D01*
X136097765Y-87445467D01*
X135993690Y-87601227D01*
X135861227Y-87733690D01*
X135782818Y-87786081D01*
X135705466Y-87837766D01*
X135532395Y-87909454D01*
X135348667Y-87946000D01*
X135161333Y-87946000D01*
X134977605Y-87909454D01*
X134804534Y-87837766D01*
X134727182Y-87786081D01*
X134648773Y-87733690D01*
X134516310Y-87601227D01*
X134412235Y-87445467D01*
X134412234Y-87445466D01*
X134340546Y-87272395D01*
X134304000Y-87088667D01*
X134304000Y-86901333D01*
X134340546Y-86717605D01*
X134412234Y-86544534D01*
X134516309Y-86388775D01*
X134516310Y-86388773D01*
X134648773Y-86256310D01*
X134804533Y-86152235D01*
X134804534Y-86152234D01*
X134977605Y-86080546D01*
X135161333Y-86044000D01*
X135348667Y-86044000D01*
X135532395Y-86080546D01*
G37*
G36*
X133666000Y-87946000D02*
G01*
X131764000Y-87946000D01*
X131764000Y-86044000D01*
X133666000Y-86044000D01*
X133666000Y-87946000D01*
G37*
G36*
X143787395Y-86080546D02*
G01*
X143960466Y-86152234D01*
X143960467Y-86152235D01*
X144116227Y-86256310D01*
X144248690Y-86388773D01*
X144248691Y-86388775D01*
X144352766Y-86544534D01*
X144424454Y-86717605D01*
X144461000Y-86901333D01*
X144461000Y-87088667D01*
X144424454Y-87272395D01*
X144352766Y-87445466D01*
X144352765Y-87445467D01*
X144248690Y-87601227D01*
X144116227Y-87733690D01*
X144037818Y-87786081D01*
X143960466Y-87837766D01*
X143787395Y-87909454D01*
X143603667Y-87946000D01*
X143416333Y-87946000D01*
X143232605Y-87909454D01*
X143059534Y-87837766D01*
X142982182Y-87786081D01*
X142903773Y-87733690D01*
X142771310Y-87601227D01*
X142667235Y-87445467D01*
X142667234Y-87445466D01*
X142595546Y-87272395D01*
X142559000Y-87088667D01*
X142559000Y-86901333D01*
X142595546Y-86717605D01*
X142667234Y-86544534D01*
X142771309Y-86388775D01*
X142771310Y-86388773D01*
X142903773Y-86256310D01*
X143059533Y-86152235D01*
X143059534Y-86152234D01*
X143232605Y-86080546D01*
X143416333Y-86044000D01*
X143603667Y-86044000D01*
X143787395Y-86080546D01*
G37*
G36*
X157122395Y-86080546D02*
G01*
X157295466Y-86152234D01*
X157295467Y-86152235D01*
X157451227Y-86256310D01*
X157583690Y-86388773D01*
X157583691Y-86388775D01*
X157687766Y-86544534D01*
X157759454Y-86717605D01*
X157796000Y-86901333D01*
X157796000Y-87088667D01*
X157759454Y-87272395D01*
X157687766Y-87445466D01*
X157687765Y-87445467D01*
X157583690Y-87601227D01*
X157451227Y-87733690D01*
X157372818Y-87786081D01*
X157295466Y-87837766D01*
X157122395Y-87909454D01*
X156938667Y-87946000D01*
X156751333Y-87946000D01*
X156567605Y-87909454D01*
X156394534Y-87837766D01*
X156317182Y-87786081D01*
X156238773Y-87733690D01*
X156106310Y-87601227D01*
X156002235Y-87445467D01*
X156002234Y-87445466D01*
X155930546Y-87272395D01*
X155894000Y-87088667D01*
X155894000Y-86901333D01*
X155930546Y-86717605D01*
X156002234Y-86544534D01*
X156106309Y-86388775D01*
X156106310Y-86388773D01*
X156238773Y-86256310D01*
X156394533Y-86152235D01*
X156394534Y-86152234D01*
X156567605Y-86080546D01*
X156751333Y-86044000D01*
X156938667Y-86044000D01*
X157122395Y-86080546D01*
G37*
G36*
X165377395Y-86080546D02*
G01*
X165550466Y-86152234D01*
X165550467Y-86152235D01*
X165706227Y-86256310D01*
X165838690Y-86388773D01*
X165838691Y-86388775D01*
X165942766Y-86544534D01*
X166014454Y-86717605D01*
X166051000Y-86901333D01*
X166051000Y-87088667D01*
X166014454Y-87272395D01*
X165942766Y-87445466D01*
X165942765Y-87445467D01*
X165838690Y-87601227D01*
X165706227Y-87733690D01*
X165627818Y-87786081D01*
X165550466Y-87837766D01*
X165377395Y-87909454D01*
X165193667Y-87946000D01*
X165006333Y-87946000D01*
X164822605Y-87909454D01*
X164649534Y-87837766D01*
X164572182Y-87786081D01*
X164493773Y-87733690D01*
X164361310Y-87601227D01*
X164257235Y-87445467D01*
X164257234Y-87445466D01*
X164185546Y-87272395D01*
X164149000Y-87088667D01*
X164149000Y-86901333D01*
X164185546Y-86717605D01*
X164257234Y-86544534D01*
X164361309Y-86388775D01*
X164361310Y-86388773D01*
X164493773Y-86256310D01*
X164649533Y-86152235D01*
X164649534Y-86152234D01*
X164822605Y-86080546D01*
X165006333Y-86044000D01*
X165193667Y-86044000D01*
X165377395Y-86080546D01*
G37*
G36*
X160336000Y-87946000D02*
G01*
X158434000Y-87946000D01*
X158434000Y-86044000D01*
X160336000Y-86044000D01*
X160336000Y-87946000D01*
G37*
G36*
X141921000Y-87946000D02*
G01*
X140019000Y-87946000D01*
X140019000Y-86044000D01*
X141921000Y-86044000D01*
X141921000Y-87946000D01*
G37*
G36*
X168591000Y-87946000D02*
G01*
X166689000Y-87946000D01*
X166689000Y-86044000D01*
X168591000Y-86044000D01*
X168591000Y-87946000D01*
G37*
G36*
X176008512Y-86098927D02*
G01*
X176157812Y-86128624D01*
X176321784Y-86196544D01*
X176469354Y-86295147D01*
X176594853Y-86420646D01*
X176693456Y-86568216D01*
X176761376Y-86732188D01*
X176796000Y-86906259D01*
X176796000Y-87083741D01*
X176761376Y-87257812D01*
X176693456Y-87421784D01*
X176594853Y-87569354D01*
X176469354Y-87694853D01*
X176321784Y-87793456D01*
X176157812Y-87861376D01*
X176008512Y-87891073D01*
X175983742Y-87896000D01*
X175806258Y-87896000D01*
X175781488Y-87891073D01*
X175632188Y-87861376D01*
X175468216Y-87793456D01*
X175320646Y-87694853D01*
X175195147Y-87569354D01*
X175096544Y-87421784D01*
X175028624Y-87257812D01*
X174994000Y-87083741D01*
X174994000Y-86906259D01*
X175028624Y-86732188D01*
X175096544Y-86568216D01*
X175195147Y-86420646D01*
X175320646Y-86295147D01*
X175468216Y-86196544D01*
X175632188Y-86128624D01*
X175781488Y-86098927D01*
X175806258Y-86094000D01*
X175983742Y-86094000D01*
X176008512Y-86098927D01*
G37*
G36*
X126478512Y-86098927D02*
G01*
X126627812Y-86128624D01*
X126791784Y-86196544D01*
X126939354Y-86295147D01*
X127064853Y-86420646D01*
X127163456Y-86568216D01*
X127231376Y-86732188D01*
X127266000Y-86906259D01*
X127266000Y-87083741D01*
X127231376Y-87257812D01*
X127163456Y-87421784D01*
X127064853Y-87569354D01*
X126939354Y-87694853D01*
X126791784Y-87793456D01*
X126627812Y-87861376D01*
X126478512Y-87891073D01*
X126453742Y-87896000D01*
X126276258Y-87896000D01*
X126251488Y-87891073D01*
X126102188Y-87861376D01*
X125938216Y-87793456D01*
X125790646Y-87694853D01*
X125665147Y-87569354D01*
X125566544Y-87421784D01*
X125498624Y-87257812D01*
X125464000Y-87083741D01*
X125464000Y-86906259D01*
X125498624Y-86732188D01*
X125566544Y-86568216D01*
X125665147Y-86420646D01*
X125790646Y-86295147D01*
X125938216Y-86196544D01*
X126102188Y-86128624D01*
X126251488Y-86098927D01*
X126276258Y-86094000D01*
X126453742Y-86094000D01*
X126478512Y-86098927D01*
G37*
G36*
X160932395Y-83540546D02*
G01*
X161105466Y-83612234D01*
X161105467Y-83612235D01*
X161261227Y-83716310D01*
X161393690Y-83848773D01*
X161393691Y-83848775D01*
X161497766Y-84004534D01*
X161569454Y-84177605D01*
X161606000Y-84361333D01*
X161606000Y-84548667D01*
X161569454Y-84732395D01*
X161497766Y-84905466D01*
X161497765Y-84905467D01*
X161393690Y-85061227D01*
X161261227Y-85193690D01*
X161182818Y-85246081D01*
X161105466Y-85297766D01*
X160932395Y-85369454D01*
X160748667Y-85406000D01*
X160561333Y-85406000D01*
X160377605Y-85369454D01*
X160204534Y-85297766D01*
X160127182Y-85246081D01*
X160048773Y-85193690D01*
X159916310Y-85061227D01*
X159812235Y-84905467D01*
X159812234Y-84905466D01*
X159740546Y-84732395D01*
X159704000Y-84548667D01*
X159704000Y-84361333D01*
X159740546Y-84177605D01*
X159812234Y-84004534D01*
X159916309Y-83848775D01*
X159916310Y-83848773D01*
X160048773Y-83716310D01*
X160204533Y-83612235D01*
X160204534Y-83612234D01*
X160377605Y-83540546D01*
X160561333Y-83504000D01*
X160748667Y-83504000D01*
X160932395Y-83540546D01*
G37*
G36*
X169187395Y-83540546D02*
G01*
X169360466Y-83612234D01*
X169360467Y-83612235D01*
X169516227Y-83716310D01*
X169648690Y-83848773D01*
X169648691Y-83848775D01*
X169752766Y-84004534D01*
X169824454Y-84177605D01*
X169861000Y-84361333D01*
X169861000Y-84548667D01*
X169824454Y-84732395D01*
X169752766Y-84905466D01*
X169752765Y-84905467D01*
X169648690Y-85061227D01*
X169516227Y-85193690D01*
X169437818Y-85246081D01*
X169360466Y-85297766D01*
X169187395Y-85369454D01*
X169003667Y-85406000D01*
X168816333Y-85406000D01*
X168632605Y-85369454D01*
X168459534Y-85297766D01*
X168382182Y-85246081D01*
X168303773Y-85193690D01*
X168171310Y-85061227D01*
X168067235Y-84905467D01*
X168067234Y-84905466D01*
X167995546Y-84732395D01*
X167959000Y-84548667D01*
X167959000Y-84361333D01*
X167995546Y-84177605D01*
X168067234Y-84004534D01*
X168171309Y-83848775D01*
X168171310Y-83848773D01*
X168303773Y-83716310D01*
X168459533Y-83612235D01*
X168459534Y-83612234D01*
X168632605Y-83540546D01*
X168816333Y-83504000D01*
X169003667Y-83504000D01*
X169187395Y-83540546D01*
G37*
G36*
X164107395Y-83540546D02*
G01*
X164280466Y-83612234D01*
X164280467Y-83612235D01*
X164436227Y-83716310D01*
X164568690Y-83848773D01*
X164568691Y-83848775D01*
X164672766Y-84004534D01*
X164744454Y-84177605D01*
X164781000Y-84361333D01*
X164781000Y-84548667D01*
X164744454Y-84732395D01*
X164672766Y-84905466D01*
X164672765Y-84905467D01*
X164568690Y-85061227D01*
X164436227Y-85193690D01*
X164357818Y-85246081D01*
X164280466Y-85297766D01*
X164107395Y-85369454D01*
X163923667Y-85406000D01*
X163736333Y-85406000D01*
X163552605Y-85369454D01*
X163379534Y-85297766D01*
X163302182Y-85246081D01*
X163223773Y-85193690D01*
X163091310Y-85061227D01*
X162987235Y-84905467D01*
X162987234Y-84905466D01*
X162915546Y-84732395D01*
X162879000Y-84548667D01*
X162879000Y-84361333D01*
X162915546Y-84177605D01*
X162987234Y-84004534D01*
X163091309Y-83848775D01*
X163091310Y-83848773D01*
X163223773Y-83716310D01*
X163379533Y-83612235D01*
X163379534Y-83612234D01*
X163552605Y-83540546D01*
X163736333Y-83504000D01*
X163923667Y-83504000D01*
X164107395Y-83540546D01*
G37*
G36*
X139977395Y-83540546D02*
G01*
X140150466Y-83612234D01*
X140150467Y-83612235D01*
X140306227Y-83716310D01*
X140438690Y-83848773D01*
X140438691Y-83848775D01*
X140542766Y-84004534D01*
X140614454Y-84177605D01*
X140651000Y-84361333D01*
X140651000Y-84548667D01*
X140614454Y-84732395D01*
X140542766Y-84905466D01*
X140542765Y-84905467D01*
X140438690Y-85061227D01*
X140306227Y-85193690D01*
X140227818Y-85246081D01*
X140150466Y-85297766D01*
X139977395Y-85369454D01*
X139793667Y-85406000D01*
X139606333Y-85406000D01*
X139422605Y-85369454D01*
X139249534Y-85297766D01*
X139172182Y-85246081D01*
X139093773Y-85193690D01*
X138961310Y-85061227D01*
X138857235Y-84905467D01*
X138857234Y-84905466D01*
X138785546Y-84732395D01*
X138749000Y-84548667D01*
X138749000Y-84361333D01*
X138785546Y-84177605D01*
X138857234Y-84004534D01*
X138961309Y-83848775D01*
X138961310Y-83848773D01*
X139093773Y-83716310D01*
X139249533Y-83612235D01*
X139249534Y-83612234D01*
X139422605Y-83540546D01*
X139606333Y-83504000D01*
X139793667Y-83504000D01*
X139977395Y-83540546D01*
G37*
G36*
X155852395Y-83540546D02*
G01*
X156025466Y-83612234D01*
X156025467Y-83612235D01*
X156181227Y-83716310D01*
X156313690Y-83848773D01*
X156313691Y-83848775D01*
X156417766Y-84004534D01*
X156489454Y-84177605D01*
X156526000Y-84361333D01*
X156526000Y-84548667D01*
X156489454Y-84732395D01*
X156417766Y-84905466D01*
X156417765Y-84905467D01*
X156313690Y-85061227D01*
X156181227Y-85193690D01*
X156102818Y-85246081D01*
X156025466Y-85297766D01*
X155852395Y-85369454D01*
X155668667Y-85406000D01*
X155481333Y-85406000D01*
X155297605Y-85369454D01*
X155124534Y-85297766D01*
X155047182Y-85246081D01*
X154968773Y-85193690D01*
X154836310Y-85061227D01*
X154732235Y-84905467D01*
X154732234Y-84905466D01*
X154660546Y-84732395D01*
X154624000Y-84548667D01*
X154624000Y-84361333D01*
X154660546Y-84177605D01*
X154732234Y-84004534D01*
X154836309Y-83848775D01*
X154836310Y-83848773D01*
X154968773Y-83716310D01*
X155124533Y-83612235D01*
X155124534Y-83612234D01*
X155297605Y-83540546D01*
X155481333Y-83504000D01*
X155668667Y-83504000D01*
X155852395Y-83540546D01*
G37*
G36*
X131722395Y-83540546D02*
G01*
X131895466Y-83612234D01*
X131895467Y-83612235D01*
X132051227Y-83716310D01*
X132183690Y-83848773D01*
X132183691Y-83848775D01*
X132287766Y-84004534D01*
X132359454Y-84177605D01*
X132396000Y-84361333D01*
X132396000Y-84548667D01*
X132359454Y-84732395D01*
X132287766Y-84905466D01*
X132287765Y-84905467D01*
X132183690Y-85061227D01*
X132051227Y-85193690D01*
X131972818Y-85246081D01*
X131895466Y-85297766D01*
X131722395Y-85369454D01*
X131538667Y-85406000D01*
X131351333Y-85406000D01*
X131167605Y-85369454D01*
X130994534Y-85297766D01*
X130917182Y-85246081D01*
X130838773Y-85193690D01*
X130706310Y-85061227D01*
X130602235Y-84905467D01*
X130602234Y-84905466D01*
X130530546Y-84732395D01*
X130494000Y-84548667D01*
X130494000Y-84361333D01*
X130530546Y-84177605D01*
X130602234Y-84004534D01*
X130706309Y-83848775D01*
X130706310Y-83848773D01*
X130838773Y-83716310D01*
X130994533Y-83612235D01*
X130994534Y-83612234D01*
X131167605Y-83540546D01*
X131351333Y-83504000D01*
X131538667Y-83504000D01*
X131722395Y-83540546D01*
G37*
G36*
X136802395Y-83540546D02*
G01*
X136975466Y-83612234D01*
X136975467Y-83612235D01*
X137131227Y-83716310D01*
X137263690Y-83848773D01*
X137263691Y-83848775D01*
X137367766Y-84004534D01*
X137439454Y-84177605D01*
X137476000Y-84361333D01*
X137476000Y-84548667D01*
X137439454Y-84732395D01*
X137367766Y-84905466D01*
X137367765Y-84905467D01*
X137263690Y-85061227D01*
X137131227Y-85193690D01*
X137052818Y-85246081D01*
X136975466Y-85297766D01*
X136802395Y-85369454D01*
X136618667Y-85406000D01*
X136431333Y-85406000D01*
X136247605Y-85369454D01*
X136074534Y-85297766D01*
X135997182Y-85246081D01*
X135918773Y-85193690D01*
X135786310Y-85061227D01*
X135682235Y-84905467D01*
X135682234Y-84905466D01*
X135610546Y-84732395D01*
X135574000Y-84548667D01*
X135574000Y-84361333D01*
X135610546Y-84177605D01*
X135682234Y-84004534D01*
X135786309Y-83848775D01*
X135786310Y-83848773D01*
X135918773Y-83716310D01*
X136074533Y-83612235D01*
X136074534Y-83612234D01*
X136247605Y-83540546D01*
X136431333Y-83504000D01*
X136618667Y-83504000D01*
X136802395Y-83540546D01*
G37*
G36*
X145057395Y-83540546D02*
G01*
X145230466Y-83612234D01*
X145230467Y-83612235D01*
X145386227Y-83716310D01*
X145518690Y-83848773D01*
X145518691Y-83848775D01*
X145622766Y-84004534D01*
X145694454Y-84177605D01*
X145731000Y-84361333D01*
X145731000Y-84548667D01*
X145694454Y-84732395D01*
X145622766Y-84905466D01*
X145622765Y-84905467D01*
X145518690Y-85061227D01*
X145386227Y-85193690D01*
X145307818Y-85246081D01*
X145230466Y-85297766D01*
X145057395Y-85369454D01*
X144873667Y-85406000D01*
X144686333Y-85406000D01*
X144502605Y-85369454D01*
X144329534Y-85297766D01*
X144252182Y-85246081D01*
X144173773Y-85193690D01*
X144041310Y-85061227D01*
X143937235Y-84905467D01*
X143937234Y-84905466D01*
X143865546Y-84732395D01*
X143829000Y-84548667D01*
X143829000Y-84361333D01*
X143865546Y-84177605D01*
X143937234Y-84004534D01*
X144041309Y-83848775D01*
X144041310Y-83848773D01*
X144173773Y-83716310D01*
X144329533Y-83612235D01*
X144329534Y-83612234D01*
X144502605Y-83540546D01*
X144686333Y-83504000D01*
X144873667Y-83504000D01*
X145057395Y-83540546D01*
G37*
G36*
X176008512Y-83558927D02*
G01*
X176157812Y-83588624D01*
X176321784Y-83656544D01*
X176469354Y-83755147D01*
X176594853Y-83880646D01*
X176693456Y-84028216D01*
X176761376Y-84192188D01*
X176796000Y-84366259D01*
X176796000Y-84543741D01*
X176761376Y-84717812D01*
X176693456Y-84881784D01*
X176594853Y-85029354D01*
X176469354Y-85154853D01*
X176321784Y-85253456D01*
X176157812Y-85321376D01*
X176008512Y-85351073D01*
X175983742Y-85356000D01*
X175806258Y-85356000D01*
X175781488Y-85351073D01*
X175632188Y-85321376D01*
X175468216Y-85253456D01*
X175320646Y-85154853D01*
X175195147Y-85029354D01*
X175096544Y-84881784D01*
X175028624Y-84717812D01*
X174994000Y-84543741D01*
X174994000Y-84366259D01*
X175028624Y-84192188D01*
X175096544Y-84028216D01*
X175195147Y-83880646D01*
X175320646Y-83755147D01*
X175468216Y-83656544D01*
X175632188Y-83588624D01*
X175781488Y-83558927D01*
X175806258Y-83554000D01*
X175983742Y-83554000D01*
X176008512Y-83558927D01*
G37*
G36*
X126478512Y-83558927D02*
G01*
X126627812Y-83588624D01*
X126791784Y-83656544D01*
X126939354Y-83755147D01*
X127064853Y-83880646D01*
X127163456Y-84028216D01*
X127231376Y-84192188D01*
X127266000Y-84366259D01*
X127266000Y-84543741D01*
X127231376Y-84717812D01*
X127163456Y-84881784D01*
X127064853Y-85029354D01*
X126939354Y-85154853D01*
X126791784Y-85253456D01*
X126627812Y-85321376D01*
X126478512Y-85351073D01*
X126453742Y-85356000D01*
X126276258Y-85356000D01*
X126251488Y-85351073D01*
X126102188Y-85321376D01*
X125938216Y-85253456D01*
X125790646Y-85154853D01*
X125665147Y-85029354D01*
X125566544Y-84881784D01*
X125498624Y-84717812D01*
X125464000Y-84543741D01*
X125464000Y-84366259D01*
X125498624Y-84192188D01*
X125566544Y-84028216D01*
X125665147Y-83880646D01*
X125790646Y-83755147D01*
X125938216Y-83656544D01*
X126102188Y-83588624D01*
X126251488Y-83558927D01*
X126276258Y-83554000D01*
X126453742Y-83554000D01*
X126478512Y-83558927D01*
G37*
G36*
X126478512Y-81018927D02*
G01*
X126627812Y-81048624D01*
X126791784Y-81116544D01*
X126939354Y-81215147D01*
X127064853Y-81340646D01*
X127163456Y-81488216D01*
X127231376Y-81652188D01*
X127266000Y-81826259D01*
X127266000Y-82003741D01*
X127231376Y-82177812D01*
X127163456Y-82341784D01*
X127064853Y-82489354D01*
X126939354Y-82614853D01*
X126791784Y-82713456D01*
X126627812Y-82781376D01*
X126478512Y-82811073D01*
X126453742Y-82816000D01*
X126276258Y-82816000D01*
X126251488Y-82811073D01*
X126102188Y-82781376D01*
X125938216Y-82713456D01*
X125790646Y-82614853D01*
X125665147Y-82489354D01*
X125566544Y-82341784D01*
X125498624Y-82177812D01*
X125464000Y-82003741D01*
X125464000Y-81826259D01*
X125498624Y-81652188D01*
X125566544Y-81488216D01*
X125665147Y-81340646D01*
X125790646Y-81215147D01*
X125938216Y-81116544D01*
X126102188Y-81048624D01*
X126251488Y-81018927D01*
X126276258Y-81014000D01*
X126453742Y-81014000D01*
X126478512Y-81018927D01*
G37*
G36*
X176008512Y-81018927D02*
G01*
X176157812Y-81048624D01*
X176321784Y-81116544D01*
X176469354Y-81215147D01*
X176594853Y-81340646D01*
X176693456Y-81488216D01*
X176761376Y-81652188D01*
X176796000Y-81826259D01*
X176796000Y-82003741D01*
X176761376Y-82177812D01*
X176693456Y-82341784D01*
X176594853Y-82489354D01*
X176469354Y-82614853D01*
X176321784Y-82713456D01*
X176157812Y-82781376D01*
X176008512Y-82811073D01*
X175983742Y-82816000D01*
X175806258Y-82816000D01*
X175781488Y-82811073D01*
X175632188Y-82781376D01*
X175468216Y-82713456D01*
X175320646Y-82614853D01*
X175195147Y-82489354D01*
X175096544Y-82341784D01*
X175028624Y-82177812D01*
X174994000Y-82003741D01*
X174994000Y-81826259D01*
X175028624Y-81652188D01*
X175096544Y-81488216D01*
X175195147Y-81340646D01*
X175320646Y-81215147D01*
X175468216Y-81116544D01*
X175632188Y-81048624D01*
X175781488Y-81018927D01*
X175806258Y-81014000D01*
X175983742Y-81014000D01*
X176008512Y-81018927D01*
G37*
G36*
X143787395Y-80365546D02*
G01*
X143960466Y-80437234D01*
X144037818Y-80488919D01*
X144116227Y-80541310D01*
X144248690Y-80673773D01*
X144248691Y-80673775D01*
X144352766Y-80829534D01*
X144424454Y-81002605D01*
X144461000Y-81186333D01*
X144461000Y-81373667D01*
X144424454Y-81557395D01*
X144352766Y-81730466D01*
X144352765Y-81730467D01*
X144248690Y-81886227D01*
X144116227Y-82018690D01*
X144037818Y-82071081D01*
X143960466Y-82122766D01*
X143787395Y-82194454D01*
X143603667Y-82231000D01*
X143416333Y-82231000D01*
X143232605Y-82194454D01*
X143059534Y-82122766D01*
X142982182Y-82071081D01*
X142903773Y-82018690D01*
X142771310Y-81886227D01*
X142667235Y-81730467D01*
X142667234Y-81730466D01*
X142595546Y-81557395D01*
X142559000Y-81373667D01*
X142559000Y-81186333D01*
X142595546Y-81002605D01*
X142667234Y-80829534D01*
X142771309Y-80673775D01*
X142771310Y-80673773D01*
X142903773Y-80541310D01*
X142982182Y-80488919D01*
X143059534Y-80437234D01*
X143232605Y-80365546D01*
X143416333Y-80329000D01*
X143603667Y-80329000D01*
X143787395Y-80365546D01*
G37*
G36*
X171092395Y-80365546D02*
G01*
X171265466Y-80437234D01*
X171342818Y-80488919D01*
X171421227Y-80541310D01*
X171553690Y-80673773D01*
X171553691Y-80673775D01*
X171657766Y-80829534D01*
X171729454Y-81002605D01*
X171766000Y-81186333D01*
X171766000Y-81373667D01*
X171729454Y-81557395D01*
X171657766Y-81730466D01*
X171657765Y-81730467D01*
X171553690Y-81886227D01*
X171421227Y-82018690D01*
X171342818Y-82071081D01*
X171265466Y-82122766D01*
X171092395Y-82194454D01*
X170908667Y-82231000D01*
X170721333Y-82231000D01*
X170537605Y-82194454D01*
X170364534Y-82122766D01*
X170287182Y-82071081D01*
X170208773Y-82018690D01*
X170076310Y-81886227D01*
X169972235Y-81730467D01*
X169972234Y-81730466D01*
X169900546Y-81557395D01*
X169864000Y-81373667D01*
X169864000Y-81186333D01*
X169900546Y-81002605D01*
X169972234Y-80829534D01*
X170076309Y-80673775D01*
X170076310Y-80673773D01*
X170208773Y-80541310D01*
X170287182Y-80488919D01*
X170364534Y-80437234D01*
X170537605Y-80365546D01*
X170721333Y-80329000D01*
X170908667Y-80329000D01*
X171092395Y-80365546D01*
G37*
G36*
X166012395Y-80365546D02*
G01*
X166185466Y-80437234D01*
X166262818Y-80488919D01*
X166341227Y-80541310D01*
X166473690Y-80673773D01*
X166473691Y-80673775D01*
X166577766Y-80829534D01*
X166649454Y-81002605D01*
X166686000Y-81186333D01*
X166686000Y-81373667D01*
X166649454Y-81557395D01*
X166577766Y-81730466D01*
X166577765Y-81730467D01*
X166473690Y-81886227D01*
X166341227Y-82018690D01*
X166262818Y-82071081D01*
X166185466Y-82122766D01*
X166012395Y-82194454D01*
X165828667Y-82231000D01*
X165641333Y-82231000D01*
X165457605Y-82194454D01*
X165284534Y-82122766D01*
X165207182Y-82071081D01*
X165128773Y-82018690D01*
X164996310Y-81886227D01*
X164892235Y-81730467D01*
X164892234Y-81730466D01*
X164820546Y-81557395D01*
X164784000Y-81373667D01*
X164784000Y-81186333D01*
X164820546Y-81002605D01*
X164892234Y-80829534D01*
X164996309Y-80673775D01*
X164996310Y-80673773D01*
X165128773Y-80541310D01*
X165207182Y-80488919D01*
X165284534Y-80437234D01*
X165457605Y-80365546D01*
X165641333Y-80329000D01*
X165828667Y-80329000D01*
X166012395Y-80365546D01*
G37*
G36*
X129817395Y-80365546D02*
G01*
X129990466Y-80437234D01*
X130067818Y-80488919D01*
X130146227Y-80541310D01*
X130278690Y-80673773D01*
X130278691Y-80673775D01*
X130382766Y-80829534D01*
X130454454Y-81002605D01*
X130491000Y-81186333D01*
X130491000Y-81373667D01*
X130454454Y-81557395D01*
X130382766Y-81730466D01*
X130382765Y-81730467D01*
X130278690Y-81886227D01*
X130146227Y-82018690D01*
X130067818Y-82071081D01*
X129990466Y-82122766D01*
X129817395Y-82194454D01*
X129633667Y-82231000D01*
X129446333Y-82231000D01*
X129262605Y-82194454D01*
X129089534Y-82122766D01*
X129012182Y-82071081D01*
X128933773Y-82018690D01*
X128801310Y-81886227D01*
X128697235Y-81730467D01*
X128697234Y-81730466D01*
X128625546Y-81557395D01*
X128589000Y-81373667D01*
X128589000Y-81186333D01*
X128625546Y-81002605D01*
X128697234Y-80829534D01*
X128801309Y-80673775D01*
X128801310Y-80673773D01*
X128933773Y-80541310D01*
X129012182Y-80488919D01*
X129089534Y-80437234D01*
X129262605Y-80365546D01*
X129446333Y-80329000D01*
X129633667Y-80329000D01*
X129817395Y-80365546D01*
G37*
G36*
X157122395Y-80365546D02*
G01*
X157295466Y-80437234D01*
X157372818Y-80488919D01*
X157451227Y-80541310D01*
X157583690Y-80673773D01*
X157583691Y-80673775D01*
X157687766Y-80829534D01*
X157759454Y-81002605D01*
X157796000Y-81186333D01*
X157796000Y-81373667D01*
X157759454Y-81557395D01*
X157687766Y-81730466D01*
X157687765Y-81730467D01*
X157583690Y-81886227D01*
X157451227Y-82018690D01*
X157372818Y-82071081D01*
X157295466Y-82122766D01*
X157122395Y-82194454D01*
X156938667Y-82231000D01*
X156751333Y-82231000D01*
X156567605Y-82194454D01*
X156394534Y-82122766D01*
X156317182Y-82071081D01*
X156238773Y-82018690D01*
X156106310Y-81886227D01*
X156002235Y-81730467D01*
X156002234Y-81730466D01*
X155930546Y-81557395D01*
X155894000Y-81373667D01*
X155894000Y-81186333D01*
X155930546Y-81002605D01*
X156002234Y-80829534D01*
X156106309Y-80673775D01*
X156106310Y-80673773D01*
X156238773Y-80541310D01*
X156317182Y-80488919D01*
X156394534Y-80437234D01*
X156567605Y-80365546D01*
X156751333Y-80329000D01*
X156938667Y-80329000D01*
X157122395Y-80365546D01*
G37*
G36*
X152042395Y-80365546D02*
G01*
X152215466Y-80437234D01*
X152292818Y-80488919D01*
X152371227Y-80541310D01*
X152503690Y-80673773D01*
X152503691Y-80673775D01*
X152607766Y-80829534D01*
X152679454Y-81002605D01*
X152716000Y-81186333D01*
X152716000Y-81373667D01*
X152679454Y-81557395D01*
X152607766Y-81730466D01*
X152607765Y-81730467D01*
X152503690Y-81886227D01*
X152371227Y-82018690D01*
X152292818Y-82071081D01*
X152215466Y-82122766D01*
X152042395Y-82194454D01*
X151858667Y-82231000D01*
X151671333Y-82231000D01*
X151487605Y-82194454D01*
X151314534Y-82122766D01*
X151237182Y-82071081D01*
X151158773Y-82018690D01*
X151026310Y-81886227D01*
X150922235Y-81730467D01*
X150922234Y-81730466D01*
X150850546Y-81557395D01*
X150814000Y-81373667D01*
X150814000Y-81186333D01*
X150850546Y-81002605D01*
X150922234Y-80829534D01*
X151026309Y-80673775D01*
X151026310Y-80673773D01*
X151158773Y-80541310D01*
X151237182Y-80488919D01*
X151314534Y-80437234D01*
X151487605Y-80365546D01*
X151671333Y-80329000D01*
X151858667Y-80329000D01*
X152042395Y-80365546D01*
G37*
G36*
X148867395Y-80365546D02*
G01*
X149040466Y-80437234D01*
X149117818Y-80488919D01*
X149196227Y-80541310D01*
X149328690Y-80673773D01*
X149328691Y-80673775D01*
X149432766Y-80829534D01*
X149504454Y-81002605D01*
X149541000Y-81186333D01*
X149541000Y-81373667D01*
X149504454Y-81557395D01*
X149432766Y-81730466D01*
X149432765Y-81730467D01*
X149328690Y-81886227D01*
X149196227Y-82018690D01*
X149117818Y-82071081D01*
X149040466Y-82122766D01*
X148867395Y-82194454D01*
X148683667Y-82231000D01*
X148496333Y-82231000D01*
X148312605Y-82194454D01*
X148139534Y-82122766D01*
X148062182Y-82071081D01*
X147983773Y-82018690D01*
X147851310Y-81886227D01*
X147747235Y-81730467D01*
X147747234Y-81730466D01*
X147675546Y-81557395D01*
X147639000Y-81373667D01*
X147639000Y-81186333D01*
X147675546Y-81002605D01*
X147747234Y-80829534D01*
X147851309Y-80673775D01*
X147851310Y-80673773D01*
X147983773Y-80541310D01*
X148062182Y-80488919D01*
X148139534Y-80437234D01*
X148312605Y-80365546D01*
X148496333Y-80329000D01*
X148683667Y-80329000D01*
X148867395Y-80365546D01*
G37*
G36*
X134897395Y-80365546D02*
G01*
X135070466Y-80437234D01*
X135147818Y-80488919D01*
X135226227Y-80541310D01*
X135358690Y-80673773D01*
X135358691Y-80673775D01*
X135462766Y-80829534D01*
X135534454Y-81002605D01*
X135571000Y-81186333D01*
X135571000Y-81373667D01*
X135534454Y-81557395D01*
X135462766Y-81730466D01*
X135462765Y-81730467D01*
X135358690Y-81886227D01*
X135226227Y-82018690D01*
X135147818Y-82071081D01*
X135070466Y-82122766D01*
X134897395Y-82194454D01*
X134713667Y-82231000D01*
X134526333Y-82231000D01*
X134342605Y-82194454D01*
X134169534Y-82122766D01*
X134092182Y-82071081D01*
X134013773Y-82018690D01*
X133881310Y-81886227D01*
X133777235Y-81730467D01*
X133777234Y-81730466D01*
X133705546Y-81557395D01*
X133669000Y-81373667D01*
X133669000Y-81186333D01*
X133705546Y-81002605D01*
X133777234Y-80829534D01*
X133881309Y-80673775D01*
X133881310Y-80673773D01*
X134013773Y-80541310D01*
X134092182Y-80488919D01*
X134169534Y-80437234D01*
X134342605Y-80365546D01*
X134526333Y-80329000D01*
X134713667Y-80329000D01*
X134897395Y-80365546D01*
G37*
G36*
X146327395Y-79095546D02*
G01*
X146500466Y-79167234D01*
X146577818Y-79218919D01*
X146656227Y-79271310D01*
X146788690Y-79403773D01*
X146788691Y-79403775D01*
X146892766Y-79559534D01*
X146964454Y-79732605D01*
X147001000Y-79916333D01*
X147001000Y-80103667D01*
X146964454Y-80287395D01*
X146892766Y-80460466D01*
X146892765Y-80460467D01*
X146788690Y-80616227D01*
X146656227Y-80748690D01*
X146577818Y-80801081D01*
X146500466Y-80852766D01*
X146327395Y-80924454D01*
X146143667Y-80961000D01*
X145956333Y-80961000D01*
X145772605Y-80924454D01*
X145599534Y-80852766D01*
X145522182Y-80801081D01*
X145443773Y-80748690D01*
X145311310Y-80616227D01*
X145207235Y-80460467D01*
X145207234Y-80460466D01*
X145135546Y-80287395D01*
X145099000Y-80103667D01*
X145099000Y-79916333D01*
X145135546Y-79732605D01*
X145207234Y-79559534D01*
X145311309Y-79403775D01*
X145311310Y-79403773D01*
X145443773Y-79271310D01*
X145522182Y-79218919D01*
X145599534Y-79167234D01*
X145772605Y-79095546D01*
X145956333Y-79059000D01*
X146143667Y-79059000D01*
X146327395Y-79095546D01*
G37*
G36*
X154582395Y-79095546D02*
G01*
X154755466Y-79167234D01*
X154832818Y-79218919D01*
X154911227Y-79271310D01*
X155043690Y-79403773D01*
X155043691Y-79403775D01*
X155147766Y-79559534D01*
X155219454Y-79732605D01*
X155256000Y-79916333D01*
X155256000Y-80103667D01*
X155219454Y-80287395D01*
X155147766Y-80460466D01*
X155147765Y-80460467D01*
X155043690Y-80616227D01*
X154911227Y-80748690D01*
X154832818Y-80801081D01*
X154755466Y-80852766D01*
X154582395Y-80924454D01*
X154398667Y-80961000D01*
X154211333Y-80961000D01*
X154027605Y-80924454D01*
X153854534Y-80852766D01*
X153777182Y-80801081D01*
X153698773Y-80748690D01*
X153566310Y-80616227D01*
X153462235Y-80460467D01*
X153462234Y-80460466D01*
X153390546Y-80287395D01*
X153354000Y-80103667D01*
X153354000Y-79916333D01*
X153390546Y-79732605D01*
X153462234Y-79559534D01*
X153566309Y-79403775D01*
X153566310Y-79403773D01*
X153698773Y-79271310D01*
X153777182Y-79218919D01*
X153854534Y-79167234D01*
X154027605Y-79095546D01*
X154211333Y-79059000D01*
X154398667Y-79059000D01*
X154582395Y-79095546D01*
G37*
G36*
X170496000Y-79691000D02*
G01*
X168594000Y-79691000D01*
X168594000Y-77789000D01*
X170496000Y-77789000D01*
X170496000Y-79691000D01*
G37*
G36*
X133627395Y-77825546D02*
G01*
X133800466Y-77897234D01*
X133800467Y-77897235D01*
X133956227Y-78001310D01*
X134088690Y-78133773D01*
X134088691Y-78133775D01*
X134192766Y-78289534D01*
X134264454Y-78462605D01*
X134301000Y-78646333D01*
X134301000Y-78833667D01*
X134264454Y-79017395D01*
X134192766Y-79190466D01*
X134192765Y-79190467D01*
X134088690Y-79346227D01*
X133956227Y-79478690D01*
X133877818Y-79531081D01*
X133800466Y-79582766D01*
X133627395Y-79654454D01*
X133443667Y-79691000D01*
X133256333Y-79691000D01*
X133072605Y-79654454D01*
X132899534Y-79582766D01*
X132822182Y-79531081D01*
X132743773Y-79478690D01*
X132611310Y-79346227D01*
X132507235Y-79190467D01*
X132507234Y-79190466D01*
X132435546Y-79017395D01*
X132399000Y-78833667D01*
X132399000Y-78646333D01*
X132435546Y-78462605D01*
X132507234Y-78289534D01*
X132611309Y-78133775D01*
X132611310Y-78133773D01*
X132743773Y-78001310D01*
X132899533Y-77897235D01*
X132899534Y-77897234D01*
X133072605Y-77825546D01*
X133256333Y-77789000D01*
X133443667Y-77789000D01*
X133627395Y-77825546D01*
G37*
G36*
X131761000Y-79691000D02*
G01*
X129859000Y-79691000D01*
X129859000Y-77789000D01*
X131761000Y-77789000D01*
X131761000Y-79691000D01*
G37*
G36*
X167282395Y-77825546D02*
G01*
X167455466Y-77897234D01*
X167455467Y-77897235D01*
X167611227Y-78001310D01*
X167743690Y-78133773D01*
X167743691Y-78133775D01*
X167847766Y-78289534D01*
X167919454Y-78462605D01*
X167956000Y-78646333D01*
X167956000Y-78833667D01*
X167919454Y-79017395D01*
X167847766Y-79190466D01*
X167847765Y-79190467D01*
X167743690Y-79346227D01*
X167611227Y-79478690D01*
X167532818Y-79531081D01*
X167455466Y-79582766D01*
X167282395Y-79654454D01*
X167098667Y-79691000D01*
X166911333Y-79691000D01*
X166727605Y-79654454D01*
X166554534Y-79582766D01*
X166477182Y-79531081D01*
X166398773Y-79478690D01*
X166266310Y-79346227D01*
X166162235Y-79190467D01*
X166162234Y-79190466D01*
X166090546Y-79017395D01*
X166054000Y-78833667D01*
X166054000Y-78646333D01*
X166090546Y-78462605D01*
X166162234Y-78289534D01*
X166266309Y-78133775D01*
X166266310Y-78133773D01*
X166398773Y-78001310D01*
X166554533Y-77897235D01*
X166554534Y-77897234D01*
X166727605Y-77825546D01*
X166911333Y-77789000D01*
X167098667Y-77789000D01*
X167282395Y-77825546D01*
G37*
G36*
X147001000Y-78421000D02*
G01*
X145099000Y-78421000D01*
X145099000Y-76519000D01*
X147001000Y-76519000D01*
X147001000Y-78421000D01*
G37*
G36*
X155256000Y-78421000D02*
G01*
X153354000Y-78421000D01*
X153354000Y-76519000D01*
X155256000Y-76519000D01*
X155256000Y-78421000D01*
G37*
G36*
X176796778Y-75955547D02*
G01*
X176963224Y-76024491D01*
X177113022Y-76124583D01*
X177240417Y-76251978D01*
X177340509Y-76401776D01*
X177409453Y-76568222D01*
X177444600Y-76744918D01*
X177444600Y-76925082D01*
X177409453Y-77101778D01*
X177340509Y-77268224D01*
X177240417Y-77418022D01*
X177113022Y-77545417D01*
X176963224Y-77645509D01*
X176796778Y-77714453D01*
X176620082Y-77749600D01*
X176439918Y-77749600D01*
X176263222Y-77714453D01*
X176096776Y-77645509D01*
X175946978Y-77545417D01*
X175819583Y-77418022D01*
X175719491Y-77268224D01*
X175650547Y-77101778D01*
X175615400Y-76925082D01*
X175615400Y-76744918D01*
X175650547Y-76568222D01*
X175719491Y-76401776D01*
X175819583Y-76251978D01*
X175946978Y-76124583D01*
X176096776Y-76024491D01*
X176263222Y-75955547D01*
X176439918Y-75920400D01*
X176620082Y-75920400D01*
X176796778Y-75955547D01*
G37*
G36*
X174256778Y-75955547D02*
G01*
X174423224Y-76024491D01*
X174573022Y-76124583D01*
X174700417Y-76251978D01*
X174800509Y-76401776D01*
X174869453Y-76568222D01*
X174904600Y-76744918D01*
X174904600Y-76925082D01*
X174869453Y-77101778D01*
X174800509Y-77268224D01*
X174700417Y-77418022D01*
X174573022Y-77545417D01*
X174423224Y-77645509D01*
X174256778Y-77714453D01*
X174080082Y-77749600D01*
X173899918Y-77749600D01*
X173723222Y-77714453D01*
X173556776Y-77645509D01*
X173406978Y-77545417D01*
X173279583Y-77418022D01*
X173179491Y-77268224D01*
X173110547Y-77101778D01*
X173075400Y-76925082D01*
X173075400Y-76744918D01*
X173110547Y-76568222D01*
X173179491Y-76401776D01*
X173279583Y-76251978D01*
X173406978Y-76124583D01*
X173556776Y-76024491D01*
X173723222Y-75955547D01*
X173899918Y-75920400D01*
X174080082Y-75920400D01*
X174256778Y-75955547D01*
G37*
G36*
X166012395Y-75285546D02*
G01*
X166185466Y-75357234D01*
X166185467Y-75357235D01*
X166341227Y-75461310D01*
X166473690Y-75593773D01*
X166473691Y-75593775D01*
X166577766Y-75749534D01*
X166649454Y-75922605D01*
X166686000Y-76106333D01*
X166686000Y-76293667D01*
X166649454Y-76477395D01*
X166577766Y-76650466D01*
X166577765Y-76650467D01*
X166473690Y-76806227D01*
X166341227Y-76938690D01*
X166262818Y-76991081D01*
X166185466Y-77042766D01*
X166012395Y-77114454D01*
X165828667Y-77151000D01*
X165641333Y-77151000D01*
X165457605Y-77114454D01*
X165284534Y-77042766D01*
X165207182Y-76991081D01*
X165128773Y-76938690D01*
X164996310Y-76806227D01*
X164892235Y-76650467D01*
X164892234Y-76650466D01*
X164820546Y-76477395D01*
X164784000Y-76293667D01*
X164784000Y-76106333D01*
X164820546Y-75922605D01*
X164892234Y-75749534D01*
X164996309Y-75593775D01*
X164996310Y-75593773D01*
X165128773Y-75461310D01*
X165284533Y-75357235D01*
X165284534Y-75357234D01*
X165457605Y-75285546D01*
X165641333Y-75249000D01*
X165828667Y-75249000D01*
X166012395Y-75285546D01*
G37*
G36*
X157122395Y-75285546D02*
G01*
X157295466Y-75357234D01*
X157295467Y-75357235D01*
X157451227Y-75461310D01*
X157583690Y-75593773D01*
X157583691Y-75593775D01*
X157687766Y-75749534D01*
X157759454Y-75922605D01*
X157796000Y-76106333D01*
X157796000Y-76293667D01*
X157759454Y-76477395D01*
X157687766Y-76650466D01*
X157687765Y-76650467D01*
X157583690Y-76806227D01*
X157451227Y-76938690D01*
X157372818Y-76991081D01*
X157295466Y-77042766D01*
X157122395Y-77114454D01*
X156938667Y-77151000D01*
X156751333Y-77151000D01*
X156567605Y-77114454D01*
X156394534Y-77042766D01*
X156317182Y-76991081D01*
X156238773Y-76938690D01*
X156106310Y-76806227D01*
X156002235Y-76650467D01*
X156002234Y-76650466D01*
X155930546Y-76477395D01*
X155894000Y-76293667D01*
X155894000Y-76106333D01*
X155930546Y-75922605D01*
X156002234Y-75749534D01*
X156106309Y-75593775D01*
X156106310Y-75593773D01*
X156238773Y-75461310D01*
X156394533Y-75357235D01*
X156394534Y-75357234D01*
X156567605Y-75285546D01*
X156751333Y-75249000D01*
X156938667Y-75249000D01*
X157122395Y-75285546D01*
G37*
G36*
X152042395Y-75285546D02*
G01*
X152215466Y-75357234D01*
X152215467Y-75357235D01*
X152371227Y-75461310D01*
X152503690Y-75593773D01*
X152503691Y-75593775D01*
X152607766Y-75749534D01*
X152679454Y-75922605D01*
X152716000Y-76106333D01*
X152716000Y-76293667D01*
X152679454Y-76477395D01*
X152607766Y-76650466D01*
X152607765Y-76650467D01*
X152503690Y-76806227D01*
X152371227Y-76938690D01*
X152292818Y-76991081D01*
X152215466Y-77042766D01*
X152042395Y-77114454D01*
X151858667Y-77151000D01*
X151671333Y-77151000D01*
X151487605Y-77114454D01*
X151314534Y-77042766D01*
X151237182Y-76991081D01*
X151158773Y-76938690D01*
X151026310Y-76806227D01*
X150922235Y-76650467D01*
X150922234Y-76650466D01*
X150850546Y-76477395D01*
X150814000Y-76293667D01*
X150814000Y-76106333D01*
X150850546Y-75922605D01*
X150922234Y-75749534D01*
X151026309Y-75593775D01*
X151026310Y-75593773D01*
X151158773Y-75461310D01*
X151314533Y-75357235D01*
X151314534Y-75357234D01*
X151487605Y-75285546D01*
X151671333Y-75249000D01*
X151858667Y-75249000D01*
X152042395Y-75285546D01*
G37*
G36*
X148867395Y-75285546D02*
G01*
X149040466Y-75357234D01*
X149040467Y-75357235D01*
X149196227Y-75461310D01*
X149328690Y-75593773D01*
X149328691Y-75593775D01*
X149432766Y-75749534D01*
X149504454Y-75922605D01*
X149541000Y-76106333D01*
X149541000Y-76293667D01*
X149504454Y-76477395D01*
X149432766Y-76650466D01*
X149432765Y-76650467D01*
X149328690Y-76806227D01*
X149196227Y-76938690D01*
X149117818Y-76991081D01*
X149040466Y-77042766D01*
X148867395Y-77114454D01*
X148683667Y-77151000D01*
X148496333Y-77151000D01*
X148312605Y-77114454D01*
X148139534Y-77042766D01*
X148062182Y-76991081D01*
X147983773Y-76938690D01*
X147851310Y-76806227D01*
X147747235Y-76650467D01*
X147747234Y-76650466D01*
X147675546Y-76477395D01*
X147639000Y-76293667D01*
X147639000Y-76106333D01*
X147675546Y-75922605D01*
X147747234Y-75749534D01*
X147851309Y-75593775D01*
X147851310Y-75593773D01*
X147983773Y-75461310D01*
X148139533Y-75357235D01*
X148139534Y-75357234D01*
X148312605Y-75285546D01*
X148496333Y-75249000D01*
X148683667Y-75249000D01*
X148867395Y-75285546D01*
G37*
G36*
X143787395Y-75285546D02*
G01*
X143960466Y-75357234D01*
X143960467Y-75357235D01*
X144116227Y-75461310D01*
X144248690Y-75593773D01*
X144248691Y-75593775D01*
X144352766Y-75749534D01*
X144424454Y-75922605D01*
X144461000Y-76106333D01*
X144461000Y-76293667D01*
X144424454Y-76477395D01*
X144352766Y-76650466D01*
X144352765Y-76650467D01*
X144248690Y-76806227D01*
X144116227Y-76938690D01*
X144037818Y-76991081D01*
X143960466Y-77042766D01*
X143787395Y-77114454D01*
X143603667Y-77151000D01*
X143416333Y-77151000D01*
X143232605Y-77114454D01*
X143059534Y-77042766D01*
X142982182Y-76991081D01*
X142903773Y-76938690D01*
X142771310Y-76806227D01*
X142667235Y-76650467D01*
X142667234Y-76650466D01*
X142595546Y-76477395D01*
X142559000Y-76293667D01*
X142559000Y-76106333D01*
X142595546Y-75922605D01*
X142667234Y-75749534D01*
X142771309Y-75593775D01*
X142771310Y-75593773D01*
X142903773Y-75461310D01*
X143059533Y-75357235D01*
X143059534Y-75357234D01*
X143232605Y-75285546D01*
X143416333Y-75249000D01*
X143603667Y-75249000D01*
X143787395Y-75285546D01*
G37*
G36*
X171092395Y-75285546D02*
G01*
X171265466Y-75357234D01*
X171265467Y-75357235D01*
X171421227Y-75461310D01*
X171553690Y-75593773D01*
X171553691Y-75593775D01*
X171657766Y-75749534D01*
X171729454Y-75922605D01*
X171766000Y-76106333D01*
X171766000Y-76293667D01*
X171729454Y-76477395D01*
X171657766Y-76650466D01*
X171657765Y-76650467D01*
X171553690Y-76806227D01*
X171421227Y-76938690D01*
X171342818Y-76991081D01*
X171265466Y-77042766D01*
X171092395Y-77114454D01*
X170908667Y-77151000D01*
X170721333Y-77151000D01*
X170537605Y-77114454D01*
X170364534Y-77042766D01*
X170287182Y-76991081D01*
X170208773Y-76938690D01*
X170076310Y-76806227D01*
X169972235Y-76650467D01*
X169972234Y-76650466D01*
X169900546Y-76477395D01*
X169864000Y-76293667D01*
X169864000Y-76106333D01*
X169900546Y-75922605D01*
X169972234Y-75749534D01*
X170076309Y-75593775D01*
X170076310Y-75593773D01*
X170208773Y-75461310D01*
X170364533Y-75357235D01*
X170364534Y-75357234D01*
X170537605Y-75285546D01*
X170721333Y-75249000D01*
X170908667Y-75249000D01*
X171092395Y-75285546D01*
G37*
G36*
X134897395Y-75285546D02*
G01*
X135070466Y-75357234D01*
X135070467Y-75357235D01*
X135226227Y-75461310D01*
X135358690Y-75593773D01*
X135358691Y-75593775D01*
X135462766Y-75749534D01*
X135534454Y-75922605D01*
X135571000Y-76106333D01*
X135571000Y-76293667D01*
X135534454Y-76477395D01*
X135462766Y-76650466D01*
X135462765Y-76650467D01*
X135358690Y-76806227D01*
X135226227Y-76938690D01*
X135147818Y-76991081D01*
X135070466Y-77042766D01*
X134897395Y-77114454D01*
X134713667Y-77151000D01*
X134526333Y-77151000D01*
X134342605Y-77114454D01*
X134169534Y-77042766D01*
X134092182Y-76991081D01*
X134013773Y-76938690D01*
X133881310Y-76806227D01*
X133777235Y-76650467D01*
X133777234Y-76650466D01*
X133705546Y-76477395D01*
X133669000Y-76293667D01*
X133669000Y-76106333D01*
X133705546Y-75922605D01*
X133777234Y-75749534D01*
X133881309Y-75593775D01*
X133881310Y-75593773D01*
X134013773Y-75461310D01*
X134169533Y-75357235D01*
X134169534Y-75357234D01*
X134342605Y-75285546D01*
X134526333Y-75249000D01*
X134713667Y-75249000D01*
X134897395Y-75285546D01*
G37*
G36*
X129817395Y-75285546D02*
G01*
X129990466Y-75357234D01*
X129990467Y-75357235D01*
X130146227Y-75461310D01*
X130278690Y-75593773D01*
X130278691Y-75593775D01*
X130382766Y-75749534D01*
X130454454Y-75922605D01*
X130491000Y-76106333D01*
X130491000Y-76293667D01*
X130454454Y-76477395D01*
X130382766Y-76650466D01*
X130382765Y-76650467D01*
X130278690Y-76806227D01*
X130146227Y-76938690D01*
X130067818Y-76991081D01*
X129990466Y-77042766D01*
X129817395Y-77114454D01*
X129633667Y-77151000D01*
X129446333Y-77151000D01*
X129262605Y-77114454D01*
X129089534Y-77042766D01*
X129012182Y-76991081D01*
X128933773Y-76938690D01*
X128801310Y-76806227D01*
X128697235Y-76650467D01*
X128697234Y-76650466D01*
X128625546Y-76477395D01*
X128589000Y-76293667D01*
X128589000Y-76106333D01*
X128625546Y-75922605D01*
X128697234Y-75749534D01*
X128801309Y-75593775D01*
X128801310Y-75593773D01*
X128933773Y-75461310D01*
X129089533Y-75357235D01*
X129089534Y-75357234D01*
X129262605Y-75285546D01*
X129446333Y-75249000D01*
X129633667Y-75249000D01*
X129817395Y-75285546D01*
G37*
G36*
X176796778Y-73415547D02*
G01*
X176963224Y-73484491D01*
X177113022Y-73584583D01*
X177240417Y-73711978D01*
X177340509Y-73861776D01*
X177409453Y-74028222D01*
X177444600Y-74204918D01*
X177444600Y-74385082D01*
X177409453Y-74561778D01*
X177340509Y-74728224D01*
X177240417Y-74878022D01*
X177113022Y-75005417D01*
X176963224Y-75105509D01*
X176796778Y-75174453D01*
X176620082Y-75209600D01*
X176439918Y-75209600D01*
X176263222Y-75174453D01*
X176096776Y-75105509D01*
X175946978Y-75005417D01*
X175819583Y-74878022D01*
X175719491Y-74728224D01*
X175650547Y-74561778D01*
X175615400Y-74385082D01*
X175615400Y-74204918D01*
X175650547Y-74028222D01*
X175719491Y-73861776D01*
X175819583Y-73711978D01*
X175946978Y-73584583D01*
X176096776Y-73484491D01*
X176263222Y-73415547D01*
X176439918Y-73380400D01*
X176620082Y-73380400D01*
X176796778Y-73415547D01*
G37*
G36*
X174256778Y-73415547D02*
G01*
X174423224Y-73484491D01*
X174573022Y-73584583D01*
X174700417Y-73711978D01*
X174800509Y-73861776D01*
X174869453Y-74028222D01*
X174904600Y-74204918D01*
X174904600Y-74385082D01*
X174869453Y-74561778D01*
X174800509Y-74728224D01*
X174700417Y-74878022D01*
X174573022Y-75005417D01*
X174423224Y-75105509D01*
X174256778Y-75174453D01*
X174080082Y-75209600D01*
X173899918Y-75209600D01*
X173723222Y-75174453D01*
X173556776Y-75105509D01*
X173406978Y-75005417D01*
X173279583Y-74878022D01*
X173179491Y-74728224D01*
X173110547Y-74561778D01*
X173075400Y-74385082D01*
X173075400Y-74204918D01*
X173110547Y-74028222D01*
X173179491Y-73861776D01*
X173279583Y-73711978D01*
X173406978Y-73584583D01*
X173556776Y-73484491D01*
X173723222Y-73415547D01*
X173899918Y-73380400D01*
X174080082Y-73380400D01*
X174256778Y-73415547D01*
G37*
G36*
X152677395Y-72110546D02*
G01*
X152850466Y-72182234D01*
X152927818Y-72233919D01*
X153006227Y-72286310D01*
X153138690Y-72418773D01*
X153138691Y-72418775D01*
X153242766Y-72574534D01*
X153314454Y-72747605D01*
X153351000Y-72931333D01*
X153351000Y-73118667D01*
X153314454Y-73302395D01*
X153242766Y-73475466D01*
X153236735Y-73484492D01*
X153138690Y-73631227D01*
X153006227Y-73763690D01*
X152927818Y-73816081D01*
X152850466Y-73867766D01*
X152677395Y-73939454D01*
X152493667Y-73976000D01*
X152306333Y-73976000D01*
X152122605Y-73939454D01*
X151949534Y-73867766D01*
X151872182Y-73816081D01*
X151793773Y-73763690D01*
X151661310Y-73631227D01*
X151563265Y-73484492D01*
X151557234Y-73475466D01*
X151485546Y-73302395D01*
X151449000Y-73118667D01*
X151449000Y-72931333D01*
X151485546Y-72747605D01*
X151557234Y-72574534D01*
X151661309Y-72418775D01*
X151661310Y-72418773D01*
X151793773Y-72286310D01*
X151872182Y-72233919D01*
X151949534Y-72182234D01*
X152122605Y-72110546D01*
X152306333Y-72074000D01*
X152493667Y-72074000D01*
X152677395Y-72110546D01*
G37*
G36*
X160932395Y-72110546D02*
G01*
X161105466Y-72182234D01*
X161182818Y-72233919D01*
X161261227Y-72286310D01*
X161393690Y-72418773D01*
X161393691Y-72418775D01*
X161497766Y-72574534D01*
X161569454Y-72747605D01*
X161606000Y-72931333D01*
X161606000Y-73118667D01*
X161569454Y-73302395D01*
X161497766Y-73475466D01*
X161491735Y-73484492D01*
X161393690Y-73631227D01*
X161261227Y-73763690D01*
X161182818Y-73816081D01*
X161105466Y-73867766D01*
X160932395Y-73939454D01*
X160748667Y-73976000D01*
X160561333Y-73976000D01*
X160377605Y-73939454D01*
X160204534Y-73867766D01*
X160127182Y-73816081D01*
X160048773Y-73763690D01*
X159916310Y-73631227D01*
X159818265Y-73484492D01*
X159812234Y-73475466D01*
X159740546Y-73302395D01*
X159704000Y-73118667D01*
X159704000Y-72931333D01*
X159740546Y-72747605D01*
X159812234Y-72574534D01*
X159916309Y-72418775D01*
X159916310Y-72418773D01*
X160048773Y-72286310D01*
X160127182Y-72233919D01*
X160204534Y-72182234D01*
X160377605Y-72110546D01*
X160561333Y-72074000D01*
X160748667Y-72074000D01*
X160932395Y-72110546D01*
G37*
G36*
X138707395Y-72110546D02*
G01*
X138880466Y-72182234D01*
X138957818Y-72233919D01*
X139036227Y-72286310D01*
X139168690Y-72418773D01*
X139168691Y-72418775D01*
X139272766Y-72574534D01*
X139344454Y-72747605D01*
X139381000Y-72931333D01*
X139381000Y-73118667D01*
X139344454Y-73302395D01*
X139272766Y-73475466D01*
X139266735Y-73484492D01*
X139168690Y-73631227D01*
X139036227Y-73763690D01*
X138957818Y-73816081D01*
X138880466Y-73867766D01*
X138707395Y-73939454D01*
X138523667Y-73976000D01*
X138336333Y-73976000D01*
X138152605Y-73939454D01*
X137979534Y-73867766D01*
X137902182Y-73816081D01*
X137823773Y-73763690D01*
X137691310Y-73631227D01*
X137593265Y-73484492D01*
X137587234Y-73475466D01*
X137515546Y-73302395D01*
X137479000Y-73118667D01*
X137479000Y-72931333D01*
X137515546Y-72747605D01*
X137587234Y-72574534D01*
X137691309Y-72418775D01*
X137691310Y-72418773D01*
X137823773Y-72286310D01*
X137902182Y-72233919D01*
X137979534Y-72182234D01*
X138152605Y-72110546D01*
X138336333Y-72074000D01*
X138523667Y-72074000D01*
X138707395Y-72110546D01*
G37*
G36*
X133627395Y-72110546D02*
G01*
X133800466Y-72182234D01*
X133877818Y-72233919D01*
X133956227Y-72286310D01*
X134088690Y-72418773D01*
X134088691Y-72418775D01*
X134192766Y-72574534D01*
X134264454Y-72747605D01*
X134301000Y-72931333D01*
X134301000Y-73118667D01*
X134264454Y-73302395D01*
X134192766Y-73475466D01*
X134186735Y-73484492D01*
X134088690Y-73631227D01*
X133956227Y-73763690D01*
X133877818Y-73816081D01*
X133800466Y-73867766D01*
X133627395Y-73939454D01*
X133443667Y-73976000D01*
X133256333Y-73976000D01*
X133072605Y-73939454D01*
X132899534Y-73867766D01*
X132822182Y-73816081D01*
X132743773Y-73763690D01*
X132611310Y-73631227D01*
X132513265Y-73484492D01*
X132507234Y-73475466D01*
X132435546Y-73302395D01*
X132399000Y-73118667D01*
X132399000Y-72931333D01*
X132435546Y-72747605D01*
X132507234Y-72574534D01*
X132611309Y-72418775D01*
X132611310Y-72418773D01*
X132743773Y-72286310D01*
X132822182Y-72233919D01*
X132899534Y-72182234D01*
X133072605Y-72110546D01*
X133256333Y-72074000D01*
X133443667Y-72074000D01*
X133627395Y-72110546D01*
G37*
G36*
X155852395Y-72110546D02*
G01*
X156025466Y-72182234D01*
X156102818Y-72233919D01*
X156181227Y-72286310D01*
X156313690Y-72418773D01*
X156313691Y-72418775D01*
X156417766Y-72574534D01*
X156489454Y-72747605D01*
X156526000Y-72931333D01*
X156526000Y-73118667D01*
X156489454Y-73302395D01*
X156417766Y-73475466D01*
X156411735Y-73484492D01*
X156313690Y-73631227D01*
X156181227Y-73763690D01*
X156102818Y-73816081D01*
X156025466Y-73867766D01*
X155852395Y-73939454D01*
X155668667Y-73976000D01*
X155481333Y-73976000D01*
X155297605Y-73939454D01*
X155124534Y-73867766D01*
X155047182Y-73816081D01*
X154968773Y-73763690D01*
X154836310Y-73631227D01*
X154738265Y-73484492D01*
X154732234Y-73475466D01*
X154660546Y-73302395D01*
X154624000Y-73118667D01*
X154624000Y-72931333D01*
X154660546Y-72747605D01*
X154732234Y-72574534D01*
X154836309Y-72418775D01*
X154836310Y-72418773D01*
X154968773Y-72286310D01*
X155047182Y-72233919D01*
X155124534Y-72182234D01*
X155297605Y-72110546D01*
X155481333Y-72074000D01*
X155668667Y-72074000D01*
X155852395Y-72110546D01*
G37*
G36*
X147597395Y-72110546D02*
G01*
X147770466Y-72182234D01*
X147847818Y-72233919D01*
X147926227Y-72286310D01*
X148058690Y-72418773D01*
X148058691Y-72418775D01*
X148162766Y-72574534D01*
X148234454Y-72747605D01*
X148271000Y-72931333D01*
X148271000Y-73118667D01*
X148234454Y-73302395D01*
X148162766Y-73475466D01*
X148156735Y-73484492D01*
X148058690Y-73631227D01*
X147926227Y-73763690D01*
X147847818Y-73816081D01*
X147770466Y-73867766D01*
X147597395Y-73939454D01*
X147413667Y-73976000D01*
X147226333Y-73976000D01*
X147042605Y-73939454D01*
X146869534Y-73867766D01*
X146792182Y-73816081D01*
X146713773Y-73763690D01*
X146581310Y-73631227D01*
X146483265Y-73484492D01*
X146477234Y-73475466D01*
X146405546Y-73302395D01*
X146369000Y-73118667D01*
X146369000Y-72931333D01*
X146405546Y-72747605D01*
X146477234Y-72574534D01*
X146581309Y-72418775D01*
X146581310Y-72418773D01*
X146713773Y-72286310D01*
X146792182Y-72233919D01*
X146869534Y-72182234D01*
X147042605Y-72110546D01*
X147226333Y-72074000D01*
X147413667Y-72074000D01*
X147597395Y-72110546D01*
G37*
G36*
X150137395Y-70840546D02*
G01*
X150310466Y-70912234D01*
X150358742Y-70944491D01*
X150466227Y-71016310D01*
X150598690Y-71148773D01*
X150598691Y-71148775D01*
X150702766Y-71304534D01*
X150774454Y-71477605D01*
X150811000Y-71661333D01*
X150811000Y-71848667D01*
X150774454Y-72032395D01*
X150702766Y-72205466D01*
X150702765Y-72205467D01*
X150598690Y-72361227D01*
X150466227Y-72493690D01*
X150387818Y-72546081D01*
X150310466Y-72597766D01*
X150137395Y-72669454D01*
X149953667Y-72706000D01*
X149766333Y-72706000D01*
X149582605Y-72669454D01*
X149409534Y-72597766D01*
X149332182Y-72546081D01*
X149253773Y-72493690D01*
X149121310Y-72361227D01*
X149017235Y-72205467D01*
X149017234Y-72205466D01*
X148945546Y-72032395D01*
X148909000Y-71848667D01*
X148909000Y-71661333D01*
X148945546Y-71477605D01*
X149017234Y-71304534D01*
X149121309Y-71148775D01*
X149121310Y-71148773D01*
X149253773Y-71016310D01*
X149361258Y-70944491D01*
X149409534Y-70912234D01*
X149582605Y-70840546D01*
X149766333Y-70804000D01*
X149953667Y-70804000D01*
X150137395Y-70840546D01*
G37*
G36*
X176796778Y-70875547D02*
G01*
X176963224Y-70944491D01*
X177113022Y-71044583D01*
X177240417Y-71171978D01*
X177340509Y-71321776D01*
X177409453Y-71488222D01*
X177444600Y-71664918D01*
X177444600Y-71845082D01*
X177409453Y-72021778D01*
X177340509Y-72188224D01*
X177240417Y-72338022D01*
X177113022Y-72465417D01*
X176963224Y-72565509D01*
X176796778Y-72634453D01*
X176620082Y-72669600D01*
X176439918Y-72669600D01*
X176263222Y-72634453D01*
X176096776Y-72565509D01*
X175946978Y-72465417D01*
X175819583Y-72338022D01*
X175719491Y-72188224D01*
X175650547Y-72021778D01*
X175615400Y-71845082D01*
X175615400Y-71664918D01*
X175650547Y-71488222D01*
X175719491Y-71321776D01*
X175819583Y-71171978D01*
X175946978Y-71044583D01*
X176096776Y-70944491D01*
X176263222Y-70875547D01*
X176439918Y-70840400D01*
X176620082Y-70840400D01*
X176796778Y-70875547D01*
G37*
G36*
X174256778Y-70875547D02*
G01*
X174423224Y-70944491D01*
X174573022Y-71044583D01*
X174700417Y-71171978D01*
X174800509Y-71321776D01*
X174869453Y-71488222D01*
X174904600Y-71664918D01*
X174904600Y-71845082D01*
X174869453Y-72021778D01*
X174800509Y-72188224D01*
X174700417Y-72338022D01*
X174573022Y-72465417D01*
X174423224Y-72565509D01*
X174256778Y-72634453D01*
X174080082Y-72669600D01*
X173899918Y-72669600D01*
X173723222Y-72634453D01*
X173556776Y-72565509D01*
X173406978Y-72465417D01*
X173279583Y-72338022D01*
X173179491Y-72188224D01*
X173110547Y-72021778D01*
X173075400Y-71845082D01*
X173075400Y-71664918D01*
X173110547Y-71488222D01*
X173179491Y-71321776D01*
X173279583Y-71171978D01*
X173406978Y-71044583D01*
X173556776Y-70944491D01*
X173723222Y-70875547D01*
X173899918Y-70840400D01*
X174080082Y-70840400D01*
X174256778Y-70875547D01*
G37*
G36*
X137437395Y-69570546D02*
G01*
X137610466Y-69642234D01*
X137619432Y-69648225D01*
X137766227Y-69746310D01*
X137898690Y-69878773D01*
X137898691Y-69878775D01*
X138002766Y-70034534D01*
X138074454Y-70207605D01*
X138111000Y-70391333D01*
X138111000Y-70578667D01*
X138074454Y-70762395D01*
X138002766Y-70935466D01*
X137996735Y-70944492D01*
X137898690Y-71091227D01*
X137766227Y-71223690D01*
X137687818Y-71276081D01*
X137610466Y-71327766D01*
X137437395Y-71399454D01*
X137253667Y-71436000D01*
X137066333Y-71436000D01*
X136882605Y-71399454D01*
X136709534Y-71327766D01*
X136632182Y-71276081D01*
X136553773Y-71223690D01*
X136421310Y-71091227D01*
X136323265Y-70944492D01*
X136317234Y-70935466D01*
X136245546Y-70762395D01*
X136209000Y-70578667D01*
X136209000Y-70391333D01*
X136245546Y-70207605D01*
X136317234Y-70034534D01*
X136421309Y-69878775D01*
X136421310Y-69878773D01*
X136553773Y-69746310D01*
X136700568Y-69648225D01*
X136709534Y-69642234D01*
X136882605Y-69570546D01*
X137066333Y-69534000D01*
X137253667Y-69534000D01*
X137437395Y-69570546D01*
G37*
G36*
X135571000Y-71436000D02*
G01*
X133669000Y-71436000D01*
X133669000Y-69534000D01*
X135571000Y-69534000D01*
X135571000Y-71436000D01*
G37*
G36*
X157122395Y-69570546D02*
G01*
X157295466Y-69642234D01*
X157304432Y-69648225D01*
X157451227Y-69746310D01*
X157583690Y-69878773D01*
X157583691Y-69878775D01*
X157687766Y-70034534D01*
X157759454Y-70207605D01*
X157796000Y-70391333D01*
X157796000Y-70578667D01*
X157759454Y-70762395D01*
X157687766Y-70935466D01*
X157681735Y-70944492D01*
X157583690Y-71091227D01*
X157451227Y-71223690D01*
X157372818Y-71276081D01*
X157295466Y-71327766D01*
X157122395Y-71399454D01*
X156938667Y-71436000D01*
X156751333Y-71436000D01*
X156567605Y-71399454D01*
X156394534Y-71327766D01*
X156317182Y-71276081D01*
X156238773Y-71223690D01*
X156106310Y-71091227D01*
X156008265Y-70944492D01*
X156002234Y-70935466D01*
X155930546Y-70762395D01*
X155894000Y-70578667D01*
X155894000Y-70391333D01*
X155930546Y-70207605D01*
X156002234Y-70034534D01*
X156106309Y-69878775D01*
X156106310Y-69878773D01*
X156238773Y-69746310D01*
X156385568Y-69648225D01*
X156394534Y-69642234D01*
X156567605Y-69570546D01*
X156751333Y-69534000D01*
X156938667Y-69534000D01*
X157122395Y-69570546D01*
G37*
G36*
X160336000Y-71436000D02*
G01*
X158434000Y-71436000D01*
X158434000Y-69534000D01*
X160336000Y-69534000D01*
X160336000Y-71436000D01*
G37*
G36*
X150811000Y-70166000D02*
G01*
X148909000Y-70166000D01*
X148909000Y-68264000D01*
X150811000Y-68264000D01*
X150811000Y-70166000D01*
G37*
G36*
X174256778Y-68335547D02*
G01*
X174423224Y-68404491D01*
X174573022Y-68504583D01*
X174700417Y-68631978D01*
X174800509Y-68781776D01*
X174869453Y-68948222D01*
X174904600Y-69124918D01*
X174904600Y-69305082D01*
X174869453Y-69481778D01*
X174800509Y-69648224D01*
X174700417Y-69798022D01*
X174573022Y-69925417D01*
X174423224Y-70025509D01*
X174256778Y-70094453D01*
X174080082Y-70129600D01*
X173899918Y-70129600D01*
X173723222Y-70094453D01*
X173556776Y-70025509D01*
X173406978Y-69925417D01*
X173279583Y-69798022D01*
X173179491Y-69648224D01*
X173110547Y-69481778D01*
X173075400Y-69305082D01*
X173075400Y-69124918D01*
X173110547Y-68948222D01*
X173179491Y-68781776D01*
X173279583Y-68631978D01*
X173406978Y-68504583D01*
X173556776Y-68404491D01*
X173723222Y-68335547D01*
X173899918Y-68300400D01*
X174080082Y-68300400D01*
X174256778Y-68335547D01*
G37*
G36*
X177444600Y-70129600D02*
G01*
X175615400Y-70129600D01*
X175615400Y-68300400D01*
X177444600Y-68300400D01*
X177444600Y-70129600D01*
G37*
G36*
X133627395Y-67030546D02*
G01*
X133800466Y-67102234D01*
X133800467Y-67102235D01*
X133956227Y-67206310D01*
X134088690Y-67338773D01*
X134088691Y-67338775D01*
X134192766Y-67494534D01*
X134264454Y-67667605D01*
X134301000Y-67851333D01*
X134301000Y-68038667D01*
X134264454Y-68222395D01*
X134192766Y-68395466D01*
X134186735Y-68404492D01*
X134088690Y-68551227D01*
X133956227Y-68683690D01*
X133877818Y-68736081D01*
X133800466Y-68787766D01*
X133627395Y-68859454D01*
X133443667Y-68896000D01*
X133256333Y-68896000D01*
X133072605Y-68859454D01*
X132899534Y-68787766D01*
X132822182Y-68736081D01*
X132743773Y-68683690D01*
X132611310Y-68551227D01*
X132513265Y-68404492D01*
X132507234Y-68395466D01*
X132435546Y-68222395D01*
X132399000Y-68038667D01*
X132399000Y-67851333D01*
X132435546Y-67667605D01*
X132507234Y-67494534D01*
X132611309Y-67338775D01*
X132611310Y-67338773D01*
X132743773Y-67206310D01*
X132899533Y-67102235D01*
X132899534Y-67102234D01*
X133072605Y-67030546D01*
X133256333Y-66994000D01*
X133443667Y-66994000D01*
X133627395Y-67030546D01*
G37*
G36*
X138707395Y-67030546D02*
G01*
X138880466Y-67102234D01*
X138880467Y-67102235D01*
X139036227Y-67206310D01*
X139168690Y-67338773D01*
X139168691Y-67338775D01*
X139272766Y-67494534D01*
X139344454Y-67667605D01*
X139381000Y-67851333D01*
X139381000Y-68038667D01*
X139344454Y-68222395D01*
X139272766Y-68395466D01*
X139266735Y-68404492D01*
X139168690Y-68551227D01*
X139036227Y-68683690D01*
X138957818Y-68736081D01*
X138880466Y-68787766D01*
X138707395Y-68859454D01*
X138523667Y-68896000D01*
X138336333Y-68896000D01*
X138152605Y-68859454D01*
X137979534Y-68787766D01*
X137902182Y-68736081D01*
X137823773Y-68683690D01*
X137691310Y-68551227D01*
X137593265Y-68404492D01*
X137587234Y-68395466D01*
X137515546Y-68222395D01*
X137479000Y-68038667D01*
X137479000Y-67851333D01*
X137515546Y-67667605D01*
X137587234Y-67494534D01*
X137691309Y-67338775D01*
X137691310Y-67338773D01*
X137823773Y-67206310D01*
X137979533Y-67102235D01*
X137979534Y-67102234D01*
X138152605Y-67030546D01*
X138336333Y-66994000D01*
X138523667Y-66994000D01*
X138707395Y-67030546D01*
G37*
G36*
X160932395Y-67030546D02*
G01*
X161105466Y-67102234D01*
X161105467Y-67102235D01*
X161261227Y-67206310D01*
X161393690Y-67338773D01*
X161393691Y-67338775D01*
X161497766Y-67494534D01*
X161569454Y-67667605D01*
X161606000Y-67851333D01*
X161606000Y-68038667D01*
X161569454Y-68222395D01*
X161497766Y-68395466D01*
X161491735Y-68404492D01*
X161393690Y-68551227D01*
X161261227Y-68683690D01*
X161182818Y-68736081D01*
X161105466Y-68787766D01*
X160932395Y-68859454D01*
X160748667Y-68896000D01*
X160561333Y-68896000D01*
X160377605Y-68859454D01*
X160204534Y-68787766D01*
X160127182Y-68736081D01*
X160048773Y-68683690D01*
X159916310Y-68551227D01*
X159818265Y-68404492D01*
X159812234Y-68395466D01*
X159740546Y-68222395D01*
X159704000Y-68038667D01*
X159704000Y-67851333D01*
X159740546Y-67667605D01*
X159812234Y-67494534D01*
X159916309Y-67338775D01*
X159916310Y-67338773D01*
X160048773Y-67206310D01*
X160204533Y-67102235D01*
X160204534Y-67102234D01*
X160377605Y-67030546D01*
X160561333Y-66994000D01*
X160748667Y-66994000D01*
X160932395Y-67030546D01*
G37*
G36*
X155852395Y-67030546D02*
G01*
X156025466Y-67102234D01*
X156025467Y-67102235D01*
X156181227Y-67206310D01*
X156313690Y-67338773D01*
X156313691Y-67338775D01*
X156417766Y-67494534D01*
X156489454Y-67667605D01*
X156526000Y-67851333D01*
X156526000Y-68038667D01*
X156489454Y-68222395D01*
X156417766Y-68395466D01*
X156411735Y-68404492D01*
X156313690Y-68551227D01*
X156181227Y-68683690D01*
X156102818Y-68736081D01*
X156025466Y-68787766D01*
X155852395Y-68859454D01*
X155668667Y-68896000D01*
X155481333Y-68896000D01*
X155297605Y-68859454D01*
X155124534Y-68787766D01*
X155047182Y-68736081D01*
X154968773Y-68683690D01*
X154836310Y-68551227D01*
X154738265Y-68404492D01*
X154732234Y-68395466D01*
X154660546Y-68222395D01*
X154624000Y-68038667D01*
X154624000Y-67851333D01*
X154660546Y-67667605D01*
X154732234Y-67494534D01*
X154836309Y-67338775D01*
X154836310Y-67338773D01*
X154968773Y-67206310D01*
X155124533Y-67102235D01*
X155124534Y-67102234D01*
X155297605Y-67030546D01*
X155481333Y-66994000D01*
X155668667Y-66994000D01*
X155852395Y-67030546D01*
G37*
G36*
X152677395Y-67030546D02*
G01*
X152850466Y-67102234D01*
X152850467Y-67102235D01*
X153006227Y-67206310D01*
X153138690Y-67338773D01*
X153138691Y-67338775D01*
X153242766Y-67494534D01*
X153314454Y-67667605D01*
X153351000Y-67851333D01*
X153351000Y-68038667D01*
X153314454Y-68222395D01*
X153242766Y-68395466D01*
X153236735Y-68404492D01*
X153138690Y-68551227D01*
X153006227Y-68683690D01*
X152927818Y-68736081D01*
X152850466Y-68787766D01*
X152677395Y-68859454D01*
X152493667Y-68896000D01*
X152306333Y-68896000D01*
X152122605Y-68859454D01*
X151949534Y-68787766D01*
X151872182Y-68736081D01*
X151793773Y-68683690D01*
X151661310Y-68551227D01*
X151563265Y-68404492D01*
X151557234Y-68395466D01*
X151485546Y-68222395D01*
X151449000Y-68038667D01*
X151449000Y-67851333D01*
X151485546Y-67667605D01*
X151557234Y-67494534D01*
X151661309Y-67338775D01*
X151661310Y-67338773D01*
X151793773Y-67206310D01*
X151949533Y-67102235D01*
X151949534Y-67102234D01*
X152122605Y-67030546D01*
X152306333Y-66994000D01*
X152493667Y-66994000D01*
X152677395Y-67030546D01*
G37*
G36*
X147597395Y-67030546D02*
G01*
X147770466Y-67102234D01*
X147770467Y-67102235D01*
X147926227Y-67206310D01*
X148058690Y-67338773D01*
X148058691Y-67338775D01*
X148162766Y-67494534D01*
X148234454Y-67667605D01*
X148271000Y-67851333D01*
X148271000Y-68038667D01*
X148234454Y-68222395D01*
X148162766Y-68395466D01*
X148156735Y-68404492D01*
X148058690Y-68551227D01*
X147926227Y-68683690D01*
X147847818Y-68736081D01*
X147770466Y-68787766D01*
X147597395Y-68859454D01*
X147413667Y-68896000D01*
X147226333Y-68896000D01*
X147042605Y-68859454D01*
X146869534Y-68787766D01*
X146792182Y-68736081D01*
X146713773Y-68683690D01*
X146581310Y-68551227D01*
X146483265Y-68404492D01*
X146477234Y-68395466D01*
X146405546Y-68222395D01*
X146369000Y-68038667D01*
X146369000Y-67851333D01*
X146405546Y-67667605D01*
X146477234Y-67494534D01*
X146581309Y-67338775D01*
X146581310Y-67338773D01*
X146713773Y-67206310D01*
X146869533Y-67102235D01*
X146869534Y-67102234D01*
X147042605Y-67030546D01*
X147226333Y-66994000D01*
X147413667Y-66994000D01*
X147597395Y-67030546D01*
G37*
G36*
X177172007Y-60748582D02*
G01*
X177572563Y-60914498D01*
X177572565Y-60914499D01*
X177933056Y-61155371D01*
X178239629Y-61461944D01*
X178480501Y-61822435D01*
X178480502Y-61822437D01*
X178646418Y-62222993D01*
X178731000Y-62648219D01*
X178731000Y-63081781D01*
X178646418Y-63507007D01*
X178480502Y-63907563D01*
X178480501Y-63907565D01*
X178239629Y-64268056D01*
X177933056Y-64574629D01*
X177572565Y-64815501D01*
X177572564Y-64815502D01*
X177572563Y-64815502D01*
X177172007Y-64981418D01*
X176746781Y-65066000D01*
X176313219Y-65066000D01*
X175887993Y-64981418D01*
X175487437Y-64815502D01*
X175487436Y-64815502D01*
X175487435Y-64815501D01*
X175126944Y-64574629D01*
X174820371Y-64268056D01*
X174579499Y-63907565D01*
X174579498Y-63907563D01*
X174413582Y-63507007D01*
X174329000Y-63081781D01*
X174329000Y-62648219D01*
X174413582Y-62222993D01*
X174579498Y-61822437D01*
X174579499Y-61822435D01*
X174820371Y-61461944D01*
X175126944Y-61155371D01*
X175487435Y-60914499D01*
X175487437Y-60914498D01*
X175887993Y-60748582D01*
X176313219Y-60664000D01*
X176746781Y-60664000D01*
X177172007Y-60748582D01*
G37*
G36*
X124467007Y-60748582D02*
G01*
X124867563Y-60914498D01*
X124867565Y-60914499D01*
X125228056Y-61155371D01*
X125534629Y-61461944D01*
X125775501Y-61822435D01*
X125775502Y-61822437D01*
X125941418Y-62222993D01*
X126026000Y-62648219D01*
X126026000Y-63081781D01*
X125941418Y-63507007D01*
X125775502Y-63907563D01*
X125775501Y-63907565D01*
X125534629Y-64268056D01*
X125228056Y-64574629D01*
X124867565Y-64815501D01*
X124867564Y-64815502D01*
X124867563Y-64815502D01*
X124467007Y-64981418D01*
X124041781Y-65066000D01*
X123608219Y-65066000D01*
X123182993Y-64981418D01*
X122782437Y-64815502D01*
X122782436Y-64815502D01*
X122782435Y-64815501D01*
X122421944Y-64574629D01*
X122115371Y-64268056D01*
X121874499Y-63907565D01*
X121874498Y-63907563D01*
X121708582Y-63507007D01*
X121624000Y-63081781D01*
X121624000Y-62648219D01*
X121708582Y-62222993D01*
X121874498Y-61822437D01*
X121874499Y-61822435D01*
X122115371Y-61461944D01*
X122421944Y-61155371D01*
X122782435Y-60914499D01*
X122782437Y-60914498D01*
X123182993Y-60748582D01*
X123608219Y-60664000D01*
X124041781Y-60664000D01*
X124467007Y-60748582D01*
G37*
M02*
