G04 #@! TF.GenerationSoftware,KiCad,Pcbnew,5.1.5*
G04 #@! TF.CreationDate,2020-01-27T03:04:38+01:00*
G04 #@! TF.ProjectId,meshlight,6d657368-6c69-4676-9874-2e6b69636164,rev?*
G04 #@! TF.SameCoordinates,Original*
G04 #@! TF.FileFunction,Legend,Bot*
G04 #@! TF.FilePolarity,Positive*
%FSLAX46Y46*%
G04 Gerber Fmt 4.6, Leading zero omitted, Abs format (unit mm)*
G04 Created by KiCad (PCBNEW 5.1.5) date 2020-01-27 03:04:38*
%MOMM*%
%LPD*%
G04 APERTURE LIST*
%ADD10C,0.150000*%
%ADD11C,0.100000*%
%ADD12C,0.152400*%
%ADD13C,0.254000*%
%ADD14C,0.120000*%
G04 APERTURE END LIST*
D10*
X170671547Y-113117380D02*
X170671547Y-113831666D01*
X170719166Y-113974523D01*
X170814404Y-114069761D01*
X170957261Y-114117380D01*
X171052500Y-114117380D01*
X169719166Y-114117380D02*
X170195357Y-114117380D01*
X170195357Y-113117380D01*
X168814404Y-114022142D02*
X168862023Y-114069761D01*
X169004880Y-114117380D01*
X169100119Y-114117380D01*
X169242976Y-114069761D01*
X169338214Y-113974523D01*
X169385833Y-113879285D01*
X169433452Y-113688809D01*
X169433452Y-113545952D01*
X169385833Y-113355476D01*
X169338214Y-113260238D01*
X169242976Y-113165000D01*
X169100119Y-113117380D01*
X169004880Y-113117380D01*
X168862023Y-113165000D01*
X168814404Y-113212619D01*
X168100119Y-113117380D02*
X168100119Y-113831666D01*
X168147738Y-113974523D01*
X168242976Y-114069761D01*
X168385833Y-114117380D01*
X168481071Y-114117380D01*
X167147738Y-114117380D02*
X167623928Y-114117380D01*
X167623928Y-113117380D01*
X166242976Y-114022142D02*
X166290595Y-114069761D01*
X166433452Y-114117380D01*
X166528690Y-114117380D01*
X166671547Y-114069761D01*
X166766785Y-113974523D01*
X166814404Y-113879285D01*
X166862023Y-113688809D01*
X166862023Y-113545952D01*
X166814404Y-113355476D01*
X166766785Y-113260238D01*
X166671547Y-113165000D01*
X166528690Y-113117380D01*
X166433452Y-113117380D01*
X166290595Y-113165000D01*
X166242976Y-113212619D01*
X165528690Y-113117380D02*
X165528690Y-113831666D01*
X165576309Y-113974523D01*
X165671547Y-114069761D01*
X165814404Y-114117380D01*
X165909642Y-114117380D01*
X164576309Y-114117380D02*
X165052500Y-114117380D01*
X165052500Y-113117380D01*
X163671547Y-114022142D02*
X163719166Y-114069761D01*
X163862023Y-114117380D01*
X163957261Y-114117380D01*
X164100119Y-114069761D01*
X164195357Y-113974523D01*
X164242976Y-113879285D01*
X164290595Y-113688809D01*
X164290595Y-113545952D01*
X164242976Y-113355476D01*
X164195357Y-113260238D01*
X164100119Y-113165000D01*
X163957261Y-113117380D01*
X163862023Y-113117380D01*
X163719166Y-113165000D01*
X163671547Y-113212619D01*
X162957261Y-113117380D02*
X162957261Y-113831666D01*
X163004880Y-113974523D01*
X163100119Y-114069761D01*
X163242976Y-114117380D01*
X163338214Y-114117380D01*
X162004880Y-114117380D02*
X162481071Y-114117380D01*
X162481071Y-113117380D01*
X161100119Y-114022142D02*
X161147738Y-114069761D01*
X161290595Y-114117380D01*
X161385833Y-114117380D01*
X161528690Y-114069761D01*
X161623928Y-113974523D01*
X161671547Y-113879285D01*
X161719166Y-113688809D01*
X161719166Y-113545952D01*
X161671547Y-113355476D01*
X161623928Y-113260238D01*
X161528690Y-113165000D01*
X161385833Y-113117380D01*
X161290595Y-113117380D01*
X161147738Y-113165000D01*
X161100119Y-113212619D01*
X173918571Y-92542619D02*
X173918571Y-91780714D01*
X173537619Y-92161666D02*
X174299523Y-92161666D01*
X173537619Y-89209285D02*
X174013809Y-89542619D01*
X173537619Y-89780714D02*
X174537619Y-89780714D01*
X174537619Y-89399761D01*
X174490000Y-89304523D01*
X174442380Y-89256904D01*
X174347142Y-89209285D01*
X174204285Y-89209285D01*
X174109047Y-89256904D01*
X174061428Y-89304523D01*
X174013809Y-89399761D01*
X174013809Y-89780714D01*
X174490000Y-86733095D02*
X174537619Y-86828333D01*
X174537619Y-86971190D01*
X174490000Y-87114047D01*
X174394761Y-87209285D01*
X174299523Y-87256904D01*
X174109047Y-87304523D01*
X173966190Y-87304523D01*
X173775714Y-87256904D01*
X173680476Y-87209285D01*
X173585238Y-87114047D01*
X173537619Y-86971190D01*
X173537619Y-86875952D01*
X173585238Y-86733095D01*
X173632857Y-86685476D01*
X173966190Y-86685476D01*
X173966190Y-86875952D01*
X174061428Y-84399761D02*
X174013809Y-84256904D01*
X173966190Y-84209285D01*
X173870952Y-84161666D01*
X173728095Y-84161666D01*
X173632857Y-84209285D01*
X173585238Y-84256904D01*
X173537619Y-84352142D01*
X173537619Y-84733095D01*
X174537619Y-84733095D01*
X174537619Y-84399761D01*
X174490000Y-84304523D01*
X174442380Y-84256904D01*
X174347142Y-84209285D01*
X174251904Y-84209285D01*
X174156666Y-84256904D01*
X174109047Y-84304523D01*
X174061428Y-84399761D01*
X174061428Y-84733095D01*
X173918571Y-82209285D02*
X173918571Y-81447380D01*
X128198571Y-92542619D02*
X128198571Y-91780714D01*
X127817619Y-92161666D02*
X128579523Y-92161666D01*
X127817619Y-89209285D02*
X128293809Y-89542619D01*
X127817619Y-89780714D02*
X128817619Y-89780714D01*
X128817619Y-89399761D01*
X128770000Y-89304523D01*
X128722380Y-89256904D01*
X128627142Y-89209285D01*
X128484285Y-89209285D01*
X128389047Y-89256904D01*
X128341428Y-89304523D01*
X128293809Y-89399761D01*
X128293809Y-89780714D01*
X128770000Y-86733095D02*
X128817619Y-86828333D01*
X128817619Y-86971190D01*
X128770000Y-87114047D01*
X128674761Y-87209285D01*
X128579523Y-87256904D01*
X128389047Y-87304523D01*
X128246190Y-87304523D01*
X128055714Y-87256904D01*
X127960476Y-87209285D01*
X127865238Y-87114047D01*
X127817619Y-86971190D01*
X127817619Y-86875952D01*
X127865238Y-86733095D01*
X127912857Y-86685476D01*
X128246190Y-86685476D01*
X128246190Y-86875952D01*
X128341428Y-84399761D02*
X128293809Y-84256904D01*
X128246190Y-84209285D01*
X128150952Y-84161666D01*
X128008095Y-84161666D01*
X127912857Y-84209285D01*
X127865238Y-84256904D01*
X127817619Y-84352142D01*
X127817619Y-84733095D01*
X128817619Y-84733095D01*
X128817619Y-84399761D01*
X128770000Y-84304523D01*
X128722380Y-84256904D01*
X128627142Y-84209285D01*
X128531904Y-84209285D01*
X128436666Y-84256904D01*
X128389047Y-84304523D01*
X128341428Y-84399761D01*
X128341428Y-84733095D01*
X128198571Y-82209285D02*
X128198571Y-81447380D01*
X178958809Y-79827380D02*
X178958809Y-78827380D01*
X178482619Y-79827380D02*
X178482619Y-78827380D01*
X177911190Y-79827380D01*
X177911190Y-78827380D01*
X123626428Y-77843571D02*
X123293095Y-77843571D01*
X123150238Y-78367380D02*
X123626428Y-78367380D01*
X123626428Y-77367380D01*
X123150238Y-77367380D01*
X122816904Y-77367380D02*
X122150238Y-78367380D01*
X122150238Y-77367380D02*
X122816904Y-78367380D01*
X121912142Y-77367380D02*
X121340714Y-77367380D01*
X121626428Y-78367380D02*
X121626428Y-77367380D01*
X123555000Y-79017380D02*
X123364523Y-79017380D01*
X123269285Y-79065000D01*
X123174047Y-79160238D01*
X123126428Y-79350714D01*
X123126428Y-79684047D01*
X123174047Y-79874523D01*
X123269285Y-79969761D01*
X123364523Y-80017380D01*
X123555000Y-80017380D01*
X123650238Y-79969761D01*
X123745476Y-79874523D01*
X123793095Y-79684047D01*
X123793095Y-79350714D01*
X123745476Y-79160238D01*
X123650238Y-79065000D01*
X123555000Y-79017380D01*
X122697857Y-79017380D02*
X122697857Y-79826904D01*
X122650238Y-79922142D01*
X122602619Y-79969761D01*
X122507380Y-80017380D01*
X122316904Y-80017380D01*
X122221666Y-79969761D01*
X122174047Y-79922142D01*
X122126428Y-79826904D01*
X122126428Y-79017380D01*
X121793095Y-79017380D02*
X121221666Y-79017380D01*
X121507380Y-80017380D02*
X121507380Y-79017380D01*
D11*
G36*
X168275000Y-61595000D02*
G01*
X172720000Y-61595000D01*
X172720000Y-64135000D01*
X168275000Y-64135000D01*
X168275000Y-65405000D01*
X165735000Y-62865000D01*
X168275000Y-60325000D01*
X168275000Y-61595000D01*
G37*
X168275000Y-61595000D02*
X172720000Y-61595000D01*
X172720000Y-64135000D01*
X168275000Y-64135000D01*
X168275000Y-65405000D01*
X165735000Y-62865000D01*
X168275000Y-60325000D01*
X168275000Y-61595000D01*
D12*
X172720000Y-67945000D02*
X175260000Y-67945000D01*
X172720000Y-78105000D02*
X172720000Y-67945000D01*
X177800000Y-78105000D02*
X172720000Y-78105000D01*
X177800000Y-70485000D02*
X177800000Y-78105000D01*
X177800000Y-67945000D02*
X177800000Y-70485000D01*
X175260000Y-67945000D02*
X177800000Y-67945000D01*
D13*
X178308000Y-80137000D02*
X178308000Y-65913000D01*
X153670000Y-80137000D02*
X178308000Y-80137000D01*
X153670000Y-65913000D02*
X153670000Y-80137000D01*
X178308000Y-65913000D02*
X153670000Y-65913000D01*
D14*
X169915000Y-98905000D02*
X169915000Y-101505000D01*
X184615000Y-98905000D02*
X169915000Y-98905000D01*
X169915000Y-108105000D02*
X171815000Y-108105000D01*
X169915000Y-105405000D02*
X169915000Y-108105000D01*
X184615000Y-108105000D02*
X184615000Y-98905000D01*
X175815000Y-108105000D02*
X184615000Y-108105000D01*
X170765000Y-98705000D02*
X169715000Y-98705000D01*
X169715000Y-99755000D02*
X169715000Y-98705000D01*
X126365000Y-93405000D02*
X127475000Y-93405000D01*
X127475000Y-93405000D02*
X127475000Y-92075000D01*
X116275000Y-93405000D02*
X116275000Y-80585000D01*
X116275000Y-80585000D02*
X124905000Y-80585000D01*
X124905000Y-93405000D02*
X124905000Y-80585000D01*
X116275000Y-93405000D02*
X124905000Y-93405000D01*
X116275000Y-83185000D02*
X124905000Y-83185000D01*
X116275000Y-85725000D02*
X124905000Y-85725000D01*
X116275000Y-88265000D02*
X124905000Y-88265000D01*
X116275000Y-90805000D02*
X124905000Y-90805000D01*
X124905000Y-81555000D02*
X125315000Y-81555000D01*
X124905000Y-82275000D02*
X125315000Y-82275000D01*
X124905000Y-84095000D02*
X125315000Y-84095000D01*
X124905000Y-84815000D02*
X125315000Y-84815000D01*
X124905000Y-86635000D02*
X125315000Y-86635000D01*
X124905000Y-87355000D02*
X125315000Y-87355000D01*
X124905000Y-89175000D02*
X125315000Y-89175000D01*
X124905000Y-89895000D02*
X125315000Y-89895000D01*
X124905000Y-91715000D02*
X125255000Y-91715000D01*
X124905000Y-92435000D02*
X125255000Y-92435000D01*
X116275000Y-90923100D02*
X124905000Y-90923100D01*
X116275000Y-91041195D02*
X124905000Y-91041195D01*
X116275000Y-91159290D02*
X124905000Y-91159290D01*
X116275000Y-91277385D02*
X124905000Y-91277385D01*
X116275000Y-91395480D02*
X124905000Y-91395480D01*
X116275000Y-91513575D02*
X124905000Y-91513575D01*
X116275000Y-91631670D02*
X124905000Y-91631670D01*
X116275000Y-91749765D02*
X124905000Y-91749765D01*
X116275000Y-91867860D02*
X124905000Y-91867860D01*
X116275000Y-91985955D02*
X124905000Y-91985955D01*
X116275000Y-92104050D02*
X124905000Y-92104050D01*
X116275000Y-92222145D02*
X124905000Y-92222145D01*
X116275000Y-92340240D02*
X124905000Y-92340240D01*
X116275000Y-92458335D02*
X124905000Y-92458335D01*
X116275000Y-92576430D02*
X124905000Y-92576430D01*
X116275000Y-92694525D02*
X124905000Y-92694525D01*
X116275000Y-92812620D02*
X124905000Y-92812620D01*
X116275000Y-92930715D02*
X124905000Y-92930715D01*
X116275000Y-93048810D02*
X124905000Y-93048810D01*
X116275000Y-93166905D02*
X124905000Y-93166905D01*
X116275000Y-93285000D02*
X124905000Y-93285000D01*
X174625000Y-93345000D02*
X175895000Y-93345000D01*
X174625000Y-92075000D02*
X174625000Y-93345000D01*
X176937929Y-81535000D02*
X177335000Y-81535000D01*
X176937929Y-82295000D02*
X177335000Y-82295000D01*
X185995000Y-81535000D02*
X179995000Y-81535000D01*
X185995000Y-82295000D02*
X185995000Y-81535000D01*
X179995000Y-82295000D02*
X185995000Y-82295000D01*
X177335000Y-83185000D02*
X179995000Y-83185000D01*
X176937929Y-84075000D02*
X177335000Y-84075000D01*
X176937929Y-84835000D02*
X177335000Y-84835000D01*
X185995000Y-84075000D02*
X179995000Y-84075000D01*
X185995000Y-84835000D02*
X185995000Y-84075000D01*
X179995000Y-84835000D02*
X185995000Y-84835000D01*
X177335000Y-85725000D02*
X179995000Y-85725000D01*
X176937929Y-86615000D02*
X177335000Y-86615000D01*
X176937929Y-87375000D02*
X177335000Y-87375000D01*
X185995000Y-86615000D02*
X179995000Y-86615000D01*
X185995000Y-87375000D02*
X185995000Y-86615000D01*
X179995000Y-87375000D02*
X185995000Y-87375000D01*
X177335000Y-88265000D02*
X179995000Y-88265000D01*
X176937929Y-89155000D02*
X177335000Y-89155000D01*
X176937929Y-89915000D02*
X177335000Y-89915000D01*
X185995000Y-89155000D02*
X179995000Y-89155000D01*
X185995000Y-89915000D02*
X185995000Y-89155000D01*
X179995000Y-89915000D02*
X185995000Y-89915000D01*
X177335000Y-90805000D02*
X179995000Y-90805000D01*
X177005000Y-91695000D02*
X177335000Y-91695000D01*
X177005000Y-92455000D02*
X177335000Y-92455000D01*
X179995000Y-91795000D02*
X185995000Y-91795000D01*
X179995000Y-91915000D02*
X185995000Y-91915000D01*
X179995000Y-92035000D02*
X185995000Y-92035000D01*
X179995000Y-92155000D02*
X185995000Y-92155000D01*
X179995000Y-92275000D02*
X185995000Y-92275000D01*
X179995000Y-92395000D02*
X185995000Y-92395000D01*
X185995000Y-91695000D02*
X179995000Y-91695000D01*
X185995000Y-92455000D02*
X185995000Y-91695000D01*
X179995000Y-92455000D02*
X185995000Y-92455000D01*
X179995000Y-93405000D02*
X177335000Y-93405000D01*
X179995000Y-80585000D02*
X179995000Y-93405000D01*
X177335000Y-80585000D02*
X179995000Y-80585000D01*
X177335000Y-93405000D02*
X177335000Y-80585000D01*
D10*
X174243904Y-66254380D02*
X174243904Y-67063904D01*
X174196285Y-67159142D01*
X174148666Y-67206761D01*
X174053428Y-67254380D01*
X173862952Y-67254380D01*
X173767714Y-67206761D01*
X173720095Y-67159142D01*
X173672476Y-67063904D01*
X173672476Y-66254380D01*
X173243904Y-66349619D02*
X173196285Y-66302000D01*
X173101047Y-66254380D01*
X172862952Y-66254380D01*
X172767714Y-66302000D01*
X172720095Y-66349619D01*
X172672476Y-66444857D01*
X172672476Y-66540095D01*
X172720095Y-66682952D01*
X173291523Y-67254380D01*
X172672476Y-67254380D01*
X177371333Y-97496380D02*
X177371333Y-98210666D01*
X177418952Y-98353523D01*
X177514190Y-98448761D01*
X177657047Y-98496380D01*
X177752285Y-98496380D01*
X176990380Y-97496380D02*
X176371333Y-97496380D01*
X176704666Y-97877333D01*
X176561809Y-97877333D01*
X176466571Y-97924952D01*
X176418952Y-97972571D01*
X176371333Y-98067809D01*
X176371333Y-98305904D01*
X176418952Y-98401142D01*
X176466571Y-98448761D01*
X176561809Y-98496380D01*
X176847523Y-98496380D01*
X176942761Y-98448761D01*
X176990380Y-98401142D01*
X124793333Y-94297380D02*
X124793333Y-95011666D01*
X124840952Y-95154523D01*
X124936190Y-95249761D01*
X125079047Y-95297380D01*
X125174285Y-95297380D01*
X124364761Y-94392619D02*
X124317142Y-94345000D01*
X124221904Y-94297380D01*
X123983809Y-94297380D01*
X123888571Y-94345000D01*
X123840952Y-94392619D01*
X123793333Y-94487857D01*
X123793333Y-94583095D01*
X123840952Y-94725952D01*
X124412380Y-95297380D01*
X123793333Y-95297380D01*
X176228333Y-93797380D02*
X176228333Y-94511666D01*
X176275952Y-94654523D01*
X176371190Y-94749761D01*
X176514047Y-94797380D01*
X176609285Y-94797380D01*
X175228333Y-94797380D02*
X175799761Y-94797380D01*
X175514047Y-94797380D02*
X175514047Y-93797380D01*
X175609285Y-93940238D01*
X175704523Y-94035476D01*
X175799761Y-94083095D01*
M02*
