G04 #@! TF.GenerationSoftware,KiCad,Pcbnew,5.1.5*
G04 #@! TF.CreationDate,2020-01-27T03:04:38+01:00*
G04 #@! TF.ProjectId,meshlight,6d657368-6c69-4676-9874-2e6b69636164,rev?*
G04 #@! TF.SameCoordinates,Original*
G04 #@! TF.FileFunction,Copper,L2,Bot*
G04 #@! TF.FilePolarity,Positive*
%FSLAX46Y46*%
G04 Gerber Fmt 4.6, Leading zero omitted, Abs format (unit mm)*
G04 Created by KiCad (PCBNEW 5.1.5) date 2020-01-27 03:04:38*
%MOMM*%
%LPD*%
G04 APERTURE LIST*
%ADD10C,1.800000*%
%ADD11R,1.800000X1.800000*%
%ADD12O,1.727200X1.727200*%
%ADD13R,1.727200X1.727200*%
%ADD14C,0.100000*%
%ADD15R,3.500000X3.500000*%
%ADD16O,1.700000X1.700000*%
%ADD17R,1.700000X1.700000*%
%ADD18C,1.000000*%
%ADD19C,0.800000*%
%ADD20C,0.609600*%
%ADD21C,0.304800*%
%ADD22C,0.254000*%
G04 APERTURE END LIST*
D10*
X161925000Y-100965000D03*
X161925000Y-106045000D03*
X167005000Y-100965000D03*
X167005000Y-106045000D03*
X163195000Y-103505000D03*
D11*
X165735000Y-103505000D03*
D10*
X156845000Y-92710000D03*
X151765000Y-92710000D03*
X156845000Y-97790000D03*
X151765000Y-97790000D03*
X154305000Y-93980000D03*
D11*
X154305000Y-96520000D03*
D10*
X134620000Y-97790000D03*
X134620000Y-92710000D03*
X129540000Y-97790000D03*
X129540000Y-92710000D03*
X133350000Y-95250000D03*
D11*
X130810000Y-95250000D03*
D10*
X165735000Y-76200000D03*
X165735000Y-81280000D03*
X170815000Y-76200000D03*
X170815000Y-81280000D03*
X167005000Y-78740000D03*
D11*
X169545000Y-78740000D03*
D10*
X138430000Y-73025000D03*
X138430000Y-67945000D03*
X133350000Y-73025000D03*
X133350000Y-67945000D03*
X137160000Y-70485000D03*
D11*
X134620000Y-70485000D03*
D10*
X143510000Y-81280000D03*
X148590000Y-81280000D03*
X143510000Y-76200000D03*
X148590000Y-76200000D03*
X146050000Y-80010000D03*
D11*
X146050000Y-77470000D03*
D10*
X151765000Y-81280000D03*
X156845000Y-81280000D03*
X151765000Y-76200000D03*
X156845000Y-76200000D03*
X154305000Y-80010000D03*
D11*
X154305000Y-77470000D03*
D10*
X155575000Y-67945000D03*
X155575000Y-73025000D03*
X160655000Y-67945000D03*
X160655000Y-73025000D03*
X156845000Y-70485000D03*
D11*
X159385000Y-70485000D03*
D10*
X136525000Y-89535000D03*
X136525000Y-84455000D03*
X131445000Y-89535000D03*
X131445000Y-84455000D03*
X135255000Y-86995000D03*
D11*
X132715000Y-86995000D03*
D10*
X163830000Y-84455000D03*
X163830000Y-89535000D03*
X168910000Y-84455000D03*
X168910000Y-89535000D03*
X165100000Y-86995000D03*
D11*
X167640000Y-86995000D03*
D10*
X144780000Y-106045000D03*
X144780000Y-100965000D03*
X139700000Y-106045000D03*
X139700000Y-100965000D03*
X143510000Y-103505000D03*
D11*
X140970000Y-103505000D03*
D10*
X148590000Y-92710000D03*
X143510000Y-92710000D03*
X148590000Y-97790000D03*
X143510000Y-97790000D03*
X146050000Y-93980000D03*
D11*
X146050000Y-96520000D03*
D10*
X134620000Y-81280000D03*
X134620000Y-76200000D03*
X129540000Y-81280000D03*
X129540000Y-76200000D03*
X133350000Y-78740000D03*
D11*
X130810000Y-78740000D03*
D10*
X144780000Y-89535000D03*
X144780000Y-84455000D03*
X139700000Y-89535000D03*
X139700000Y-84455000D03*
X143510000Y-86995000D03*
D11*
X140970000Y-86995000D03*
D10*
X147320000Y-73025000D03*
X152400000Y-73025000D03*
X147320000Y-67945000D03*
X152400000Y-67945000D03*
X149860000Y-71755000D03*
D11*
X149860000Y-69215000D03*
D10*
X153035000Y-100965000D03*
X147955000Y-100965000D03*
X153035000Y-106045000D03*
X147955000Y-106045000D03*
X150495000Y-102235000D03*
D11*
X150495000Y-104775000D03*
D10*
X155575000Y-84455000D03*
X155575000Y-89535000D03*
X160655000Y-84455000D03*
X160655000Y-89535000D03*
X156845000Y-86995000D03*
D11*
X159385000Y-86995000D03*
D10*
X165735000Y-92710000D03*
X165735000Y-97790000D03*
X170815000Y-92710000D03*
X170815000Y-97790000D03*
X167005000Y-95250000D03*
D11*
X169545000Y-95250000D03*
D12*
X173990000Y-76835000D03*
X176530000Y-76835000D03*
X173990000Y-74295000D03*
X176530000Y-74295000D03*
X173990000Y-71755000D03*
X176530000Y-71755000D03*
X173990000Y-69215000D03*
D13*
X176530000Y-69215000D03*
G04 #@! TA.AperFunction,ComponentPad*
D14*
G36*
X174775765Y-106459213D02*
G01*
X174860704Y-106471813D01*
X174943999Y-106492677D01*
X175024848Y-106521605D01*
X175102472Y-106558319D01*
X175176124Y-106602464D01*
X175245094Y-106653616D01*
X175308718Y-106711282D01*
X175366384Y-106774906D01*
X175417536Y-106843876D01*
X175461681Y-106917528D01*
X175498395Y-106995152D01*
X175527323Y-107076001D01*
X175548187Y-107159296D01*
X175560787Y-107244235D01*
X175565000Y-107330000D01*
X175565000Y-109080000D01*
X175560787Y-109165765D01*
X175548187Y-109250704D01*
X175527323Y-109333999D01*
X175498395Y-109414848D01*
X175461681Y-109492472D01*
X175417536Y-109566124D01*
X175366384Y-109635094D01*
X175308718Y-109698718D01*
X175245094Y-109756384D01*
X175176124Y-109807536D01*
X175102472Y-109851681D01*
X175024848Y-109888395D01*
X174943999Y-109917323D01*
X174860704Y-109938187D01*
X174775765Y-109950787D01*
X174690000Y-109955000D01*
X172940000Y-109955000D01*
X172854235Y-109950787D01*
X172769296Y-109938187D01*
X172686001Y-109917323D01*
X172605152Y-109888395D01*
X172527528Y-109851681D01*
X172453876Y-109807536D01*
X172384906Y-109756384D01*
X172321282Y-109698718D01*
X172263616Y-109635094D01*
X172212464Y-109566124D01*
X172168319Y-109492472D01*
X172131605Y-109414848D01*
X172102677Y-109333999D01*
X172081813Y-109250704D01*
X172069213Y-109165765D01*
X172065000Y-109080000D01*
X172065000Y-107330000D01*
X172069213Y-107244235D01*
X172081813Y-107159296D01*
X172102677Y-107076001D01*
X172131605Y-106995152D01*
X172168319Y-106917528D01*
X172212464Y-106843876D01*
X172263616Y-106774906D01*
X172321282Y-106711282D01*
X172384906Y-106653616D01*
X172453876Y-106602464D01*
X172527528Y-106558319D01*
X172605152Y-106521605D01*
X172686001Y-106492677D01*
X172769296Y-106471813D01*
X172854235Y-106459213D01*
X172940000Y-106455000D01*
X174690000Y-106455000D01*
X174775765Y-106459213D01*
G37*
G04 #@! TD.AperFunction*
G04 #@! TA.AperFunction,ComponentPad*
G36*
X177638513Y-101758611D02*
G01*
X177711318Y-101769411D01*
X177782714Y-101787295D01*
X177852013Y-101812090D01*
X177918548Y-101843559D01*
X177981678Y-101881398D01*
X178040795Y-101925242D01*
X178095330Y-101974670D01*
X178144758Y-102029205D01*
X178188602Y-102088322D01*
X178226441Y-102151452D01*
X178257910Y-102217987D01*
X178282705Y-102287286D01*
X178300589Y-102358682D01*
X178311389Y-102431487D01*
X178315000Y-102505000D01*
X178315000Y-104505000D01*
X178311389Y-104578513D01*
X178300589Y-104651318D01*
X178282705Y-104722714D01*
X178257910Y-104792013D01*
X178226441Y-104858548D01*
X178188602Y-104921678D01*
X178144758Y-104980795D01*
X178095330Y-105035330D01*
X178040795Y-105084758D01*
X177981678Y-105128602D01*
X177918548Y-105166441D01*
X177852013Y-105197910D01*
X177782714Y-105222705D01*
X177711318Y-105240589D01*
X177638513Y-105251389D01*
X177565000Y-105255000D01*
X176065000Y-105255000D01*
X175991487Y-105251389D01*
X175918682Y-105240589D01*
X175847286Y-105222705D01*
X175777987Y-105197910D01*
X175711452Y-105166441D01*
X175648322Y-105128602D01*
X175589205Y-105084758D01*
X175534670Y-105035330D01*
X175485242Y-104980795D01*
X175441398Y-104921678D01*
X175403559Y-104858548D01*
X175372090Y-104792013D01*
X175347295Y-104722714D01*
X175329411Y-104651318D01*
X175318611Y-104578513D01*
X175315000Y-104505000D01*
X175315000Y-102505000D01*
X175318611Y-102431487D01*
X175329411Y-102358682D01*
X175347295Y-102287286D01*
X175372090Y-102217987D01*
X175403559Y-102151452D01*
X175441398Y-102088322D01*
X175485242Y-102029205D01*
X175534670Y-101974670D01*
X175589205Y-101925242D01*
X175648322Y-101881398D01*
X175711452Y-101843559D01*
X175777987Y-101812090D01*
X175847286Y-101787295D01*
X175918682Y-101769411D01*
X175991487Y-101758611D01*
X176065000Y-101755000D01*
X177565000Y-101755000D01*
X177638513Y-101758611D01*
G37*
G04 #@! TD.AperFunction*
D15*
X170815000Y-103505000D03*
D16*
X126365000Y-81915000D03*
X126365000Y-84455000D03*
X126365000Y-86995000D03*
X126365000Y-89535000D03*
D17*
X126365000Y-92075000D03*
D16*
X175895000Y-81915000D03*
X175895000Y-84455000D03*
X175895000Y-86995000D03*
X175895000Y-89535000D03*
D17*
X175895000Y-92075000D03*
D18*
X159766000Y-63246001D03*
X156337000Y-103886000D03*
X177165000Y-95885000D03*
X129921000Y-112141000D03*
X162941000Y-65278000D03*
X123571000Y-69850000D03*
X123698000Y-73787000D03*
X133096000Y-103505000D03*
X172085000Y-84455000D03*
X168275000Y-72136000D03*
X154178000Y-66421000D03*
D19*
X177673000Y-90551000D03*
X178689000Y-88265000D03*
D18*
X135001000Y-112395000D03*
X135128000Y-63119000D03*
X146304000Y-64643000D03*
X165100000Y-108077000D03*
X168783000Y-108458000D03*
X175996470Y-67520340D03*
D19*
X170942000Y-63627000D03*
X170942000Y-63627000D03*
X157480000Y-62103000D03*
X166624000Y-62103000D03*
X139954000Y-112395000D03*
X171577000Y-112268000D03*
X178943000Y-101346000D03*
X162814000Y-94615000D03*
X141540424Y-69732590D03*
X144497172Y-69703758D03*
X131445000Y-100457000D03*
X133731000Y-107823000D03*
X145415000Y-112902996D03*
X170688000Y-84201000D03*
X154051000Y-69469000D03*
X136906000Y-110744000D03*
X140970000Y-111252000D03*
X158623000Y-67183000D03*
D20*
X159766000Y-63754000D02*
X159766000Y-63246001D01*
X155575000Y-67945000D02*
X159766000Y-63754000D01*
X143510000Y-90805000D02*
X144780000Y-89535000D01*
X143510000Y-92710000D02*
X143510000Y-90805000D01*
X144780000Y-88265000D02*
X143510000Y-86995000D01*
X144780000Y-89535000D02*
X144780000Y-88265000D01*
X163830000Y-90805000D02*
X165735000Y-92710000D01*
X163830000Y-89535000D02*
X163830000Y-90805000D01*
X144780000Y-93980000D02*
X143510000Y-92710000D01*
X146050000Y-93980000D02*
X144780000Y-93980000D01*
X147320000Y-93980000D02*
X148590000Y-92710000D01*
X146050000Y-93980000D02*
X147320000Y-93980000D01*
X167005000Y-80010000D02*
X165735000Y-81280000D01*
X167005000Y-78740000D02*
X167005000Y-80010000D01*
X143510000Y-85725000D02*
X144780000Y-84455000D01*
X143510000Y-86995000D02*
X143510000Y-85725000D01*
X155956000Y-103886000D02*
X153035000Y-100965000D01*
X156337000Y-103886000D02*
X155956000Y-103886000D01*
X167005000Y-77470000D02*
X165735000Y-76200000D01*
X167005000Y-78740000D02*
X167005000Y-77470000D01*
X177165000Y-95885000D02*
X176530000Y-95885000D01*
D21*
X177165000Y-95885000D02*
X177165000Y-94107000D01*
X177165000Y-94107000D02*
X177673000Y-93599000D01*
X177673000Y-93599000D02*
X177673000Y-90551000D01*
X157480000Y-62103000D02*
X166624000Y-62103000D01*
X177662207Y-77967207D02*
X177662207Y-88635207D01*
X176530000Y-76835000D02*
X177662207Y-77967207D01*
X177662207Y-88635207D02*
X179324000Y-90297000D01*
X145893558Y-112268000D02*
X169037000Y-112268000D01*
X145776153Y-112150595D02*
X140764090Y-112150595D01*
X140519685Y-112395000D02*
X139954000Y-112395000D01*
X145893558Y-112268000D02*
X145776153Y-112150595D01*
X140764090Y-112150595D02*
X140519685Y-112395000D01*
X169037000Y-112268000D02*
X170006354Y-112268000D01*
X170006354Y-112268000D02*
X171577000Y-112268000D01*
X179324000Y-100399315D02*
X179324000Y-90297000D01*
X178943000Y-100780315D02*
X179324000Y-100399315D01*
X178943000Y-101346000D02*
X178943000Y-100780315D01*
X134620000Y-69280200D02*
X134620000Y-70485000D01*
X138995955Y-69232599D02*
X134667601Y-69232599D01*
X134667601Y-69232599D02*
X134620000Y-69280200D01*
X139682401Y-68546153D02*
X138995955Y-69232599D01*
X141467541Y-68546153D02*
X139682401Y-68546153D01*
X142292825Y-69851379D02*
X142292825Y-69371437D01*
X142292825Y-69371437D02*
X141467541Y-68546153D01*
X146718847Y-74277401D02*
X142292825Y-69851379D01*
X148572401Y-74277401D02*
X146718847Y-74277401D01*
X150495000Y-76200000D02*
X148572401Y-74277401D01*
X150495000Y-86397354D02*
X150495000Y-76200000D01*
X154885047Y-90787401D02*
X150495000Y-86397354D01*
X158986401Y-90787401D02*
X154885047Y-90787401D01*
X162814000Y-94615000D02*
X158986401Y-90787401D01*
X135872401Y-81881153D02*
X135872401Y-73729045D01*
X131445000Y-84455000D02*
X133298554Y-84455000D01*
X135872401Y-73729045D02*
X139868856Y-69732590D01*
X139868856Y-69732590D02*
X140974739Y-69732590D01*
X133298554Y-84455000D02*
X135872401Y-81881153D01*
X140974739Y-69732590D02*
X141540424Y-69732590D01*
X132748847Y-66692599D02*
X141486013Y-66692599D01*
X129540000Y-92710000D02*
X128287599Y-91457599D01*
X128287599Y-91457599D02*
X128287599Y-71153847D01*
X128287599Y-71153847D02*
X132748847Y-66692599D01*
X141486013Y-66692599D02*
X144097173Y-69303759D01*
X144097173Y-69303759D02*
X144497172Y-69703758D01*
X129540000Y-97790000D02*
X131445000Y-99695000D01*
X131445000Y-99695000D02*
X131445000Y-100457000D01*
X137510531Y-113302995D02*
X145015001Y-113302995D01*
X133731000Y-107823000D02*
X133731000Y-109523464D01*
X133731000Y-109523464D02*
X137510531Y-113302995D01*
X145015001Y-113302995D02*
X145415000Y-112902996D01*
X157485047Y-71797401D02*
X156215047Y-71797401D01*
X154051000Y-69633354D02*
X154051000Y-69469000D01*
X161256153Y-71772599D02*
X157509849Y-71772599D01*
X169079401Y-82592401D02*
X165105047Y-82592401D01*
X156215047Y-71797401D02*
X154051000Y-69633354D01*
X170688000Y-84201000D02*
X169079401Y-82592401D01*
X157509849Y-71772599D02*
X157485047Y-71797401D01*
X161907401Y-72423847D02*
X161256153Y-71772599D01*
X165105047Y-82592401D02*
X161907401Y-79394755D01*
X161907401Y-79394755D02*
X161907401Y-72423847D01*
X156845000Y-88265000D02*
X156845000Y-86995000D01*
X155575000Y-89535000D02*
X156845000Y-88265000D01*
X156845000Y-85725000D02*
X155575000Y-84455000D01*
X156845000Y-86995000D02*
X156845000Y-85725000D01*
X169545000Y-94045200D02*
X169545000Y-95250000D01*
X169437399Y-93937599D02*
X169545000Y-94045200D01*
X166375047Y-93937599D02*
X169437399Y-93937599D01*
X166290245Y-94022401D02*
X166375047Y-93937599D01*
X165105047Y-94022401D02*
X166290245Y-94022401D01*
X163411646Y-92329000D02*
X165105047Y-94022401D01*
X158447908Y-89535000D02*
X161241908Y-92329000D01*
X161241908Y-92329000D02*
X163411646Y-92329000D01*
X155575000Y-89535000D02*
X158447908Y-89535000D01*
X147055001Y-105145001D02*
X147955000Y-106045000D01*
X146642599Y-104732599D02*
X147055001Y-105145001D01*
X146642599Y-100335047D02*
X146642599Y-104732599D01*
X142908847Y-99042401D02*
X145349953Y-99042401D01*
X137828847Y-93962401D02*
X142908847Y-99042401D01*
X128938847Y-93962401D02*
X137828847Y-93962401D01*
X127782789Y-92806343D02*
X128938847Y-93962401D01*
X127782789Y-70944748D02*
X127782789Y-92806343D01*
X132539748Y-66187789D02*
X127782789Y-70944748D01*
X145349953Y-99042401D02*
X146642599Y-100335047D01*
X143606343Y-66187789D02*
X132539748Y-66187789D01*
X150443554Y-73025000D02*
X143606343Y-66187789D01*
X152400000Y-73025000D02*
X150443554Y-73025000D01*
X140970000Y-85725000D02*
X140970000Y-86995000D01*
X139700000Y-84455000D02*
X140970000Y-85725000D01*
X140970000Y-88265000D02*
X139700000Y-89535000D01*
X140970000Y-86995000D02*
X140970000Y-88265000D01*
X136525000Y-89535000D02*
X137797792Y-89535000D01*
X144797599Y-96534807D02*
X144797599Y-97701921D01*
X168910000Y-90807792D02*
X168910000Y-89535000D01*
X172067401Y-98391153D02*
X172067401Y-95105401D01*
X170924401Y-93962401D02*
X170213847Y-93962401D01*
X144797599Y-97701921D02*
X146748277Y-99652599D01*
X171416153Y-99042401D02*
X172067401Y-98391153D01*
X137797792Y-89535000D02*
X144797599Y-96534807D01*
X168910000Y-92658554D02*
X168910000Y-90807792D01*
X146748277Y-99652599D02*
X158453599Y-99652599D01*
X170213847Y-93962401D02*
X168910000Y-92658554D01*
X167074045Y-99042401D02*
X171416153Y-99042401D01*
X163863847Y-102252599D02*
X167074045Y-99042401D01*
X172067401Y-95105401D02*
X170924401Y-93962401D01*
X161053599Y-102252599D02*
X163863847Y-102252599D01*
X158453599Y-99652599D02*
X161053599Y-102252599D01*
X160655000Y-77470000D02*
X156845000Y-81280000D01*
X160655000Y-73025000D02*
X160655000Y-77470000D01*
X140335000Y-73025000D02*
X143510000Y-76200000D01*
X138430000Y-73025000D02*
X140335000Y-73025000D01*
X144780000Y-77470000D02*
X146050000Y-77470000D01*
X143510000Y-76200000D02*
X144780000Y-77470000D01*
X158750000Y-97790000D02*
X156845000Y-97790000D01*
X161925000Y-100965000D02*
X158750000Y-97790000D01*
X125102599Y-96861953D02*
X138603646Y-110363000D01*
X126365000Y-89535000D02*
X125102599Y-90797401D01*
X125102599Y-90797401D02*
X125102599Y-96861953D01*
X137287000Y-110363000D02*
X136906000Y-110744000D01*
X138603646Y-110363000D02*
X137287000Y-110363000D01*
X141575556Y-110363000D02*
X164540554Y-110363000D01*
X141458154Y-110245598D02*
X141575556Y-110363000D01*
X138721048Y-110245598D02*
X141458154Y-110245598D01*
X138603646Y-110363000D02*
X138721048Y-110245598D01*
X174625000Y-90805000D02*
X175045001Y-90384999D01*
X175045001Y-90384999D02*
X175895000Y-89535000D01*
X164540554Y-110363000D02*
X168275000Y-106628554D01*
X168275000Y-106628554D02*
X168275000Y-100838000D01*
X169565788Y-99547212D02*
X172613788Y-99547212D01*
X168275000Y-100838000D02*
X169565788Y-99547212D01*
X174625000Y-97536000D02*
X174625000Y-96647000D01*
X172613788Y-99547212D02*
X174625000Y-97536000D01*
X174625000Y-96647000D02*
X174625000Y-90805000D01*
X136417846Y-111496402D02*
X137023402Y-111496402D01*
X137023402Y-111496402D02*
X137033000Y-111506000D01*
X124597789Y-88762211D02*
X124597789Y-97071052D01*
X138825539Y-111506000D02*
X138929138Y-111402401D01*
X126365000Y-86995000D02*
X124597789Y-88762211D01*
X137033000Y-111506000D02*
X138825539Y-111506000D01*
X124597789Y-97071052D02*
X136026598Y-108499861D01*
X136026598Y-108499861D02*
X136026598Y-111105154D01*
X136026598Y-111105154D02*
X136417846Y-111496402D01*
X140819599Y-111402401D02*
X140970000Y-111252000D01*
X139088401Y-111402401D02*
X140819599Y-111402401D01*
X138929138Y-111402401D02*
X139088401Y-111402401D01*
X177157401Y-85732599D02*
X176744999Y-86145001D01*
X176744999Y-86145001D02*
X175895000Y-86995000D01*
X177157401Y-81309047D02*
X177157401Y-85732599D01*
X175313999Y-79465645D02*
X177157401Y-81309047D01*
X176530000Y-69215000D02*
X176530000Y-70231000D01*
X176530000Y-70231000D02*
X176222001Y-70538999D01*
X176222001Y-70538999D02*
X175946319Y-70538999D01*
X175946319Y-70538999D02*
X175313999Y-71171319D01*
X175313999Y-71171319D02*
X175313999Y-79465645D01*
X176744999Y-87844999D02*
X175895000Y-86995000D01*
X178689000Y-90375910D02*
X176744999Y-88431909D01*
X178689000Y-95711354D02*
X178689000Y-90375910D01*
X174902590Y-99497764D02*
X178689000Y-95711354D01*
X176744999Y-88431909D02*
X176744999Y-87844999D01*
X164465000Y-111252000D02*
X170049599Y-105667401D01*
X140970000Y-111252000D02*
X164465000Y-111252000D01*
X170049599Y-105667401D02*
X172894921Y-105667401D01*
X174902590Y-103659732D02*
X174902590Y-99497764D01*
X172894921Y-105667401D02*
X174902590Y-103659732D01*
X174853599Y-70891401D02*
X173990000Y-71755000D01*
X175313999Y-70431001D02*
X174853599Y-70891401D01*
X175313999Y-68252999D02*
X175313999Y-70431001D01*
X173753599Y-66692599D02*
X175313999Y-68252999D01*
X159679086Y-66692599D02*
X173753599Y-66692599D01*
X159188685Y-67183000D02*
X159679086Y-66692599D01*
X158623000Y-67183000D02*
X159188685Y-67183000D01*
X158223001Y-67582999D02*
X158623000Y-67183000D01*
X157804647Y-67582999D02*
X158223001Y-67582999D01*
X154945047Y-69257401D02*
X156130245Y-69257401D01*
X154262599Y-68574953D02*
X154945047Y-69257401D01*
X154262599Y-67855953D02*
X154262599Y-68574953D01*
X156130245Y-69257401D02*
X157804647Y-67582999D01*
X125102599Y-83192599D02*
X125102599Y-72911029D01*
X126365000Y-84455000D02*
X125102599Y-83192599D01*
X125102599Y-72911029D02*
X132354628Y-65659000D01*
X132354628Y-65659000D02*
X152065646Y-65659000D01*
X152065646Y-65659000D02*
X154262599Y-67855953D01*
D22*
G36*
X177141222Y-59778096D02*
G01*
X177729164Y-59955606D01*
X178271436Y-60243937D01*
X178747364Y-60632094D01*
X179138845Y-61105314D01*
X179430951Y-61645552D01*
X179612563Y-62232244D01*
X179680000Y-62873879D01*
X179680001Y-89539449D01*
X178449607Y-88309057D01*
X178449607Y-78005869D01*
X178453415Y-77967206D01*
X178449607Y-77928543D01*
X178449607Y-77928534D01*
X178438213Y-77812850D01*
X178393189Y-77664424D01*
X178320073Y-77527635D01*
X178272773Y-77470000D01*
X178246328Y-77437776D01*
X178246326Y-77437774D01*
X178221676Y-77407738D01*
X178191641Y-77383089D01*
X177989205Y-77180653D01*
X178028600Y-76982599D01*
X178028600Y-76687401D01*
X177971010Y-76397875D01*
X177858042Y-76125147D01*
X177694039Y-75879698D01*
X177485302Y-75670961D01*
X177326719Y-75565000D01*
X177485302Y-75459039D01*
X177694039Y-75250302D01*
X177858042Y-75004853D01*
X177971010Y-74732125D01*
X178028600Y-74442599D01*
X178028600Y-74147401D01*
X177971010Y-73857875D01*
X177858042Y-73585147D01*
X177694039Y-73339698D01*
X177485302Y-73130961D01*
X177326719Y-73025000D01*
X177485302Y-72919039D01*
X177694039Y-72710302D01*
X177858042Y-72464853D01*
X177971010Y-72192125D01*
X178028600Y-71902599D01*
X178028600Y-71607401D01*
X177971010Y-71317875D01*
X177858042Y-71045147D01*
X177694039Y-70799698D01*
X177579977Y-70685636D01*
X177637780Y-70668102D01*
X177748094Y-70609137D01*
X177844785Y-70529785D01*
X177924137Y-70433094D01*
X177983102Y-70322780D01*
X178019412Y-70203082D01*
X178031672Y-70078600D01*
X178031672Y-68351400D01*
X178019412Y-68226918D01*
X177983102Y-68107220D01*
X177924137Y-67996906D01*
X177844785Y-67900215D01*
X177748094Y-67820863D01*
X177637780Y-67761898D01*
X177518082Y-67725588D01*
X177393600Y-67713328D01*
X175889716Y-67713328D01*
X175873468Y-67693530D01*
X175843428Y-67668877D01*
X174337727Y-66163177D01*
X174313068Y-66133130D01*
X174193171Y-66034733D01*
X174056382Y-65961617D01*
X173907956Y-65916593D01*
X173792272Y-65905199D01*
X173792262Y-65905199D01*
X173753599Y-65901391D01*
X173714936Y-65905199D01*
X159717751Y-65905199D01*
X159679086Y-65901391D01*
X159640421Y-65905199D01*
X159640413Y-65905199D01*
X159524729Y-65916593D01*
X159376303Y-65961617D01*
X159239513Y-66034733D01*
X159167942Y-66093470D01*
X159119617Y-66133130D01*
X159094962Y-66163172D01*
X159027755Y-66230379D01*
X158924898Y-66187774D01*
X158724939Y-66148000D01*
X158701077Y-66148000D01*
X160397890Y-64451187D01*
X160433754Y-64421754D01*
X160502995Y-64337384D01*
X160551196Y-64278652D01*
X160601685Y-64184192D01*
X160638463Y-64115386D01*
X160692202Y-63938233D01*
X160696297Y-63896660D01*
X160771824Y-63783625D01*
X160857383Y-63577068D01*
X160901000Y-63357789D01*
X160901000Y-63134213D01*
X160857383Y-62914934D01*
X160847221Y-62890400D01*
X165947689Y-62890400D01*
X165964226Y-62906937D01*
X166133744Y-63020205D01*
X166322102Y-63098226D01*
X166522061Y-63138000D01*
X166725939Y-63138000D01*
X166925898Y-63098226D01*
X167114256Y-63020205D01*
X167283774Y-62906937D01*
X167427937Y-62762774D01*
X167541205Y-62593256D01*
X167542263Y-62590701D01*
X173745000Y-62590701D01*
X173745000Y-63139299D01*
X173852026Y-63677354D01*
X174061965Y-64184192D01*
X174366750Y-64640334D01*
X174754666Y-65028250D01*
X175210808Y-65333035D01*
X175717646Y-65542974D01*
X176255701Y-65650000D01*
X176804299Y-65650000D01*
X177342354Y-65542974D01*
X177849192Y-65333035D01*
X178305334Y-65028250D01*
X178693250Y-64640334D01*
X178998035Y-64184192D01*
X179207974Y-63677354D01*
X179315000Y-63139299D01*
X179315000Y-62590701D01*
X179207974Y-62052646D01*
X178998035Y-61545808D01*
X178693250Y-61089666D01*
X178305334Y-60701750D01*
X177849192Y-60396965D01*
X177342354Y-60187026D01*
X176804299Y-60080000D01*
X176255701Y-60080000D01*
X175717646Y-60187026D01*
X175210808Y-60396965D01*
X174754666Y-60701750D01*
X174366750Y-61089666D01*
X174061965Y-61545808D01*
X173852026Y-62052646D01*
X173745000Y-62590701D01*
X167542263Y-62590701D01*
X167619226Y-62404898D01*
X167659000Y-62204939D01*
X167659000Y-62001061D01*
X167619226Y-61801102D01*
X167541205Y-61612744D01*
X167427937Y-61443226D01*
X167283774Y-61299063D01*
X167114256Y-61185795D01*
X166925898Y-61107774D01*
X166725939Y-61068000D01*
X166522061Y-61068000D01*
X166322102Y-61107774D01*
X166133744Y-61185795D01*
X165964226Y-61299063D01*
X165947689Y-61315600D01*
X158156311Y-61315600D01*
X158139774Y-61299063D01*
X157970256Y-61185795D01*
X157781898Y-61107774D01*
X157581939Y-61068000D01*
X157378061Y-61068000D01*
X157178102Y-61107774D01*
X156989744Y-61185795D01*
X156820226Y-61299063D01*
X156676063Y-61443226D01*
X156562795Y-61612744D01*
X156484774Y-61801102D01*
X156445000Y-62001061D01*
X156445000Y-62204939D01*
X156484774Y-62404898D01*
X156562795Y-62593256D01*
X156676063Y-62762774D01*
X156820226Y-62906937D01*
X156989744Y-63020205D01*
X157178102Y-63098226D01*
X157378061Y-63138000D01*
X157581939Y-63138000D01*
X157781898Y-63098226D01*
X157970256Y-63020205D01*
X158139774Y-62906937D01*
X158156311Y-62890400D01*
X158684779Y-62890400D01*
X158674617Y-62914934D01*
X158631000Y-63134213D01*
X158631000Y-63357789D01*
X158664536Y-63526387D01*
X155771842Y-66419082D01*
X155726184Y-66410000D01*
X155423816Y-66410000D01*
X155127257Y-66468989D01*
X154847905Y-66584701D01*
X154596495Y-66752688D01*
X154434690Y-66914493D01*
X152649774Y-65129577D01*
X152625115Y-65099531D01*
X152505218Y-65001134D01*
X152368429Y-64928018D01*
X152220003Y-64882994D01*
X152104319Y-64871600D01*
X152104309Y-64871600D01*
X152065646Y-64867792D01*
X152026983Y-64871600D01*
X132393293Y-64871600D01*
X132354628Y-64867792D01*
X132315962Y-64871600D01*
X132315955Y-64871600D01*
X132214131Y-64881629D01*
X132200270Y-64882994D01*
X132051845Y-64928018D01*
X131915055Y-65001134D01*
X131882015Y-65028250D01*
X131795159Y-65099531D01*
X131770505Y-65129572D01*
X124573172Y-72326906D01*
X124543131Y-72351560D01*
X124518478Y-72381600D01*
X124444734Y-72471457D01*
X124371617Y-72608247D01*
X124326594Y-72756672D01*
X124311391Y-72911029D01*
X124315200Y-72949702D01*
X124315199Y-83153936D01*
X124311391Y-83192599D01*
X124315199Y-83231262D01*
X124315199Y-83231271D01*
X124326593Y-83346955D01*
X124371617Y-83495381D01*
X124444733Y-83632170D01*
X124543130Y-83752068D01*
X124573176Y-83776726D01*
X124917362Y-84120912D01*
X124880000Y-84308740D01*
X124880000Y-84601260D01*
X124937068Y-84888158D01*
X125049010Y-85158411D01*
X125211525Y-85401632D01*
X125418368Y-85608475D01*
X125592760Y-85725000D01*
X125418368Y-85841525D01*
X125211525Y-86048368D01*
X125049010Y-86291589D01*
X124937068Y-86561842D01*
X124880000Y-86848740D01*
X124880000Y-87141260D01*
X124917362Y-87329088D01*
X124068367Y-88178083D01*
X124038320Y-88202742D01*
X123939923Y-88322640D01*
X123866807Y-88459429D01*
X123821783Y-88607855D01*
X123810389Y-88723539D01*
X123810389Y-88723548D01*
X123806581Y-88762211D01*
X123810389Y-88800874D01*
X123810390Y-97032379D01*
X123806581Y-97071052D01*
X123821784Y-97225409D01*
X123866807Y-97373834D01*
X123927413Y-97487218D01*
X123939924Y-97510624D01*
X124038321Y-97630521D01*
X124068362Y-97655175D01*
X133296065Y-106882880D01*
X133240744Y-106905795D01*
X133071226Y-107019063D01*
X132927063Y-107163226D01*
X132813795Y-107332744D01*
X132735774Y-107521102D01*
X132696000Y-107721061D01*
X132696000Y-107924939D01*
X132735774Y-108124898D01*
X132813795Y-108313256D01*
X132927063Y-108482774D01*
X132943600Y-108499311D01*
X132943601Y-109484791D01*
X132939792Y-109523464D01*
X132954995Y-109677821D01*
X133000018Y-109826246D01*
X133062327Y-109942816D01*
X133073135Y-109963036D01*
X133171532Y-110082933D01*
X133201573Y-110107587D01*
X136926408Y-113832423D01*
X136951062Y-113862464D01*
X137070959Y-113960861D01*
X137207748Y-114033977D01*
X137356174Y-114079001D01*
X137471858Y-114090395D01*
X137471868Y-114090395D01*
X137510531Y-114094203D01*
X137549194Y-114090395D01*
X144976338Y-114090395D01*
X145015001Y-114094203D01*
X145053664Y-114090395D01*
X145053674Y-114090395D01*
X145169358Y-114079001D01*
X145317784Y-114033977D01*
X145454573Y-113960861D01*
X145482434Y-113937996D01*
X145516939Y-113937996D01*
X145716898Y-113898222D01*
X145905256Y-113820201D01*
X146074774Y-113706933D01*
X146218937Y-113562770D01*
X146332205Y-113393252D01*
X146410226Y-113204894D01*
X146439962Y-113055400D01*
X170900689Y-113055400D01*
X170917226Y-113071937D01*
X171086744Y-113185205D01*
X171275102Y-113263226D01*
X171475061Y-113303000D01*
X171678939Y-113303000D01*
X171878898Y-113263226D01*
X172067256Y-113185205D01*
X172225892Y-113079208D01*
X174755397Y-113079208D01*
X174989537Y-113461330D01*
X175474932Y-113716967D01*
X176000873Y-113872997D01*
X176547148Y-113923422D01*
X177092764Y-113866306D01*
X177616752Y-113703842D01*
X178070463Y-113461330D01*
X178304603Y-113079208D01*
X176530000Y-111304605D01*
X174755397Y-113079208D01*
X172225892Y-113079208D01*
X172236774Y-113071937D01*
X172380937Y-112927774D01*
X172494205Y-112758256D01*
X172572226Y-112569898D01*
X172612000Y-112369939D01*
X172612000Y-112166061D01*
X172572226Y-111966102D01*
X172494205Y-111777744D01*
X172380937Y-111608226D01*
X172236774Y-111464063D01*
X172067256Y-111350795D01*
X171878898Y-111272774D01*
X171678939Y-111233000D01*
X171475061Y-111233000D01*
X171275102Y-111272774D01*
X171086744Y-111350795D01*
X170917226Y-111464063D01*
X170900689Y-111480600D01*
X165349950Y-111480600D01*
X166875550Y-109955000D01*
X171426928Y-109955000D01*
X171439188Y-110079482D01*
X171475498Y-110199180D01*
X171534463Y-110309494D01*
X171613815Y-110406185D01*
X171710506Y-110485537D01*
X171820820Y-110544502D01*
X171940518Y-110580812D01*
X172065000Y-110593072D01*
X173529250Y-110590000D01*
X173687998Y-110431252D01*
X173687998Y-110590000D01*
X173783745Y-110590000D01*
X173782003Y-110595873D01*
X173731578Y-111142148D01*
X173788694Y-111687764D01*
X173951158Y-112211752D01*
X174193670Y-112665463D01*
X174575792Y-112899603D01*
X176350395Y-111125000D01*
X176709605Y-111125000D01*
X178484208Y-112899603D01*
X178866330Y-112665463D01*
X179121967Y-112180068D01*
X179277997Y-111654127D01*
X179328422Y-111107852D01*
X179271306Y-110562236D01*
X179108842Y-110038248D01*
X178866330Y-109584537D01*
X178484208Y-109350397D01*
X176709605Y-111125000D01*
X176350395Y-111125000D01*
X176336253Y-111110858D01*
X176515858Y-110931253D01*
X176530000Y-110945395D01*
X178304603Y-109170792D01*
X178070463Y-108788670D01*
X177585068Y-108533033D01*
X177059127Y-108377003D01*
X176512852Y-108326578D01*
X176081032Y-108371782D01*
X176041250Y-108332000D01*
X173942000Y-108332000D01*
X173942000Y-108352000D01*
X173688000Y-108352000D01*
X173688000Y-108332000D01*
X171588750Y-108332000D01*
X171430000Y-108490750D01*
X171426928Y-109955000D01*
X166875550Y-109955000D01*
X170375751Y-106454801D01*
X171426948Y-106454801D01*
X171426928Y-106455000D01*
X171430000Y-107919250D01*
X171588750Y-108078000D01*
X173688000Y-108078000D01*
X173688000Y-108058000D01*
X173942000Y-108058000D01*
X173942000Y-108078000D01*
X176041250Y-108078000D01*
X176200000Y-107919250D01*
X176203072Y-106455000D01*
X176190812Y-106330518D01*
X176154502Y-106210820D01*
X176095537Y-106100506D01*
X176016185Y-106003815D01*
X175919494Y-105924463D01*
X175858195Y-105891698D01*
X176529250Y-105890000D01*
X176688000Y-105731250D01*
X176688000Y-103632000D01*
X176942000Y-103632000D01*
X176942000Y-105731250D01*
X177100750Y-105890000D01*
X178315000Y-105893072D01*
X178439482Y-105880812D01*
X178559180Y-105844502D01*
X178669494Y-105785537D01*
X178766185Y-105706185D01*
X178845537Y-105609494D01*
X178904502Y-105499180D01*
X178940812Y-105379482D01*
X178953072Y-105255000D01*
X178950000Y-103790750D01*
X178791250Y-103632000D01*
X176942000Y-103632000D01*
X176688000Y-103632000D01*
X176668000Y-103632000D01*
X176668000Y-103378000D01*
X176688000Y-103378000D01*
X176688000Y-101278750D01*
X176529250Y-101120000D01*
X175689990Y-101117877D01*
X175689990Y-99823914D01*
X178536600Y-96977305D01*
X178536600Y-100073165D01*
X178413572Y-100196192D01*
X178383532Y-100220846D01*
X178285135Y-100340743D01*
X178212018Y-100477532D01*
X178166994Y-100625958D01*
X178163461Y-100661828D01*
X178139063Y-100686226D01*
X178025795Y-100855744D01*
X177947774Y-101044102D01*
X177933096Y-101117894D01*
X177100750Y-101120000D01*
X176942000Y-101278750D01*
X176942000Y-103378000D01*
X178791250Y-103378000D01*
X178950000Y-103219250D01*
X178951759Y-102381000D01*
X179044939Y-102381000D01*
X179244898Y-102341226D01*
X179433256Y-102263205D01*
X179602774Y-102149937D01*
X179680001Y-102072710D01*
X179680001Y-111092711D01*
X179616904Y-111736221D01*
X179439394Y-112324164D01*
X179151063Y-112866436D01*
X178762906Y-113342364D01*
X178289686Y-113733845D01*
X177749449Y-114025950D01*
X177162756Y-114207563D01*
X176521130Y-114275000D01*
X123857279Y-114275000D01*
X123213779Y-114211904D01*
X122625836Y-114034394D01*
X122083564Y-113746063D01*
X121607636Y-113357906D01*
X121216155Y-112884686D01*
X120924050Y-112344449D01*
X120742437Y-111757756D01*
X120675000Y-111116130D01*
X120675000Y-110850701D01*
X121040000Y-110850701D01*
X121040000Y-111399299D01*
X121147026Y-111937354D01*
X121356965Y-112444192D01*
X121661750Y-112900334D01*
X122049666Y-113288250D01*
X122505808Y-113593035D01*
X123012646Y-113802974D01*
X123550701Y-113910000D01*
X124099299Y-113910000D01*
X124637354Y-113802974D01*
X125144192Y-113593035D01*
X125600334Y-113288250D01*
X125988250Y-112900334D01*
X126293035Y-112444192D01*
X126502974Y-111937354D01*
X126610000Y-111399299D01*
X126610000Y-110850701D01*
X126502974Y-110312646D01*
X126293035Y-109805808D01*
X125988250Y-109349666D01*
X125600334Y-108961750D01*
X125144192Y-108656965D01*
X124637354Y-108447026D01*
X124099299Y-108340000D01*
X123550701Y-108340000D01*
X123012646Y-108447026D01*
X122505808Y-108656965D01*
X122049666Y-108961750D01*
X121661750Y-109349666D01*
X121356965Y-109805808D01*
X121147026Y-110312646D01*
X121040000Y-110850701D01*
X120675000Y-110850701D01*
X120675000Y-62897279D01*
X120705060Y-62590701D01*
X121040000Y-62590701D01*
X121040000Y-63139299D01*
X121147026Y-63677354D01*
X121356965Y-64184192D01*
X121661750Y-64640334D01*
X122049666Y-65028250D01*
X122505808Y-65333035D01*
X123012646Y-65542974D01*
X123550701Y-65650000D01*
X124099299Y-65650000D01*
X124637354Y-65542974D01*
X125144192Y-65333035D01*
X125600334Y-65028250D01*
X125988250Y-64640334D01*
X126293035Y-64184192D01*
X126502974Y-63677354D01*
X126610000Y-63139299D01*
X126610000Y-62590701D01*
X126502974Y-62052646D01*
X126293035Y-61545808D01*
X125988250Y-61089666D01*
X125600334Y-60701750D01*
X125144192Y-60396965D01*
X124637354Y-60187026D01*
X124099299Y-60080000D01*
X123550701Y-60080000D01*
X123012646Y-60187026D01*
X122505808Y-60396965D01*
X122049666Y-60701750D01*
X121661750Y-61089666D01*
X121356965Y-61545808D01*
X121147026Y-62052646D01*
X121040000Y-62590701D01*
X120705060Y-62590701D01*
X120738096Y-62253778D01*
X120915606Y-61665836D01*
X121203937Y-61123564D01*
X121592094Y-60647636D01*
X122065314Y-60256155D01*
X122605552Y-59964049D01*
X123192244Y-59782437D01*
X123833879Y-59715000D01*
X176497721Y-59715000D01*
X177141222Y-59778096D01*
G37*
X177141222Y-59778096D02*
X177729164Y-59955606D01*
X178271436Y-60243937D01*
X178747364Y-60632094D01*
X179138845Y-61105314D01*
X179430951Y-61645552D01*
X179612563Y-62232244D01*
X179680000Y-62873879D01*
X179680001Y-89539449D01*
X178449607Y-88309057D01*
X178449607Y-78005869D01*
X178453415Y-77967206D01*
X178449607Y-77928543D01*
X178449607Y-77928534D01*
X178438213Y-77812850D01*
X178393189Y-77664424D01*
X178320073Y-77527635D01*
X178272773Y-77470000D01*
X178246328Y-77437776D01*
X178246326Y-77437774D01*
X178221676Y-77407738D01*
X178191641Y-77383089D01*
X177989205Y-77180653D01*
X178028600Y-76982599D01*
X178028600Y-76687401D01*
X177971010Y-76397875D01*
X177858042Y-76125147D01*
X177694039Y-75879698D01*
X177485302Y-75670961D01*
X177326719Y-75565000D01*
X177485302Y-75459039D01*
X177694039Y-75250302D01*
X177858042Y-75004853D01*
X177971010Y-74732125D01*
X178028600Y-74442599D01*
X178028600Y-74147401D01*
X177971010Y-73857875D01*
X177858042Y-73585147D01*
X177694039Y-73339698D01*
X177485302Y-73130961D01*
X177326719Y-73025000D01*
X177485302Y-72919039D01*
X177694039Y-72710302D01*
X177858042Y-72464853D01*
X177971010Y-72192125D01*
X178028600Y-71902599D01*
X178028600Y-71607401D01*
X177971010Y-71317875D01*
X177858042Y-71045147D01*
X177694039Y-70799698D01*
X177579977Y-70685636D01*
X177637780Y-70668102D01*
X177748094Y-70609137D01*
X177844785Y-70529785D01*
X177924137Y-70433094D01*
X177983102Y-70322780D01*
X178019412Y-70203082D01*
X178031672Y-70078600D01*
X178031672Y-68351400D01*
X178019412Y-68226918D01*
X177983102Y-68107220D01*
X177924137Y-67996906D01*
X177844785Y-67900215D01*
X177748094Y-67820863D01*
X177637780Y-67761898D01*
X177518082Y-67725588D01*
X177393600Y-67713328D01*
X175889716Y-67713328D01*
X175873468Y-67693530D01*
X175843428Y-67668877D01*
X174337727Y-66163177D01*
X174313068Y-66133130D01*
X174193171Y-66034733D01*
X174056382Y-65961617D01*
X173907956Y-65916593D01*
X173792272Y-65905199D01*
X173792262Y-65905199D01*
X173753599Y-65901391D01*
X173714936Y-65905199D01*
X159717751Y-65905199D01*
X159679086Y-65901391D01*
X159640421Y-65905199D01*
X159640413Y-65905199D01*
X159524729Y-65916593D01*
X159376303Y-65961617D01*
X159239513Y-66034733D01*
X159167942Y-66093470D01*
X159119617Y-66133130D01*
X159094962Y-66163172D01*
X159027755Y-66230379D01*
X158924898Y-66187774D01*
X158724939Y-66148000D01*
X158701077Y-66148000D01*
X160397890Y-64451187D01*
X160433754Y-64421754D01*
X160502995Y-64337384D01*
X160551196Y-64278652D01*
X160601685Y-64184192D01*
X160638463Y-64115386D01*
X160692202Y-63938233D01*
X160696297Y-63896660D01*
X160771824Y-63783625D01*
X160857383Y-63577068D01*
X160901000Y-63357789D01*
X160901000Y-63134213D01*
X160857383Y-62914934D01*
X160847221Y-62890400D01*
X165947689Y-62890400D01*
X165964226Y-62906937D01*
X166133744Y-63020205D01*
X166322102Y-63098226D01*
X166522061Y-63138000D01*
X166725939Y-63138000D01*
X166925898Y-63098226D01*
X167114256Y-63020205D01*
X167283774Y-62906937D01*
X167427937Y-62762774D01*
X167541205Y-62593256D01*
X167542263Y-62590701D01*
X173745000Y-62590701D01*
X173745000Y-63139299D01*
X173852026Y-63677354D01*
X174061965Y-64184192D01*
X174366750Y-64640334D01*
X174754666Y-65028250D01*
X175210808Y-65333035D01*
X175717646Y-65542974D01*
X176255701Y-65650000D01*
X176804299Y-65650000D01*
X177342354Y-65542974D01*
X177849192Y-65333035D01*
X178305334Y-65028250D01*
X178693250Y-64640334D01*
X178998035Y-64184192D01*
X179207974Y-63677354D01*
X179315000Y-63139299D01*
X179315000Y-62590701D01*
X179207974Y-62052646D01*
X178998035Y-61545808D01*
X178693250Y-61089666D01*
X178305334Y-60701750D01*
X177849192Y-60396965D01*
X177342354Y-60187026D01*
X176804299Y-60080000D01*
X176255701Y-60080000D01*
X175717646Y-60187026D01*
X175210808Y-60396965D01*
X174754666Y-60701750D01*
X174366750Y-61089666D01*
X174061965Y-61545808D01*
X173852026Y-62052646D01*
X173745000Y-62590701D01*
X167542263Y-62590701D01*
X167619226Y-62404898D01*
X167659000Y-62204939D01*
X167659000Y-62001061D01*
X167619226Y-61801102D01*
X167541205Y-61612744D01*
X167427937Y-61443226D01*
X167283774Y-61299063D01*
X167114256Y-61185795D01*
X166925898Y-61107774D01*
X166725939Y-61068000D01*
X166522061Y-61068000D01*
X166322102Y-61107774D01*
X166133744Y-61185795D01*
X165964226Y-61299063D01*
X165947689Y-61315600D01*
X158156311Y-61315600D01*
X158139774Y-61299063D01*
X157970256Y-61185795D01*
X157781898Y-61107774D01*
X157581939Y-61068000D01*
X157378061Y-61068000D01*
X157178102Y-61107774D01*
X156989744Y-61185795D01*
X156820226Y-61299063D01*
X156676063Y-61443226D01*
X156562795Y-61612744D01*
X156484774Y-61801102D01*
X156445000Y-62001061D01*
X156445000Y-62204939D01*
X156484774Y-62404898D01*
X156562795Y-62593256D01*
X156676063Y-62762774D01*
X156820226Y-62906937D01*
X156989744Y-63020205D01*
X157178102Y-63098226D01*
X157378061Y-63138000D01*
X157581939Y-63138000D01*
X157781898Y-63098226D01*
X157970256Y-63020205D01*
X158139774Y-62906937D01*
X158156311Y-62890400D01*
X158684779Y-62890400D01*
X158674617Y-62914934D01*
X158631000Y-63134213D01*
X158631000Y-63357789D01*
X158664536Y-63526387D01*
X155771842Y-66419082D01*
X155726184Y-66410000D01*
X155423816Y-66410000D01*
X155127257Y-66468989D01*
X154847905Y-66584701D01*
X154596495Y-66752688D01*
X154434690Y-66914493D01*
X152649774Y-65129577D01*
X152625115Y-65099531D01*
X152505218Y-65001134D01*
X152368429Y-64928018D01*
X152220003Y-64882994D01*
X152104319Y-64871600D01*
X152104309Y-64871600D01*
X152065646Y-64867792D01*
X152026983Y-64871600D01*
X132393293Y-64871600D01*
X132354628Y-64867792D01*
X132315962Y-64871600D01*
X132315955Y-64871600D01*
X132214131Y-64881629D01*
X132200270Y-64882994D01*
X132051845Y-64928018D01*
X131915055Y-65001134D01*
X131882015Y-65028250D01*
X131795159Y-65099531D01*
X131770505Y-65129572D01*
X124573172Y-72326906D01*
X124543131Y-72351560D01*
X124518478Y-72381600D01*
X124444734Y-72471457D01*
X124371617Y-72608247D01*
X124326594Y-72756672D01*
X124311391Y-72911029D01*
X124315200Y-72949702D01*
X124315199Y-83153936D01*
X124311391Y-83192599D01*
X124315199Y-83231262D01*
X124315199Y-83231271D01*
X124326593Y-83346955D01*
X124371617Y-83495381D01*
X124444733Y-83632170D01*
X124543130Y-83752068D01*
X124573176Y-83776726D01*
X124917362Y-84120912D01*
X124880000Y-84308740D01*
X124880000Y-84601260D01*
X124937068Y-84888158D01*
X125049010Y-85158411D01*
X125211525Y-85401632D01*
X125418368Y-85608475D01*
X125592760Y-85725000D01*
X125418368Y-85841525D01*
X125211525Y-86048368D01*
X125049010Y-86291589D01*
X124937068Y-86561842D01*
X124880000Y-86848740D01*
X124880000Y-87141260D01*
X124917362Y-87329088D01*
X124068367Y-88178083D01*
X124038320Y-88202742D01*
X123939923Y-88322640D01*
X123866807Y-88459429D01*
X123821783Y-88607855D01*
X123810389Y-88723539D01*
X123810389Y-88723548D01*
X123806581Y-88762211D01*
X123810389Y-88800874D01*
X123810390Y-97032379D01*
X123806581Y-97071052D01*
X123821784Y-97225409D01*
X123866807Y-97373834D01*
X123927413Y-97487218D01*
X123939924Y-97510624D01*
X124038321Y-97630521D01*
X124068362Y-97655175D01*
X133296065Y-106882880D01*
X133240744Y-106905795D01*
X133071226Y-107019063D01*
X132927063Y-107163226D01*
X132813795Y-107332744D01*
X132735774Y-107521102D01*
X132696000Y-107721061D01*
X132696000Y-107924939D01*
X132735774Y-108124898D01*
X132813795Y-108313256D01*
X132927063Y-108482774D01*
X132943600Y-108499311D01*
X132943601Y-109484791D01*
X132939792Y-109523464D01*
X132954995Y-109677821D01*
X133000018Y-109826246D01*
X133062327Y-109942816D01*
X133073135Y-109963036D01*
X133171532Y-110082933D01*
X133201573Y-110107587D01*
X136926408Y-113832423D01*
X136951062Y-113862464D01*
X137070959Y-113960861D01*
X137207748Y-114033977D01*
X137356174Y-114079001D01*
X137471858Y-114090395D01*
X137471868Y-114090395D01*
X137510531Y-114094203D01*
X137549194Y-114090395D01*
X144976338Y-114090395D01*
X145015001Y-114094203D01*
X145053664Y-114090395D01*
X145053674Y-114090395D01*
X145169358Y-114079001D01*
X145317784Y-114033977D01*
X145454573Y-113960861D01*
X145482434Y-113937996D01*
X145516939Y-113937996D01*
X145716898Y-113898222D01*
X145905256Y-113820201D01*
X146074774Y-113706933D01*
X146218937Y-113562770D01*
X146332205Y-113393252D01*
X146410226Y-113204894D01*
X146439962Y-113055400D01*
X170900689Y-113055400D01*
X170917226Y-113071937D01*
X171086744Y-113185205D01*
X171275102Y-113263226D01*
X171475061Y-113303000D01*
X171678939Y-113303000D01*
X171878898Y-113263226D01*
X172067256Y-113185205D01*
X172225892Y-113079208D01*
X174755397Y-113079208D01*
X174989537Y-113461330D01*
X175474932Y-113716967D01*
X176000873Y-113872997D01*
X176547148Y-113923422D01*
X177092764Y-113866306D01*
X177616752Y-113703842D01*
X178070463Y-113461330D01*
X178304603Y-113079208D01*
X176530000Y-111304605D01*
X174755397Y-113079208D01*
X172225892Y-113079208D01*
X172236774Y-113071937D01*
X172380937Y-112927774D01*
X172494205Y-112758256D01*
X172572226Y-112569898D01*
X172612000Y-112369939D01*
X172612000Y-112166061D01*
X172572226Y-111966102D01*
X172494205Y-111777744D01*
X172380937Y-111608226D01*
X172236774Y-111464063D01*
X172067256Y-111350795D01*
X171878898Y-111272774D01*
X171678939Y-111233000D01*
X171475061Y-111233000D01*
X171275102Y-111272774D01*
X171086744Y-111350795D01*
X170917226Y-111464063D01*
X170900689Y-111480600D01*
X165349950Y-111480600D01*
X166875550Y-109955000D01*
X171426928Y-109955000D01*
X171439188Y-110079482D01*
X171475498Y-110199180D01*
X171534463Y-110309494D01*
X171613815Y-110406185D01*
X171710506Y-110485537D01*
X171820820Y-110544502D01*
X171940518Y-110580812D01*
X172065000Y-110593072D01*
X173529250Y-110590000D01*
X173687998Y-110431252D01*
X173687998Y-110590000D01*
X173783745Y-110590000D01*
X173782003Y-110595873D01*
X173731578Y-111142148D01*
X173788694Y-111687764D01*
X173951158Y-112211752D01*
X174193670Y-112665463D01*
X174575792Y-112899603D01*
X176350395Y-111125000D01*
X176709605Y-111125000D01*
X178484208Y-112899603D01*
X178866330Y-112665463D01*
X179121967Y-112180068D01*
X179277997Y-111654127D01*
X179328422Y-111107852D01*
X179271306Y-110562236D01*
X179108842Y-110038248D01*
X178866330Y-109584537D01*
X178484208Y-109350397D01*
X176709605Y-111125000D01*
X176350395Y-111125000D01*
X176336253Y-111110858D01*
X176515858Y-110931253D01*
X176530000Y-110945395D01*
X178304603Y-109170792D01*
X178070463Y-108788670D01*
X177585068Y-108533033D01*
X177059127Y-108377003D01*
X176512852Y-108326578D01*
X176081032Y-108371782D01*
X176041250Y-108332000D01*
X173942000Y-108332000D01*
X173942000Y-108352000D01*
X173688000Y-108352000D01*
X173688000Y-108332000D01*
X171588750Y-108332000D01*
X171430000Y-108490750D01*
X171426928Y-109955000D01*
X166875550Y-109955000D01*
X170375751Y-106454801D01*
X171426948Y-106454801D01*
X171426928Y-106455000D01*
X171430000Y-107919250D01*
X171588750Y-108078000D01*
X173688000Y-108078000D01*
X173688000Y-108058000D01*
X173942000Y-108058000D01*
X173942000Y-108078000D01*
X176041250Y-108078000D01*
X176200000Y-107919250D01*
X176203072Y-106455000D01*
X176190812Y-106330518D01*
X176154502Y-106210820D01*
X176095537Y-106100506D01*
X176016185Y-106003815D01*
X175919494Y-105924463D01*
X175858195Y-105891698D01*
X176529250Y-105890000D01*
X176688000Y-105731250D01*
X176688000Y-103632000D01*
X176942000Y-103632000D01*
X176942000Y-105731250D01*
X177100750Y-105890000D01*
X178315000Y-105893072D01*
X178439482Y-105880812D01*
X178559180Y-105844502D01*
X178669494Y-105785537D01*
X178766185Y-105706185D01*
X178845537Y-105609494D01*
X178904502Y-105499180D01*
X178940812Y-105379482D01*
X178953072Y-105255000D01*
X178950000Y-103790750D01*
X178791250Y-103632000D01*
X176942000Y-103632000D01*
X176688000Y-103632000D01*
X176668000Y-103632000D01*
X176668000Y-103378000D01*
X176688000Y-103378000D01*
X176688000Y-101278750D01*
X176529250Y-101120000D01*
X175689990Y-101117877D01*
X175689990Y-99823914D01*
X178536600Y-96977305D01*
X178536600Y-100073165D01*
X178413572Y-100196192D01*
X178383532Y-100220846D01*
X178285135Y-100340743D01*
X178212018Y-100477532D01*
X178166994Y-100625958D01*
X178163461Y-100661828D01*
X178139063Y-100686226D01*
X178025795Y-100855744D01*
X177947774Y-101044102D01*
X177933096Y-101117894D01*
X177100750Y-101120000D01*
X176942000Y-101278750D01*
X176942000Y-103378000D01*
X178791250Y-103378000D01*
X178950000Y-103219250D01*
X178951759Y-102381000D01*
X179044939Y-102381000D01*
X179244898Y-102341226D01*
X179433256Y-102263205D01*
X179602774Y-102149937D01*
X179680001Y-102072710D01*
X179680001Y-111092711D01*
X179616904Y-111736221D01*
X179439394Y-112324164D01*
X179151063Y-112866436D01*
X178762906Y-113342364D01*
X178289686Y-113733845D01*
X177749449Y-114025950D01*
X177162756Y-114207563D01*
X176521130Y-114275000D01*
X123857279Y-114275000D01*
X123213779Y-114211904D01*
X122625836Y-114034394D01*
X122083564Y-113746063D01*
X121607636Y-113357906D01*
X121216155Y-112884686D01*
X120924050Y-112344449D01*
X120742437Y-111757756D01*
X120675000Y-111116130D01*
X120675000Y-110850701D01*
X121040000Y-110850701D01*
X121040000Y-111399299D01*
X121147026Y-111937354D01*
X121356965Y-112444192D01*
X121661750Y-112900334D01*
X122049666Y-113288250D01*
X122505808Y-113593035D01*
X123012646Y-113802974D01*
X123550701Y-113910000D01*
X124099299Y-113910000D01*
X124637354Y-113802974D01*
X125144192Y-113593035D01*
X125600334Y-113288250D01*
X125988250Y-112900334D01*
X126293035Y-112444192D01*
X126502974Y-111937354D01*
X126610000Y-111399299D01*
X126610000Y-110850701D01*
X126502974Y-110312646D01*
X126293035Y-109805808D01*
X125988250Y-109349666D01*
X125600334Y-108961750D01*
X125144192Y-108656965D01*
X124637354Y-108447026D01*
X124099299Y-108340000D01*
X123550701Y-108340000D01*
X123012646Y-108447026D01*
X122505808Y-108656965D01*
X122049666Y-108961750D01*
X121661750Y-109349666D01*
X121356965Y-109805808D01*
X121147026Y-110312646D01*
X121040000Y-110850701D01*
X120675000Y-110850701D01*
X120675000Y-62897279D01*
X120705060Y-62590701D01*
X121040000Y-62590701D01*
X121040000Y-63139299D01*
X121147026Y-63677354D01*
X121356965Y-64184192D01*
X121661750Y-64640334D01*
X122049666Y-65028250D01*
X122505808Y-65333035D01*
X123012646Y-65542974D01*
X123550701Y-65650000D01*
X124099299Y-65650000D01*
X124637354Y-65542974D01*
X125144192Y-65333035D01*
X125600334Y-65028250D01*
X125988250Y-64640334D01*
X126293035Y-64184192D01*
X126502974Y-63677354D01*
X126610000Y-63139299D01*
X126610000Y-62590701D01*
X126502974Y-62052646D01*
X126293035Y-61545808D01*
X125988250Y-61089666D01*
X125600334Y-60701750D01*
X125144192Y-60396965D01*
X124637354Y-60187026D01*
X124099299Y-60080000D01*
X123550701Y-60080000D01*
X123012646Y-60187026D01*
X122505808Y-60396965D01*
X122049666Y-60701750D01*
X121661750Y-61089666D01*
X121356965Y-61545808D01*
X121147026Y-62052646D01*
X121040000Y-62590701D01*
X120705060Y-62590701D01*
X120738096Y-62253778D01*
X120915606Y-61665836D01*
X121203937Y-61123564D01*
X121592094Y-60647636D01*
X122065314Y-60256155D01*
X122605552Y-59964049D01*
X123192244Y-59782437D01*
X123833879Y-59715000D01*
X176497721Y-59715000D01*
X177141222Y-59778096D01*
G36*
X128354724Y-94491829D02*
G01*
X128379378Y-94521870D01*
X128409417Y-94546522D01*
X128499274Y-94620267D01*
X128589663Y-94668581D01*
X128636064Y-94693383D01*
X128784490Y-94738407D01*
X128900174Y-94749801D01*
X128900184Y-94749801D01*
X128938847Y-94753609D01*
X128977510Y-94749801D01*
X129271928Y-94749801D01*
X129271928Y-96150000D01*
X129284188Y-96274482D01*
X129284568Y-96275736D01*
X129092257Y-96313989D01*
X128812905Y-96429701D01*
X128561495Y-96597688D01*
X128347688Y-96811495D01*
X128179701Y-97062905D01*
X128063989Y-97342257D01*
X128005000Y-97638816D01*
X128005000Y-97941184D01*
X128063989Y-98237743D01*
X128179701Y-98517095D01*
X128347688Y-98768505D01*
X128561495Y-98982312D01*
X128812905Y-99150299D01*
X129092257Y-99266011D01*
X129388816Y-99325000D01*
X129691184Y-99325000D01*
X129916610Y-99280160D01*
X130557995Y-99921546D01*
X130527795Y-99966744D01*
X130449774Y-100155102D01*
X130410000Y-100355061D01*
X130410000Y-100558939D01*
X130449774Y-100758898D01*
X130527795Y-100947256D01*
X130641063Y-101116774D01*
X130785226Y-101260937D01*
X130954744Y-101374205D01*
X131143102Y-101452226D01*
X131343061Y-101492000D01*
X131546939Y-101492000D01*
X131746898Y-101452226D01*
X131935256Y-101374205D01*
X132104774Y-101260937D01*
X132248937Y-101116774D01*
X132362205Y-100947256D01*
X132440226Y-100758898D01*
X132480000Y-100558939D01*
X132480000Y-100355061D01*
X132440226Y-100155102D01*
X132362205Y-99966744D01*
X132248937Y-99797226D01*
X132232400Y-99780689D01*
X132232400Y-99733663D01*
X132236208Y-99695000D01*
X132232400Y-99656337D01*
X132232400Y-99656327D01*
X132221006Y-99540643D01*
X132175982Y-99392217D01*
X132102866Y-99255427D01*
X132029121Y-99165570D01*
X132004469Y-99135531D01*
X131974429Y-99110878D01*
X131030160Y-98166610D01*
X131075000Y-97941184D01*
X131075000Y-97638816D01*
X131016011Y-97342257D01*
X130900299Y-97062905D01*
X130732312Y-96811495D01*
X130708889Y-96788072D01*
X131710000Y-96788072D01*
X131834482Y-96775812D01*
X131954180Y-96739502D01*
X132064494Y-96680537D01*
X132161185Y-96601185D01*
X132240537Y-96504494D01*
X132299502Y-96394180D01*
X132305056Y-96375873D01*
X132371495Y-96442312D01*
X132622905Y-96610299D01*
X132902257Y-96726011D01*
X133198816Y-96785000D01*
X133454183Y-96785000D01*
X133427688Y-96811495D01*
X133259701Y-97062905D01*
X133143989Y-97342257D01*
X133085000Y-97638816D01*
X133085000Y-97941184D01*
X133143989Y-98237743D01*
X133259701Y-98517095D01*
X133427688Y-98768505D01*
X133641495Y-98982312D01*
X133892905Y-99150299D01*
X134172257Y-99266011D01*
X134468816Y-99325000D01*
X134771184Y-99325000D01*
X135067743Y-99266011D01*
X135347095Y-99150299D01*
X135598505Y-98982312D01*
X135812312Y-98768505D01*
X135980299Y-98517095D01*
X136096011Y-98237743D01*
X136155000Y-97941184D01*
X136155000Y-97638816D01*
X136096011Y-97342257D01*
X135980299Y-97062905D01*
X135812312Y-96811495D01*
X135598505Y-96597688D01*
X135347095Y-96429701D01*
X135067743Y-96313989D01*
X134771184Y-96255000D01*
X134515817Y-96255000D01*
X134542312Y-96228505D01*
X134710299Y-95977095D01*
X134826011Y-95697743D01*
X134885000Y-95401184D01*
X134885000Y-95098816D01*
X134826011Y-94802257D01*
X134804283Y-94749801D01*
X137502697Y-94749801D01*
X142324724Y-99571829D01*
X142349378Y-99601870D01*
X142379417Y-99626522D01*
X142469274Y-99700267D01*
X142546322Y-99741450D01*
X142606064Y-99773383D01*
X142754490Y-99818407D01*
X142870174Y-99829801D01*
X142870184Y-99829801D01*
X142908847Y-99833609D01*
X142947510Y-99829801D01*
X143744382Y-99829801D01*
X143587688Y-99986495D01*
X143419701Y-100237905D01*
X143303989Y-100517257D01*
X143245000Y-100813816D01*
X143245000Y-101116184D01*
X143303989Y-101412743D01*
X143419701Y-101692095D01*
X143587688Y-101943505D01*
X143614183Y-101970000D01*
X143358816Y-101970000D01*
X143062257Y-102028989D01*
X142782905Y-102144701D01*
X142531495Y-102312688D01*
X142465056Y-102379127D01*
X142459502Y-102360820D01*
X142400537Y-102250506D01*
X142321185Y-102153815D01*
X142224494Y-102074463D01*
X142114180Y-102015498D01*
X141994482Y-101979188D01*
X141870000Y-101966928D01*
X140868889Y-101966928D01*
X140892312Y-101943505D01*
X141060299Y-101692095D01*
X141176011Y-101412743D01*
X141235000Y-101116184D01*
X141235000Y-100813816D01*
X141176011Y-100517257D01*
X141060299Y-100237905D01*
X140892312Y-99986495D01*
X140678505Y-99772688D01*
X140427095Y-99604701D01*
X140147743Y-99488989D01*
X139851184Y-99430000D01*
X139548816Y-99430000D01*
X139252257Y-99488989D01*
X138972905Y-99604701D01*
X138721495Y-99772688D01*
X138507688Y-99986495D01*
X138339701Y-100237905D01*
X138223989Y-100517257D01*
X138165000Y-100813816D01*
X138165000Y-101116184D01*
X138223989Y-101412743D01*
X138339701Y-101692095D01*
X138507688Y-101943505D01*
X138721495Y-102157312D01*
X138972905Y-102325299D01*
X139252257Y-102441011D01*
X139444568Y-102479264D01*
X139444188Y-102480518D01*
X139431928Y-102605000D01*
X139431928Y-104405000D01*
X139444188Y-104529482D01*
X139444568Y-104530736D01*
X139252257Y-104568989D01*
X138972905Y-104684701D01*
X138721495Y-104852688D01*
X138507688Y-105066495D01*
X138339701Y-105317905D01*
X138223989Y-105597257D01*
X138165000Y-105893816D01*
X138165000Y-106196184D01*
X138223989Y-106492743D01*
X138339701Y-106772095D01*
X138507688Y-107023505D01*
X138721495Y-107237312D01*
X138972905Y-107405299D01*
X139252257Y-107521011D01*
X139548816Y-107580000D01*
X139851184Y-107580000D01*
X140147743Y-107521011D01*
X140427095Y-107405299D01*
X140678505Y-107237312D01*
X140892312Y-107023505D01*
X141060299Y-106772095D01*
X141176011Y-106492743D01*
X141235000Y-106196184D01*
X141235000Y-105893816D01*
X141176011Y-105597257D01*
X141060299Y-105317905D01*
X140892312Y-105066495D01*
X140868889Y-105043072D01*
X141870000Y-105043072D01*
X141994482Y-105030812D01*
X142114180Y-104994502D01*
X142224494Y-104935537D01*
X142321185Y-104856185D01*
X142400537Y-104759494D01*
X142459502Y-104649180D01*
X142465056Y-104630873D01*
X142531495Y-104697312D01*
X142782905Y-104865299D01*
X143062257Y-104981011D01*
X143358816Y-105040000D01*
X143614183Y-105040000D01*
X143587688Y-105066495D01*
X143419701Y-105317905D01*
X143303989Y-105597257D01*
X143245000Y-105893816D01*
X143245000Y-106196184D01*
X143303989Y-106492743D01*
X143419701Y-106772095D01*
X143587688Y-107023505D01*
X143801495Y-107237312D01*
X144052905Y-107405299D01*
X144332257Y-107521011D01*
X144628816Y-107580000D01*
X144931184Y-107580000D01*
X145227743Y-107521011D01*
X145507095Y-107405299D01*
X145758505Y-107237312D01*
X145972312Y-107023505D01*
X146140299Y-106772095D01*
X146256011Y-106492743D01*
X146315000Y-106196184D01*
X146315000Y-105893816D01*
X146256011Y-105597257D01*
X146158644Y-105362195D01*
X146464840Y-105668391D01*
X146420000Y-105893816D01*
X146420000Y-106196184D01*
X146478989Y-106492743D01*
X146594701Y-106772095D01*
X146762688Y-107023505D01*
X146976495Y-107237312D01*
X147227905Y-107405299D01*
X147507257Y-107521011D01*
X147803816Y-107580000D01*
X148106184Y-107580000D01*
X148402743Y-107521011D01*
X148682095Y-107405299D01*
X148933505Y-107237312D01*
X149147312Y-107023505D01*
X149315299Y-106772095D01*
X149431011Y-106492743D01*
X149469264Y-106300432D01*
X149470518Y-106300812D01*
X149595000Y-106313072D01*
X151395000Y-106313072D01*
X151519482Y-106300812D01*
X151520736Y-106300432D01*
X151558989Y-106492743D01*
X151674701Y-106772095D01*
X151842688Y-107023505D01*
X152056495Y-107237312D01*
X152307905Y-107405299D01*
X152587257Y-107521011D01*
X152883816Y-107580000D01*
X153186184Y-107580000D01*
X153482743Y-107521011D01*
X153762095Y-107405299D01*
X154013505Y-107237312D01*
X154227312Y-107023505D01*
X154395299Y-106772095D01*
X154511011Y-106492743D01*
X154570000Y-106196184D01*
X154570000Y-105893816D01*
X154511011Y-105597257D01*
X154395299Y-105317905D01*
X154227312Y-105066495D01*
X154013505Y-104852688D01*
X153762095Y-104684701D01*
X153482743Y-104568989D01*
X153186184Y-104510000D01*
X152883816Y-104510000D01*
X152587257Y-104568989D01*
X152307905Y-104684701D01*
X152056495Y-104852688D01*
X152033072Y-104876111D01*
X152033072Y-103875000D01*
X152020812Y-103750518D01*
X151984502Y-103630820D01*
X151925537Y-103520506D01*
X151846185Y-103423815D01*
X151749494Y-103344463D01*
X151639180Y-103285498D01*
X151620873Y-103279944D01*
X151687312Y-103213505D01*
X151855299Y-102962095D01*
X151971011Y-102682743D01*
X152030000Y-102386184D01*
X152030000Y-102130817D01*
X152056495Y-102157312D01*
X152307905Y-102325299D01*
X152587257Y-102441011D01*
X152883816Y-102500000D01*
X153186184Y-102500000D01*
X153231842Y-102490918D01*
X155258818Y-104517896D01*
X155288246Y-104553754D01*
X155324104Y-104583182D01*
X155324106Y-104583184D01*
X155431348Y-104671196D01*
X155495394Y-104705429D01*
X155594614Y-104758463D01*
X155608562Y-104762694D01*
X155613480Y-104767612D01*
X155799376Y-104891824D01*
X156005933Y-104977383D01*
X156225212Y-105021000D01*
X156448788Y-105021000D01*
X156668067Y-104977383D01*
X156874624Y-104891824D01*
X157060520Y-104767612D01*
X157218612Y-104609520D01*
X157342824Y-104423624D01*
X157428383Y-104217067D01*
X157472000Y-103997788D01*
X157472000Y-103774212D01*
X157428383Y-103554933D01*
X157342824Y-103348376D01*
X157218612Y-103162480D01*
X157060520Y-103004388D01*
X156874624Y-102880176D01*
X156668067Y-102794617D01*
X156448788Y-102751000D01*
X156225212Y-102751000D01*
X156162543Y-102763466D01*
X154560918Y-101161842D01*
X154570000Y-101116184D01*
X154570000Y-100813816D01*
X154511011Y-100517257D01*
X154479010Y-100439999D01*
X158127449Y-100439999D01*
X160469480Y-102782032D01*
X160494130Y-102812068D01*
X160524166Y-102836718D01*
X160524168Y-102836720D01*
X160562922Y-102868524D01*
X160614027Y-102910465D01*
X160750816Y-102983581D01*
X160899242Y-103028605D01*
X161014926Y-103039999D01*
X161014935Y-103039999D01*
X161053598Y-103043807D01*
X161092261Y-103039999D01*
X161726138Y-103039999D01*
X161718989Y-103057257D01*
X161660000Y-103353816D01*
X161660000Y-103656184D01*
X161718989Y-103952743D01*
X161834701Y-104232095D01*
X162002688Y-104483505D01*
X162029183Y-104510000D01*
X161773816Y-104510000D01*
X161477257Y-104568989D01*
X161197905Y-104684701D01*
X160946495Y-104852688D01*
X160732688Y-105066495D01*
X160564701Y-105317905D01*
X160448989Y-105597257D01*
X160390000Y-105893816D01*
X160390000Y-106196184D01*
X160448989Y-106492743D01*
X160564701Y-106772095D01*
X160732688Y-107023505D01*
X160946495Y-107237312D01*
X161197905Y-107405299D01*
X161477257Y-107521011D01*
X161773816Y-107580000D01*
X162076184Y-107580000D01*
X162372743Y-107521011D01*
X162652095Y-107405299D01*
X162903505Y-107237312D01*
X163117312Y-107023505D01*
X163285299Y-106772095D01*
X163401011Y-106492743D01*
X163460000Y-106196184D01*
X163460000Y-105893816D01*
X163401011Y-105597257D01*
X163285299Y-105317905D01*
X163117312Y-105066495D01*
X163090817Y-105040000D01*
X163346184Y-105040000D01*
X163642743Y-104981011D01*
X163922095Y-104865299D01*
X164173505Y-104697312D01*
X164239944Y-104630873D01*
X164245498Y-104649180D01*
X164304463Y-104759494D01*
X164383815Y-104856185D01*
X164480506Y-104935537D01*
X164590820Y-104994502D01*
X164710518Y-105030812D01*
X164835000Y-105043072D01*
X165836111Y-105043072D01*
X165812688Y-105066495D01*
X165644701Y-105317905D01*
X165528989Y-105597257D01*
X165470000Y-105893816D01*
X165470000Y-106196184D01*
X165528989Y-106492743D01*
X165644701Y-106772095D01*
X165812688Y-107023505D01*
X166026495Y-107237312D01*
X166277905Y-107405299D01*
X166353423Y-107436580D01*
X164214404Y-109575600D01*
X141875029Y-109575600D01*
X141760937Y-109514616D01*
X141612511Y-109469592D01*
X141496827Y-109458198D01*
X141496817Y-109458198D01*
X141458154Y-109454390D01*
X141419491Y-109458198D01*
X138812395Y-109458198D01*
X125889999Y-96535803D01*
X125889999Y-93563072D01*
X127215000Y-93563072D01*
X127339482Y-93550812D01*
X127396432Y-93533536D01*
X128354724Y-94491829D01*
G37*
X128354724Y-94491829D02*
X128379378Y-94521870D01*
X128409417Y-94546522D01*
X128499274Y-94620267D01*
X128589663Y-94668581D01*
X128636064Y-94693383D01*
X128784490Y-94738407D01*
X128900174Y-94749801D01*
X128900184Y-94749801D01*
X128938847Y-94753609D01*
X128977510Y-94749801D01*
X129271928Y-94749801D01*
X129271928Y-96150000D01*
X129284188Y-96274482D01*
X129284568Y-96275736D01*
X129092257Y-96313989D01*
X128812905Y-96429701D01*
X128561495Y-96597688D01*
X128347688Y-96811495D01*
X128179701Y-97062905D01*
X128063989Y-97342257D01*
X128005000Y-97638816D01*
X128005000Y-97941184D01*
X128063989Y-98237743D01*
X128179701Y-98517095D01*
X128347688Y-98768505D01*
X128561495Y-98982312D01*
X128812905Y-99150299D01*
X129092257Y-99266011D01*
X129388816Y-99325000D01*
X129691184Y-99325000D01*
X129916610Y-99280160D01*
X130557995Y-99921546D01*
X130527795Y-99966744D01*
X130449774Y-100155102D01*
X130410000Y-100355061D01*
X130410000Y-100558939D01*
X130449774Y-100758898D01*
X130527795Y-100947256D01*
X130641063Y-101116774D01*
X130785226Y-101260937D01*
X130954744Y-101374205D01*
X131143102Y-101452226D01*
X131343061Y-101492000D01*
X131546939Y-101492000D01*
X131746898Y-101452226D01*
X131935256Y-101374205D01*
X132104774Y-101260937D01*
X132248937Y-101116774D01*
X132362205Y-100947256D01*
X132440226Y-100758898D01*
X132480000Y-100558939D01*
X132480000Y-100355061D01*
X132440226Y-100155102D01*
X132362205Y-99966744D01*
X132248937Y-99797226D01*
X132232400Y-99780689D01*
X132232400Y-99733663D01*
X132236208Y-99695000D01*
X132232400Y-99656337D01*
X132232400Y-99656327D01*
X132221006Y-99540643D01*
X132175982Y-99392217D01*
X132102866Y-99255427D01*
X132029121Y-99165570D01*
X132004469Y-99135531D01*
X131974429Y-99110878D01*
X131030160Y-98166610D01*
X131075000Y-97941184D01*
X131075000Y-97638816D01*
X131016011Y-97342257D01*
X130900299Y-97062905D01*
X130732312Y-96811495D01*
X130708889Y-96788072D01*
X131710000Y-96788072D01*
X131834482Y-96775812D01*
X131954180Y-96739502D01*
X132064494Y-96680537D01*
X132161185Y-96601185D01*
X132240537Y-96504494D01*
X132299502Y-96394180D01*
X132305056Y-96375873D01*
X132371495Y-96442312D01*
X132622905Y-96610299D01*
X132902257Y-96726011D01*
X133198816Y-96785000D01*
X133454183Y-96785000D01*
X133427688Y-96811495D01*
X133259701Y-97062905D01*
X133143989Y-97342257D01*
X133085000Y-97638816D01*
X133085000Y-97941184D01*
X133143989Y-98237743D01*
X133259701Y-98517095D01*
X133427688Y-98768505D01*
X133641495Y-98982312D01*
X133892905Y-99150299D01*
X134172257Y-99266011D01*
X134468816Y-99325000D01*
X134771184Y-99325000D01*
X135067743Y-99266011D01*
X135347095Y-99150299D01*
X135598505Y-98982312D01*
X135812312Y-98768505D01*
X135980299Y-98517095D01*
X136096011Y-98237743D01*
X136155000Y-97941184D01*
X136155000Y-97638816D01*
X136096011Y-97342257D01*
X135980299Y-97062905D01*
X135812312Y-96811495D01*
X135598505Y-96597688D01*
X135347095Y-96429701D01*
X135067743Y-96313989D01*
X134771184Y-96255000D01*
X134515817Y-96255000D01*
X134542312Y-96228505D01*
X134710299Y-95977095D01*
X134826011Y-95697743D01*
X134885000Y-95401184D01*
X134885000Y-95098816D01*
X134826011Y-94802257D01*
X134804283Y-94749801D01*
X137502697Y-94749801D01*
X142324724Y-99571829D01*
X142349378Y-99601870D01*
X142379417Y-99626522D01*
X142469274Y-99700267D01*
X142546322Y-99741450D01*
X142606064Y-99773383D01*
X142754490Y-99818407D01*
X142870174Y-99829801D01*
X142870184Y-99829801D01*
X142908847Y-99833609D01*
X142947510Y-99829801D01*
X143744382Y-99829801D01*
X143587688Y-99986495D01*
X143419701Y-100237905D01*
X143303989Y-100517257D01*
X143245000Y-100813816D01*
X143245000Y-101116184D01*
X143303989Y-101412743D01*
X143419701Y-101692095D01*
X143587688Y-101943505D01*
X143614183Y-101970000D01*
X143358816Y-101970000D01*
X143062257Y-102028989D01*
X142782905Y-102144701D01*
X142531495Y-102312688D01*
X142465056Y-102379127D01*
X142459502Y-102360820D01*
X142400537Y-102250506D01*
X142321185Y-102153815D01*
X142224494Y-102074463D01*
X142114180Y-102015498D01*
X141994482Y-101979188D01*
X141870000Y-101966928D01*
X140868889Y-101966928D01*
X140892312Y-101943505D01*
X141060299Y-101692095D01*
X141176011Y-101412743D01*
X141235000Y-101116184D01*
X141235000Y-100813816D01*
X141176011Y-100517257D01*
X141060299Y-100237905D01*
X140892312Y-99986495D01*
X140678505Y-99772688D01*
X140427095Y-99604701D01*
X140147743Y-99488989D01*
X139851184Y-99430000D01*
X139548816Y-99430000D01*
X139252257Y-99488989D01*
X138972905Y-99604701D01*
X138721495Y-99772688D01*
X138507688Y-99986495D01*
X138339701Y-100237905D01*
X138223989Y-100517257D01*
X138165000Y-100813816D01*
X138165000Y-101116184D01*
X138223989Y-101412743D01*
X138339701Y-101692095D01*
X138507688Y-101943505D01*
X138721495Y-102157312D01*
X138972905Y-102325299D01*
X139252257Y-102441011D01*
X139444568Y-102479264D01*
X139444188Y-102480518D01*
X139431928Y-102605000D01*
X139431928Y-104405000D01*
X139444188Y-104529482D01*
X139444568Y-104530736D01*
X139252257Y-104568989D01*
X138972905Y-104684701D01*
X138721495Y-104852688D01*
X138507688Y-105066495D01*
X138339701Y-105317905D01*
X138223989Y-105597257D01*
X138165000Y-105893816D01*
X138165000Y-106196184D01*
X138223989Y-106492743D01*
X138339701Y-106772095D01*
X138507688Y-107023505D01*
X138721495Y-107237312D01*
X138972905Y-107405299D01*
X139252257Y-107521011D01*
X139548816Y-107580000D01*
X139851184Y-107580000D01*
X140147743Y-107521011D01*
X140427095Y-107405299D01*
X140678505Y-107237312D01*
X140892312Y-107023505D01*
X141060299Y-106772095D01*
X141176011Y-106492743D01*
X141235000Y-106196184D01*
X141235000Y-105893816D01*
X141176011Y-105597257D01*
X141060299Y-105317905D01*
X140892312Y-105066495D01*
X140868889Y-105043072D01*
X141870000Y-105043072D01*
X141994482Y-105030812D01*
X142114180Y-104994502D01*
X142224494Y-104935537D01*
X142321185Y-104856185D01*
X142400537Y-104759494D01*
X142459502Y-104649180D01*
X142465056Y-104630873D01*
X142531495Y-104697312D01*
X142782905Y-104865299D01*
X143062257Y-104981011D01*
X143358816Y-105040000D01*
X143614183Y-105040000D01*
X143587688Y-105066495D01*
X143419701Y-105317905D01*
X143303989Y-105597257D01*
X143245000Y-105893816D01*
X143245000Y-106196184D01*
X143303989Y-106492743D01*
X143419701Y-106772095D01*
X143587688Y-107023505D01*
X143801495Y-107237312D01*
X144052905Y-107405299D01*
X144332257Y-107521011D01*
X144628816Y-107580000D01*
X144931184Y-107580000D01*
X145227743Y-107521011D01*
X145507095Y-107405299D01*
X145758505Y-107237312D01*
X145972312Y-107023505D01*
X146140299Y-106772095D01*
X146256011Y-106492743D01*
X146315000Y-106196184D01*
X146315000Y-105893816D01*
X146256011Y-105597257D01*
X146158644Y-105362195D01*
X146464840Y-105668391D01*
X146420000Y-105893816D01*
X146420000Y-106196184D01*
X146478989Y-106492743D01*
X146594701Y-106772095D01*
X146762688Y-107023505D01*
X146976495Y-107237312D01*
X147227905Y-107405299D01*
X147507257Y-107521011D01*
X147803816Y-107580000D01*
X148106184Y-107580000D01*
X148402743Y-107521011D01*
X148682095Y-107405299D01*
X148933505Y-107237312D01*
X149147312Y-107023505D01*
X149315299Y-106772095D01*
X149431011Y-106492743D01*
X149469264Y-106300432D01*
X149470518Y-106300812D01*
X149595000Y-106313072D01*
X151395000Y-106313072D01*
X151519482Y-106300812D01*
X151520736Y-106300432D01*
X151558989Y-106492743D01*
X151674701Y-106772095D01*
X151842688Y-107023505D01*
X152056495Y-107237312D01*
X152307905Y-107405299D01*
X152587257Y-107521011D01*
X152883816Y-107580000D01*
X153186184Y-107580000D01*
X153482743Y-107521011D01*
X153762095Y-107405299D01*
X154013505Y-107237312D01*
X154227312Y-107023505D01*
X154395299Y-106772095D01*
X154511011Y-106492743D01*
X154570000Y-106196184D01*
X154570000Y-105893816D01*
X154511011Y-105597257D01*
X154395299Y-105317905D01*
X154227312Y-105066495D01*
X154013505Y-104852688D01*
X153762095Y-104684701D01*
X153482743Y-104568989D01*
X153186184Y-104510000D01*
X152883816Y-104510000D01*
X152587257Y-104568989D01*
X152307905Y-104684701D01*
X152056495Y-104852688D01*
X152033072Y-104876111D01*
X152033072Y-103875000D01*
X152020812Y-103750518D01*
X151984502Y-103630820D01*
X151925537Y-103520506D01*
X151846185Y-103423815D01*
X151749494Y-103344463D01*
X151639180Y-103285498D01*
X151620873Y-103279944D01*
X151687312Y-103213505D01*
X151855299Y-102962095D01*
X151971011Y-102682743D01*
X152030000Y-102386184D01*
X152030000Y-102130817D01*
X152056495Y-102157312D01*
X152307905Y-102325299D01*
X152587257Y-102441011D01*
X152883816Y-102500000D01*
X153186184Y-102500000D01*
X153231842Y-102490918D01*
X155258818Y-104517896D01*
X155288246Y-104553754D01*
X155324104Y-104583182D01*
X155324106Y-104583184D01*
X155431348Y-104671196D01*
X155495394Y-104705429D01*
X155594614Y-104758463D01*
X155608562Y-104762694D01*
X155613480Y-104767612D01*
X155799376Y-104891824D01*
X156005933Y-104977383D01*
X156225212Y-105021000D01*
X156448788Y-105021000D01*
X156668067Y-104977383D01*
X156874624Y-104891824D01*
X157060520Y-104767612D01*
X157218612Y-104609520D01*
X157342824Y-104423624D01*
X157428383Y-104217067D01*
X157472000Y-103997788D01*
X157472000Y-103774212D01*
X157428383Y-103554933D01*
X157342824Y-103348376D01*
X157218612Y-103162480D01*
X157060520Y-103004388D01*
X156874624Y-102880176D01*
X156668067Y-102794617D01*
X156448788Y-102751000D01*
X156225212Y-102751000D01*
X156162543Y-102763466D01*
X154560918Y-101161842D01*
X154570000Y-101116184D01*
X154570000Y-100813816D01*
X154511011Y-100517257D01*
X154479010Y-100439999D01*
X158127449Y-100439999D01*
X160469480Y-102782032D01*
X160494130Y-102812068D01*
X160524166Y-102836718D01*
X160524168Y-102836720D01*
X160562922Y-102868524D01*
X160614027Y-102910465D01*
X160750816Y-102983581D01*
X160899242Y-103028605D01*
X161014926Y-103039999D01*
X161014935Y-103039999D01*
X161053598Y-103043807D01*
X161092261Y-103039999D01*
X161726138Y-103039999D01*
X161718989Y-103057257D01*
X161660000Y-103353816D01*
X161660000Y-103656184D01*
X161718989Y-103952743D01*
X161834701Y-104232095D01*
X162002688Y-104483505D01*
X162029183Y-104510000D01*
X161773816Y-104510000D01*
X161477257Y-104568989D01*
X161197905Y-104684701D01*
X160946495Y-104852688D01*
X160732688Y-105066495D01*
X160564701Y-105317905D01*
X160448989Y-105597257D01*
X160390000Y-105893816D01*
X160390000Y-106196184D01*
X160448989Y-106492743D01*
X160564701Y-106772095D01*
X160732688Y-107023505D01*
X160946495Y-107237312D01*
X161197905Y-107405299D01*
X161477257Y-107521011D01*
X161773816Y-107580000D01*
X162076184Y-107580000D01*
X162372743Y-107521011D01*
X162652095Y-107405299D01*
X162903505Y-107237312D01*
X163117312Y-107023505D01*
X163285299Y-106772095D01*
X163401011Y-106492743D01*
X163460000Y-106196184D01*
X163460000Y-105893816D01*
X163401011Y-105597257D01*
X163285299Y-105317905D01*
X163117312Y-105066495D01*
X163090817Y-105040000D01*
X163346184Y-105040000D01*
X163642743Y-104981011D01*
X163922095Y-104865299D01*
X164173505Y-104697312D01*
X164239944Y-104630873D01*
X164245498Y-104649180D01*
X164304463Y-104759494D01*
X164383815Y-104856185D01*
X164480506Y-104935537D01*
X164590820Y-104994502D01*
X164710518Y-105030812D01*
X164835000Y-105043072D01*
X165836111Y-105043072D01*
X165812688Y-105066495D01*
X165644701Y-105317905D01*
X165528989Y-105597257D01*
X165470000Y-105893816D01*
X165470000Y-106196184D01*
X165528989Y-106492743D01*
X165644701Y-106772095D01*
X165812688Y-107023505D01*
X166026495Y-107237312D01*
X166277905Y-107405299D01*
X166353423Y-107436580D01*
X164214404Y-109575600D01*
X141875029Y-109575600D01*
X141760937Y-109514616D01*
X141612511Y-109469592D01*
X141496827Y-109458198D01*
X141496817Y-109458198D01*
X141458154Y-109454390D01*
X141419491Y-109458198D01*
X138812395Y-109458198D01*
X125889999Y-96535803D01*
X125889999Y-93563072D01*
X127215000Y-93563072D01*
X127339482Y-93550812D01*
X127396432Y-93533536D01*
X128354724Y-94491829D01*
G36*
X177901601Y-90702063D02*
G01*
X177901600Y-95385202D01*
X174373163Y-98913641D01*
X174343122Y-98938295D01*
X174296804Y-98994734D01*
X174244725Y-99058192D01*
X174171608Y-99194982D01*
X174126585Y-99343407D01*
X174111382Y-99497764D01*
X174115191Y-99536437D01*
X174115190Y-103333580D01*
X173203072Y-104245699D01*
X173203072Y-101755000D01*
X173190812Y-101630518D01*
X173154502Y-101510820D01*
X173095537Y-101400506D01*
X173016185Y-101303815D01*
X172919494Y-101224463D01*
X172809180Y-101165498D01*
X172689482Y-101129188D01*
X172565000Y-101116928D01*
X169109622Y-101116928D01*
X169891939Y-100334612D01*
X172575125Y-100334612D01*
X172613788Y-100338420D01*
X172652451Y-100334612D01*
X172652461Y-100334612D01*
X172768145Y-100323218D01*
X172916571Y-100278194D01*
X173053360Y-100205078D01*
X173173257Y-100106681D01*
X173197916Y-100076635D01*
X175154434Y-98120118D01*
X175184469Y-98095469D01*
X175225222Y-98045812D01*
X175282865Y-97975573D01*
X175282867Y-97975571D01*
X175355982Y-97838783D01*
X175401006Y-97690357D01*
X175412400Y-97574673D01*
X175412400Y-97574664D01*
X175416208Y-97536001D01*
X175412400Y-97497338D01*
X175412400Y-93563072D01*
X176745000Y-93563072D01*
X176869482Y-93550812D01*
X176989180Y-93514502D01*
X177099494Y-93455537D01*
X177196185Y-93376185D01*
X177275537Y-93279494D01*
X177334502Y-93169180D01*
X177370812Y-93049482D01*
X177383072Y-92925000D01*
X177383072Y-91225000D01*
X177370812Y-91100518D01*
X177334502Y-90980820D01*
X177275537Y-90870506D01*
X177196185Y-90773815D01*
X177099494Y-90694463D01*
X176989180Y-90635498D01*
X176916620Y-90613487D01*
X177048475Y-90481632D01*
X177210990Y-90238411D01*
X177277465Y-90077926D01*
X177901601Y-90702063D01*
G37*
X177901601Y-90702063D02*
X177901600Y-95385202D01*
X174373163Y-98913641D01*
X174343122Y-98938295D01*
X174296804Y-98994734D01*
X174244725Y-99058192D01*
X174171608Y-99194982D01*
X174126585Y-99343407D01*
X174111382Y-99497764D01*
X174115191Y-99536437D01*
X174115190Y-103333580D01*
X173203072Y-104245699D01*
X173203072Y-101755000D01*
X173190812Y-101630518D01*
X173154502Y-101510820D01*
X173095537Y-101400506D01*
X173016185Y-101303815D01*
X172919494Y-101224463D01*
X172809180Y-101165498D01*
X172689482Y-101129188D01*
X172565000Y-101116928D01*
X169109622Y-101116928D01*
X169891939Y-100334612D01*
X172575125Y-100334612D01*
X172613788Y-100338420D01*
X172652451Y-100334612D01*
X172652461Y-100334612D01*
X172768145Y-100323218D01*
X172916571Y-100278194D01*
X173053360Y-100205078D01*
X173173257Y-100106681D01*
X173197916Y-100076635D01*
X175154434Y-98120118D01*
X175184469Y-98095469D01*
X175225222Y-98045812D01*
X175282865Y-97975573D01*
X175282867Y-97975571D01*
X175355982Y-97838783D01*
X175401006Y-97690357D01*
X175412400Y-97574673D01*
X175412400Y-97574664D01*
X175416208Y-97536001D01*
X175412400Y-97497338D01*
X175412400Y-93563072D01*
X176745000Y-93563072D01*
X176869482Y-93550812D01*
X176989180Y-93514502D01*
X177099494Y-93455537D01*
X177196185Y-93376185D01*
X177275537Y-93279494D01*
X177334502Y-93169180D01*
X177370812Y-93049482D01*
X177383072Y-92925000D01*
X177383072Y-91225000D01*
X177370812Y-91100518D01*
X177334502Y-90980820D01*
X177275537Y-90870506D01*
X177196185Y-90773815D01*
X177099494Y-90694463D01*
X176989180Y-90635498D01*
X176916620Y-90613487D01*
X177048475Y-90481632D01*
X177210990Y-90238411D01*
X177277465Y-90077926D01*
X177901601Y-90702063D01*
G36*
X173790155Y-67842705D02*
G01*
X173630973Y-67760037D01*
X173354022Y-67858036D01*
X173101512Y-68008183D01*
X172883146Y-68204707D01*
X172707316Y-68440056D01*
X172580778Y-68705186D01*
X172535042Y-68855974D01*
X172656183Y-69088000D01*
X173863000Y-69088000D01*
X173863000Y-69068000D01*
X174117000Y-69068000D01*
X174117000Y-69088000D01*
X174137000Y-69088000D01*
X174137000Y-69342000D01*
X174117000Y-69342000D01*
X174117000Y-69362000D01*
X173863000Y-69362000D01*
X173863000Y-69342000D01*
X172656183Y-69342000D01*
X172535042Y-69574026D01*
X172580778Y-69724814D01*
X172707316Y-69989944D01*
X172883146Y-70225293D01*
X173101512Y-70421817D01*
X173200103Y-70480441D01*
X173034698Y-70590961D01*
X172825961Y-70799698D01*
X172661958Y-71045147D01*
X172548990Y-71317875D01*
X172491400Y-71607401D01*
X172491400Y-71902599D01*
X172548990Y-72192125D01*
X172661958Y-72464853D01*
X172825961Y-72710302D01*
X173034698Y-72919039D01*
X173193281Y-73025000D01*
X173034698Y-73130961D01*
X172825961Y-73339698D01*
X172661958Y-73585147D01*
X172548990Y-73857875D01*
X172491400Y-74147401D01*
X172491400Y-74442599D01*
X172548990Y-74732125D01*
X172661958Y-75004853D01*
X172825961Y-75250302D01*
X173034698Y-75459039D01*
X173193281Y-75565000D01*
X173034698Y-75670961D01*
X172825961Y-75879698D01*
X172661958Y-76125147D01*
X172548990Y-76397875D01*
X172491400Y-76687401D01*
X172491400Y-76982599D01*
X172548990Y-77272125D01*
X172661958Y-77544853D01*
X172825961Y-77790302D01*
X173034698Y-77999039D01*
X173280147Y-78163042D01*
X173552875Y-78276010D01*
X173842401Y-78333600D01*
X174137599Y-78333600D01*
X174427125Y-78276010D01*
X174526600Y-78234806D01*
X174526600Y-79426972D01*
X174522791Y-79465645D01*
X174537994Y-79620002D01*
X174583017Y-79768427D01*
X174618242Y-79834327D01*
X174656134Y-79905217D01*
X174754531Y-80025114D01*
X174784572Y-80049768D01*
X175294676Y-80559872D01*
X175263748Y-80570843D01*
X175013645Y-80719822D01*
X174797412Y-80914731D01*
X174623359Y-81148080D01*
X174498175Y-81410901D01*
X174453524Y-81558110D01*
X174574845Y-81788000D01*
X175768000Y-81788000D01*
X175768000Y-81768000D01*
X176022000Y-81768000D01*
X176022000Y-81788000D01*
X176042000Y-81788000D01*
X176042000Y-82042000D01*
X176022000Y-82042000D01*
X176022000Y-82062000D01*
X175768000Y-82062000D01*
X175768000Y-82042000D01*
X174574845Y-82042000D01*
X174453524Y-82271890D01*
X174498175Y-82419099D01*
X174623359Y-82681920D01*
X174797412Y-82915269D01*
X175013645Y-83110178D01*
X175130534Y-83179805D01*
X174948368Y-83301525D01*
X174741525Y-83508368D01*
X174579010Y-83751589D01*
X174467068Y-84021842D01*
X174410000Y-84308740D01*
X174410000Y-84601260D01*
X174467068Y-84888158D01*
X174579010Y-85158411D01*
X174741525Y-85401632D01*
X174948368Y-85608475D01*
X175122760Y-85725000D01*
X174948368Y-85841525D01*
X174741525Y-86048368D01*
X174579010Y-86291589D01*
X174467068Y-86561842D01*
X174410000Y-86848740D01*
X174410000Y-87141260D01*
X174467068Y-87428158D01*
X174579010Y-87698411D01*
X174741525Y-87941632D01*
X174948368Y-88148475D01*
X175122760Y-88265000D01*
X174948368Y-88381525D01*
X174741525Y-88588368D01*
X174579010Y-88831589D01*
X174467068Y-89101842D01*
X174410000Y-89388740D01*
X174410000Y-89681260D01*
X174447362Y-89869088D01*
X174095573Y-90220877D01*
X174065532Y-90245531D01*
X174040879Y-90275571D01*
X173967135Y-90365428D01*
X173894018Y-90502218D01*
X173848995Y-90650643D01*
X173833792Y-90805000D01*
X173837601Y-90843673D01*
X173837600Y-96608327D01*
X173837600Y-97209848D01*
X172854801Y-98192648D01*
X172854801Y-95144063D01*
X172858609Y-95105400D01*
X172854801Y-95066737D01*
X172854801Y-95066728D01*
X172843407Y-94951044D01*
X172798383Y-94802618D01*
X172725267Y-94665829D01*
X172687875Y-94620267D01*
X172651522Y-94575970D01*
X172651520Y-94575968D01*
X172626870Y-94545932D01*
X172596834Y-94521282D01*
X171885684Y-93810133D01*
X172007312Y-93688505D01*
X172175299Y-93437095D01*
X172291011Y-93157743D01*
X172350000Y-92861184D01*
X172350000Y-92558816D01*
X172291011Y-92262257D01*
X172175299Y-91982905D01*
X172007312Y-91731495D01*
X171793505Y-91517688D01*
X171542095Y-91349701D01*
X171262743Y-91233989D01*
X170966184Y-91175000D01*
X170663816Y-91175000D01*
X170367257Y-91233989D01*
X170087905Y-91349701D01*
X169836495Y-91517688D01*
X169697400Y-91656783D01*
X169697400Y-90855004D01*
X169888505Y-90727312D01*
X170102312Y-90513505D01*
X170270299Y-90262095D01*
X170386011Y-89982743D01*
X170445000Y-89686184D01*
X170445000Y-89383816D01*
X170386011Y-89087257D01*
X170270299Y-88807905D01*
X170102312Y-88556495D01*
X169888505Y-88342688D01*
X169637095Y-88174701D01*
X169357743Y-88058989D01*
X169165432Y-88020736D01*
X169165812Y-88019482D01*
X169178072Y-87895000D01*
X169178072Y-86095000D01*
X169165812Y-85970518D01*
X169165432Y-85969264D01*
X169357743Y-85931011D01*
X169637095Y-85815299D01*
X169888505Y-85647312D01*
X170102312Y-85433505D01*
X170270299Y-85182095D01*
X170282262Y-85153214D01*
X170386102Y-85196226D01*
X170586061Y-85236000D01*
X170789939Y-85236000D01*
X170989898Y-85196226D01*
X171178256Y-85118205D01*
X171347774Y-85004937D01*
X171491937Y-84860774D01*
X171605205Y-84691256D01*
X171683226Y-84502898D01*
X171723000Y-84302939D01*
X171723000Y-84099061D01*
X171683226Y-83899102D01*
X171605205Y-83710744D01*
X171491937Y-83541226D01*
X171347774Y-83397063D01*
X171178256Y-83283795D01*
X170989898Y-83205774D01*
X170789939Y-83166000D01*
X170766551Y-83166000D01*
X170348999Y-82748448D01*
X170367257Y-82756011D01*
X170663816Y-82815000D01*
X170966184Y-82815000D01*
X171262743Y-82756011D01*
X171542095Y-82640299D01*
X171793505Y-82472312D01*
X172007312Y-82258505D01*
X172175299Y-82007095D01*
X172291011Y-81727743D01*
X172350000Y-81431184D01*
X172350000Y-81128816D01*
X172291011Y-80832257D01*
X172175299Y-80552905D01*
X172007312Y-80301495D01*
X171793505Y-80087688D01*
X171542095Y-79919701D01*
X171262743Y-79803989D01*
X171070432Y-79765736D01*
X171070812Y-79764482D01*
X171083072Y-79640000D01*
X171083072Y-77840000D01*
X171070812Y-77715518D01*
X171070432Y-77714264D01*
X171262743Y-77676011D01*
X171542095Y-77560299D01*
X171793505Y-77392312D01*
X172007312Y-77178505D01*
X172175299Y-76927095D01*
X172291011Y-76647743D01*
X172350000Y-76351184D01*
X172350000Y-76048816D01*
X172291011Y-75752257D01*
X172175299Y-75472905D01*
X172007312Y-75221495D01*
X171793505Y-75007688D01*
X171542095Y-74839701D01*
X171262743Y-74723989D01*
X170966184Y-74665000D01*
X170663816Y-74665000D01*
X170367257Y-74723989D01*
X170087905Y-74839701D01*
X169836495Y-75007688D01*
X169622688Y-75221495D01*
X169454701Y-75472905D01*
X169338989Y-75752257D01*
X169280000Y-76048816D01*
X169280000Y-76351184D01*
X169338989Y-76647743D01*
X169454701Y-76927095D01*
X169622688Y-77178505D01*
X169646111Y-77201928D01*
X168645000Y-77201928D01*
X168520518Y-77214188D01*
X168400820Y-77250498D01*
X168290506Y-77309463D01*
X168193815Y-77388815D01*
X168114463Y-77485506D01*
X168055498Y-77595820D01*
X168049944Y-77614127D01*
X167983505Y-77547688D01*
X167944800Y-77521826D01*
X167944800Y-77516156D01*
X167949346Y-77469999D01*
X167944800Y-77423842D01*
X167944800Y-77423833D01*
X167931202Y-77285767D01*
X167877463Y-77108614D01*
X167790196Y-76945349D01*
X167718400Y-76857866D01*
X167702183Y-76838105D01*
X167702182Y-76838104D01*
X167672754Y-76802246D01*
X167636895Y-76772818D01*
X167260918Y-76396841D01*
X167270000Y-76351184D01*
X167270000Y-76048816D01*
X167211011Y-75752257D01*
X167095299Y-75472905D01*
X166927312Y-75221495D01*
X166713505Y-75007688D01*
X166462095Y-74839701D01*
X166182743Y-74723989D01*
X165886184Y-74665000D01*
X165583816Y-74665000D01*
X165287257Y-74723989D01*
X165007905Y-74839701D01*
X164756495Y-75007688D01*
X164542688Y-75221495D01*
X164374701Y-75472905D01*
X164258989Y-75752257D01*
X164200000Y-76048816D01*
X164200000Y-76351184D01*
X164258989Y-76647743D01*
X164374701Y-76927095D01*
X164542688Y-77178505D01*
X164756495Y-77392312D01*
X165007905Y-77560299D01*
X165287257Y-77676011D01*
X165583816Y-77735000D01*
X165839183Y-77735000D01*
X165812688Y-77761495D01*
X165644701Y-78012905D01*
X165528989Y-78292257D01*
X165470000Y-78588816D01*
X165470000Y-78891184D01*
X165528989Y-79187743D01*
X165644701Y-79467095D01*
X165812688Y-79718505D01*
X165839183Y-79745000D01*
X165583816Y-79745000D01*
X165287257Y-79803989D01*
X165007905Y-79919701D01*
X164756495Y-80087688D01*
X164542688Y-80301495D01*
X164374701Y-80552905D01*
X164317411Y-80691214D01*
X162694801Y-79068605D01*
X162694801Y-72462512D01*
X162698609Y-72423847D01*
X162694801Y-72385182D01*
X162694801Y-72385174D01*
X162683407Y-72269490D01*
X162638383Y-72121064D01*
X162584363Y-72020000D01*
X162565267Y-71984274D01*
X162498237Y-71902599D01*
X162466870Y-71864378D01*
X162436828Y-71839723D01*
X161840280Y-71243176D01*
X161815622Y-71213130D01*
X161695725Y-71114733D01*
X161558936Y-71041617D01*
X161410510Y-70996593D01*
X161294826Y-70985199D01*
X161294816Y-70985199D01*
X161256153Y-70981391D01*
X161217490Y-70985199D01*
X160923072Y-70985199D01*
X160923072Y-69585000D01*
X160910812Y-69460518D01*
X160910432Y-69459264D01*
X161102743Y-69421011D01*
X161382095Y-69305299D01*
X161633505Y-69137312D01*
X161847312Y-68923505D01*
X162015299Y-68672095D01*
X162131011Y-68392743D01*
X162190000Y-68096184D01*
X162190000Y-67793816D01*
X162131011Y-67497257D01*
X162123862Y-67479999D01*
X173427449Y-67479999D01*
X173790155Y-67842705D01*
G37*
X173790155Y-67842705D02*
X173630973Y-67760037D01*
X173354022Y-67858036D01*
X173101512Y-68008183D01*
X172883146Y-68204707D01*
X172707316Y-68440056D01*
X172580778Y-68705186D01*
X172535042Y-68855974D01*
X172656183Y-69088000D01*
X173863000Y-69088000D01*
X173863000Y-69068000D01*
X174117000Y-69068000D01*
X174117000Y-69088000D01*
X174137000Y-69088000D01*
X174137000Y-69342000D01*
X174117000Y-69342000D01*
X174117000Y-69362000D01*
X173863000Y-69362000D01*
X173863000Y-69342000D01*
X172656183Y-69342000D01*
X172535042Y-69574026D01*
X172580778Y-69724814D01*
X172707316Y-69989944D01*
X172883146Y-70225293D01*
X173101512Y-70421817D01*
X173200103Y-70480441D01*
X173034698Y-70590961D01*
X172825961Y-70799698D01*
X172661958Y-71045147D01*
X172548990Y-71317875D01*
X172491400Y-71607401D01*
X172491400Y-71902599D01*
X172548990Y-72192125D01*
X172661958Y-72464853D01*
X172825961Y-72710302D01*
X173034698Y-72919039D01*
X173193281Y-73025000D01*
X173034698Y-73130961D01*
X172825961Y-73339698D01*
X172661958Y-73585147D01*
X172548990Y-73857875D01*
X172491400Y-74147401D01*
X172491400Y-74442599D01*
X172548990Y-74732125D01*
X172661958Y-75004853D01*
X172825961Y-75250302D01*
X173034698Y-75459039D01*
X173193281Y-75565000D01*
X173034698Y-75670961D01*
X172825961Y-75879698D01*
X172661958Y-76125147D01*
X172548990Y-76397875D01*
X172491400Y-76687401D01*
X172491400Y-76982599D01*
X172548990Y-77272125D01*
X172661958Y-77544853D01*
X172825961Y-77790302D01*
X173034698Y-77999039D01*
X173280147Y-78163042D01*
X173552875Y-78276010D01*
X173842401Y-78333600D01*
X174137599Y-78333600D01*
X174427125Y-78276010D01*
X174526600Y-78234806D01*
X174526600Y-79426972D01*
X174522791Y-79465645D01*
X174537994Y-79620002D01*
X174583017Y-79768427D01*
X174618242Y-79834327D01*
X174656134Y-79905217D01*
X174754531Y-80025114D01*
X174784572Y-80049768D01*
X175294676Y-80559872D01*
X175263748Y-80570843D01*
X175013645Y-80719822D01*
X174797412Y-80914731D01*
X174623359Y-81148080D01*
X174498175Y-81410901D01*
X174453524Y-81558110D01*
X174574845Y-81788000D01*
X175768000Y-81788000D01*
X175768000Y-81768000D01*
X176022000Y-81768000D01*
X176022000Y-81788000D01*
X176042000Y-81788000D01*
X176042000Y-82042000D01*
X176022000Y-82042000D01*
X176022000Y-82062000D01*
X175768000Y-82062000D01*
X175768000Y-82042000D01*
X174574845Y-82042000D01*
X174453524Y-82271890D01*
X174498175Y-82419099D01*
X174623359Y-82681920D01*
X174797412Y-82915269D01*
X175013645Y-83110178D01*
X175130534Y-83179805D01*
X174948368Y-83301525D01*
X174741525Y-83508368D01*
X174579010Y-83751589D01*
X174467068Y-84021842D01*
X174410000Y-84308740D01*
X174410000Y-84601260D01*
X174467068Y-84888158D01*
X174579010Y-85158411D01*
X174741525Y-85401632D01*
X174948368Y-85608475D01*
X175122760Y-85725000D01*
X174948368Y-85841525D01*
X174741525Y-86048368D01*
X174579010Y-86291589D01*
X174467068Y-86561842D01*
X174410000Y-86848740D01*
X174410000Y-87141260D01*
X174467068Y-87428158D01*
X174579010Y-87698411D01*
X174741525Y-87941632D01*
X174948368Y-88148475D01*
X175122760Y-88265000D01*
X174948368Y-88381525D01*
X174741525Y-88588368D01*
X174579010Y-88831589D01*
X174467068Y-89101842D01*
X174410000Y-89388740D01*
X174410000Y-89681260D01*
X174447362Y-89869088D01*
X174095573Y-90220877D01*
X174065532Y-90245531D01*
X174040879Y-90275571D01*
X173967135Y-90365428D01*
X173894018Y-90502218D01*
X173848995Y-90650643D01*
X173833792Y-90805000D01*
X173837601Y-90843673D01*
X173837600Y-96608327D01*
X173837600Y-97209848D01*
X172854801Y-98192648D01*
X172854801Y-95144063D01*
X172858609Y-95105400D01*
X172854801Y-95066737D01*
X172854801Y-95066728D01*
X172843407Y-94951044D01*
X172798383Y-94802618D01*
X172725267Y-94665829D01*
X172687875Y-94620267D01*
X172651522Y-94575970D01*
X172651520Y-94575968D01*
X172626870Y-94545932D01*
X172596834Y-94521282D01*
X171885684Y-93810133D01*
X172007312Y-93688505D01*
X172175299Y-93437095D01*
X172291011Y-93157743D01*
X172350000Y-92861184D01*
X172350000Y-92558816D01*
X172291011Y-92262257D01*
X172175299Y-91982905D01*
X172007312Y-91731495D01*
X171793505Y-91517688D01*
X171542095Y-91349701D01*
X171262743Y-91233989D01*
X170966184Y-91175000D01*
X170663816Y-91175000D01*
X170367257Y-91233989D01*
X170087905Y-91349701D01*
X169836495Y-91517688D01*
X169697400Y-91656783D01*
X169697400Y-90855004D01*
X169888505Y-90727312D01*
X170102312Y-90513505D01*
X170270299Y-90262095D01*
X170386011Y-89982743D01*
X170445000Y-89686184D01*
X170445000Y-89383816D01*
X170386011Y-89087257D01*
X170270299Y-88807905D01*
X170102312Y-88556495D01*
X169888505Y-88342688D01*
X169637095Y-88174701D01*
X169357743Y-88058989D01*
X169165432Y-88020736D01*
X169165812Y-88019482D01*
X169178072Y-87895000D01*
X169178072Y-86095000D01*
X169165812Y-85970518D01*
X169165432Y-85969264D01*
X169357743Y-85931011D01*
X169637095Y-85815299D01*
X169888505Y-85647312D01*
X170102312Y-85433505D01*
X170270299Y-85182095D01*
X170282262Y-85153214D01*
X170386102Y-85196226D01*
X170586061Y-85236000D01*
X170789939Y-85236000D01*
X170989898Y-85196226D01*
X171178256Y-85118205D01*
X171347774Y-85004937D01*
X171491937Y-84860774D01*
X171605205Y-84691256D01*
X171683226Y-84502898D01*
X171723000Y-84302939D01*
X171723000Y-84099061D01*
X171683226Y-83899102D01*
X171605205Y-83710744D01*
X171491937Y-83541226D01*
X171347774Y-83397063D01*
X171178256Y-83283795D01*
X170989898Y-83205774D01*
X170789939Y-83166000D01*
X170766551Y-83166000D01*
X170348999Y-82748448D01*
X170367257Y-82756011D01*
X170663816Y-82815000D01*
X170966184Y-82815000D01*
X171262743Y-82756011D01*
X171542095Y-82640299D01*
X171793505Y-82472312D01*
X172007312Y-82258505D01*
X172175299Y-82007095D01*
X172291011Y-81727743D01*
X172350000Y-81431184D01*
X172350000Y-81128816D01*
X172291011Y-80832257D01*
X172175299Y-80552905D01*
X172007312Y-80301495D01*
X171793505Y-80087688D01*
X171542095Y-79919701D01*
X171262743Y-79803989D01*
X171070432Y-79765736D01*
X171070812Y-79764482D01*
X171083072Y-79640000D01*
X171083072Y-77840000D01*
X171070812Y-77715518D01*
X171070432Y-77714264D01*
X171262743Y-77676011D01*
X171542095Y-77560299D01*
X171793505Y-77392312D01*
X172007312Y-77178505D01*
X172175299Y-76927095D01*
X172291011Y-76647743D01*
X172350000Y-76351184D01*
X172350000Y-76048816D01*
X172291011Y-75752257D01*
X172175299Y-75472905D01*
X172007312Y-75221495D01*
X171793505Y-75007688D01*
X171542095Y-74839701D01*
X171262743Y-74723989D01*
X170966184Y-74665000D01*
X170663816Y-74665000D01*
X170367257Y-74723989D01*
X170087905Y-74839701D01*
X169836495Y-75007688D01*
X169622688Y-75221495D01*
X169454701Y-75472905D01*
X169338989Y-75752257D01*
X169280000Y-76048816D01*
X169280000Y-76351184D01*
X169338989Y-76647743D01*
X169454701Y-76927095D01*
X169622688Y-77178505D01*
X169646111Y-77201928D01*
X168645000Y-77201928D01*
X168520518Y-77214188D01*
X168400820Y-77250498D01*
X168290506Y-77309463D01*
X168193815Y-77388815D01*
X168114463Y-77485506D01*
X168055498Y-77595820D01*
X168049944Y-77614127D01*
X167983505Y-77547688D01*
X167944800Y-77521826D01*
X167944800Y-77516156D01*
X167949346Y-77469999D01*
X167944800Y-77423842D01*
X167944800Y-77423833D01*
X167931202Y-77285767D01*
X167877463Y-77108614D01*
X167790196Y-76945349D01*
X167718400Y-76857866D01*
X167702183Y-76838105D01*
X167702182Y-76838104D01*
X167672754Y-76802246D01*
X167636895Y-76772818D01*
X167260918Y-76396841D01*
X167270000Y-76351184D01*
X167270000Y-76048816D01*
X167211011Y-75752257D01*
X167095299Y-75472905D01*
X166927312Y-75221495D01*
X166713505Y-75007688D01*
X166462095Y-74839701D01*
X166182743Y-74723989D01*
X165886184Y-74665000D01*
X165583816Y-74665000D01*
X165287257Y-74723989D01*
X165007905Y-74839701D01*
X164756495Y-75007688D01*
X164542688Y-75221495D01*
X164374701Y-75472905D01*
X164258989Y-75752257D01*
X164200000Y-76048816D01*
X164200000Y-76351184D01*
X164258989Y-76647743D01*
X164374701Y-76927095D01*
X164542688Y-77178505D01*
X164756495Y-77392312D01*
X165007905Y-77560299D01*
X165287257Y-77676011D01*
X165583816Y-77735000D01*
X165839183Y-77735000D01*
X165812688Y-77761495D01*
X165644701Y-78012905D01*
X165528989Y-78292257D01*
X165470000Y-78588816D01*
X165470000Y-78891184D01*
X165528989Y-79187743D01*
X165644701Y-79467095D01*
X165812688Y-79718505D01*
X165839183Y-79745000D01*
X165583816Y-79745000D01*
X165287257Y-79803989D01*
X165007905Y-79919701D01*
X164756495Y-80087688D01*
X164542688Y-80301495D01*
X164374701Y-80552905D01*
X164317411Y-80691214D01*
X162694801Y-79068605D01*
X162694801Y-72462512D01*
X162698609Y-72423847D01*
X162694801Y-72385182D01*
X162694801Y-72385174D01*
X162683407Y-72269490D01*
X162638383Y-72121064D01*
X162584363Y-72020000D01*
X162565267Y-71984274D01*
X162498237Y-71902599D01*
X162466870Y-71864378D01*
X162436828Y-71839723D01*
X161840280Y-71243176D01*
X161815622Y-71213130D01*
X161695725Y-71114733D01*
X161558936Y-71041617D01*
X161410510Y-70996593D01*
X161294826Y-70985199D01*
X161294816Y-70985199D01*
X161256153Y-70981391D01*
X161217490Y-70985199D01*
X160923072Y-70985199D01*
X160923072Y-69585000D01*
X160910812Y-69460518D01*
X160910432Y-69459264D01*
X161102743Y-69421011D01*
X161382095Y-69305299D01*
X161633505Y-69137312D01*
X161847312Y-68923505D01*
X162015299Y-68672095D01*
X162131011Y-68392743D01*
X162190000Y-68096184D01*
X162190000Y-67793816D01*
X162131011Y-67497257D01*
X162123862Y-67479999D01*
X173427449Y-67479999D01*
X173790155Y-67842705D01*
G36*
X126995389Y-80570537D02*
G01*
X126721891Y-80473519D01*
X126492000Y-80594186D01*
X126492000Y-81788000D01*
X126512000Y-81788000D01*
X126512000Y-82042000D01*
X126492000Y-82042000D01*
X126492000Y-82062000D01*
X126238000Y-82062000D01*
X126238000Y-82042000D01*
X126218000Y-82042000D01*
X126218000Y-81788000D01*
X126238000Y-81788000D01*
X126238000Y-80594186D01*
X126008109Y-80473519D01*
X125889999Y-80515416D01*
X125889999Y-73237179D01*
X126995389Y-72131789D01*
X126995389Y-80570537D01*
G37*
X126995389Y-80570537D02*
X126721891Y-80473519D01*
X126492000Y-80594186D01*
X126492000Y-81788000D01*
X126512000Y-81788000D01*
X126512000Y-82042000D01*
X126492000Y-82042000D01*
X126492000Y-82062000D01*
X126238000Y-82062000D01*
X126238000Y-82042000D01*
X126218000Y-82042000D01*
X126218000Y-81788000D01*
X126238000Y-81788000D01*
X126238000Y-80594186D01*
X126008109Y-80473519D01*
X125889999Y-80515416D01*
X125889999Y-73237179D01*
X126995389Y-72131789D01*
X126995389Y-80570537D01*
M02*
