M48
; DRILL file {KiCad 5.1.5} date Mo 27 Jan 2020 03:04:31 CET
; FORMAT={-:-/ absolute / inch / decimal}
; #@! TF.CreationDate,2020-01-27T03:04:31+01:00
; #@! TF.GenerationSoftware,Kicad,Pcbnew,5.1.5
; #@! TF.FileFunction,Plated,1,2,PTH
FMAT,2
INCH
T1C0.0157
T2C0.0197
T3C0.0354
T4C0.0394
T5C0.0400
%
G90
G05
T1
X5.175Y-3.955
X5.265Y-4.245
X5.39Y-4.36
X5.51Y-4.425
X5.55Y-4.38
X5.5725Y-2.7454
X5.6889Y-2.7442
X5.725Y-4.445
X6.065Y-2.735
X6.2Y-2.445
X6.245Y-2.645
X6.41Y-3.725
X6.56Y-2.445
X6.72Y-3.315
X6.73Y-2.505
X6.73Y-2.505
X6.755Y-4.42
X6.995Y-3.565
X7.035Y-3.475
X7.045Y-3.99
T2
X4.865Y-2.75
X4.87Y-2.905
X5.115Y-4.415
X5.24Y-4.075
X5.315Y-4.425
X5.32Y-2.485
X5.76Y-2.545
X6.07Y-2.615
X6.155Y-4.09
X6.29Y-2.49
X6.415Y-2.57
X6.5Y-4.255
X6.625Y-2.84
X6.645Y-4.27
X6.775Y-3.325
X6.929Y-2.6583
X6.975Y-3.775
T3
X5.175Y-3.325
X5.175Y-3.525
X5.225Y-3.425
X5.325Y-3.425
X5.375Y-3.325
X5.375Y-3.525
X5.65Y-3.0
X5.65Y-3.2
X5.75Y-3.05
X5.75Y-3.15
X5.85Y-3.0
X5.85Y-3.2
X6.525Y-3.65
X6.525Y-3.85
X6.575Y-3.75
X6.675Y-3.75
X6.725Y-3.65
X6.725Y-3.85
X5.1Y-3.65
X5.1Y-3.85
X5.15Y-3.75
X5.25Y-3.75
X5.3Y-3.65
X5.3Y-3.85
X6.375Y-3.975
X6.375Y-4.175
X6.425Y-4.075
X6.525Y-4.075
X6.575Y-3.975
X6.575Y-4.175
X5.1Y-3.0
X5.1Y-3.2
X5.15Y-3.1
X5.25Y-3.1
X5.3Y-3.0
X5.3Y-3.2
X6.125Y-2.675
X6.125Y-2.875
X6.175Y-2.775
X6.275Y-2.775
X6.325Y-2.675
X6.325Y-2.875
X5.825Y-3.975
X5.825Y-4.175
X5.925Y-4.025
X5.925Y-4.125
X6.025Y-3.975
X6.025Y-4.175
X5.65Y-3.65
X5.65Y-3.85
X5.75Y-3.7
X5.75Y-3.8
X5.85Y-3.65
X5.85Y-3.85
X6.45Y-3.325
X6.45Y-3.525
X6.5Y-3.425
X6.6Y-3.425
X6.65Y-3.325
X6.65Y-3.525
X5.975Y-3.65
X5.975Y-3.85
X6.075Y-3.7
X6.075Y-3.8
X6.175Y-3.65
X6.175Y-3.85
X5.975Y-3.0
X5.975Y-3.2
X6.075Y-3.05
X6.075Y-3.15
X6.175Y-3.0
X6.175Y-3.2
X5.5Y-3.975
X5.5Y-4.175
X5.55Y-4.075
X5.65Y-4.075
X5.7Y-3.975
X5.7Y-4.175
X5.25Y-2.675
X5.25Y-2.875
X5.3Y-2.775
X5.4Y-2.775
X5.45Y-2.675
X5.45Y-2.875
X6.525Y-3.0
X6.525Y-3.2
X6.575Y-3.1
X6.675Y-3.1
X6.725Y-3.0
X6.725Y-3.2
X5.8Y-2.675
X5.8Y-2.875
X5.9Y-2.725
X5.9Y-2.825
X6.0Y-2.675
X6.0Y-2.875
X5.5Y-3.325
X5.5Y-3.525
X5.55Y-3.425
X5.65Y-3.425
X5.7Y-3.325
X5.7Y-3.525
X6.125Y-3.325
X6.125Y-3.525
X6.175Y-3.425
X6.275Y-3.425
X6.325Y-3.325
X6.325Y-3.525
T4
X6.925Y-3.225
X6.925Y-3.325
X6.925Y-3.425
X6.925Y-3.525
X6.925Y-3.625
X4.975Y-3.225
X4.975Y-3.325
X4.975Y-3.425
X4.975Y-3.525
X4.975Y-3.625
T5
X6.85Y-2.725
X6.85Y-2.825
X6.85Y-2.925
X6.85Y-3.025
X6.95Y-2.725
X6.95Y-2.825
X6.95Y-2.925
X6.95Y-3.025
T4
G00X6.725Y-4.1144
M15
G01X6.725Y-4.0356
M16
G05
G00X6.8825Y-4.26
M15
G01X6.8037Y-4.26
M16
G05
G00X6.9612Y-4.1144
M15
G01X6.9612Y-4.0356
M16
G05
T0
M30
